<?xml version="1.0" standalone="no"?>
<!DOCTYPE svg PUBLIC "-//W3C//DTD SVG 20010904//EN"
 "http://www.w3.org/TR/2001/REC-SVG-20010904/DTD/svg10.dtd">
<svg version="1.0" xmlns="http://www.w3.org/2000/svg"
 width="2912.000000pt" height="2912.000000pt" viewBox="0 0 2912.000000 2912.000000"
 preserveAspectRatio="xMidYMid meet">
<metadata>
Created by potrace 1.14, written by Peter Selinger 2001-2017
</metadata>
<g transform="translate(0.000000,2912.000000) scale(0.100000,-0.100000)"
fill="#000000" stroke="none">
<path d="M1033 18910 c-14 -4 233 -257 1067 -1090 l1085 -1085 1685 -1 c927
-1 1696 -5 1710 -9 14 -3 43 -9 65 -12 22 -3 46 -10 53 -15 6 -6 12 -8 12 -4
0 18 274 -104 322 -143 7 -6 39 -32 72 -57 32 -26 77 -67 100 -92 22 -25 46
-50 52 -56 42 -44 174 -266 157 -266 -4 0 -3 -4 2 -8 11 -7 37 -80 54 -147 45
-179 45 -380 0 -546 -11 -41 -21 -80 -21 -86 -1 -7 -4 -13 -8 -13 -4 0 -7 -6
-7 -13 0 -20 -37 -107 -45 -107 -5 0 -8 -7 -8 -15 0 -18 -35 -74 -99 -160 -48
-64 -188 -205 -204 -205 -5 0 -18 -10 -28 -22 -11 -11 -19 -17 -19 -13 0 4 -8
1 -17 -8 -28 -24 -194 -107 -204 -101 -5 3 -9 1 -9 -4 0 -5 -51 -21 -112 -37
-117 -29 -201 -35 -458 -35 -98 0 -306 0 -440 -1 -98 -1 -364 0 -393 1 l-39 1
200 -201 c110 -110 197 -200 193 -200 -3 0 0 -4 8 -9 11 -7 201 -191 197 -191
-1 0 279 -282 622 -627 342 -346 661 -667 709 -715 65 -66 91 -87 107 -83 11
2 22 4 24 6 1 1 5 2 10 3 22 6 146 50 207 76 125 51 148 62 157 75 4 5 8 6 8
2 0 -7 73 26 120 54 8 5 27 14 43 20 15 6 27 14 27 18 0 4 16 13 35 21 19 8
35 18 35 24 0 5 3 7 6 4 11 -12 330 210 448 312 178 154 344 326 473 492 68
87 210 299 247 368 16 30 32 57 36 60 7 5 21 38 18 43 -1 1 10 20 24 42 20 32
64 120 73 145 6 19 28 70 40 95 8 17 26 64 41 105 15 41 32 89 39 105 13 31
22 59 30 92 3 10 16 56 30 102 14 46 27 93 29 105 23 105 48 237 52 261 17
122 25 212 29 323 2 57 6 106 9 109 2 3 1 16 -4 29 -5 13 -6 24 -2 24 4 0 6
15 5 32 -1 18 -2 33 -3 33 -1 0 -3 43 -5 95 -4 104 -11 189 -19 241 -3 19 -8
52 -11 74 -26 199 -115 526 -190 700 -7 17 -30 71 -51 120 -78 186 -299 575
-326 575 -4 0 -8 6 -8 13 0 6 -9 23 -20 37 -11 14 -59 75 -107 135 -49 61
-146 169 -218 240 -126 126 -157 155 -260 240 -27 22 -54 46 -61 53 -7 6 -16
12 -20 12 -4 0 -17 8 -28 19 -53 46 -326 222 -394 252 -18 7 -32 17 -32 21 0
5 -3 7 -7 6 -5 -1 -61 24 -126 55 -65 32 -121 57 -124 57 -3 0 -19 6 -36 14
-68 30 -272 101 -317 111 -8 2 -15 4 -15 5 0 1 -9 3 -20 5 -11 2 -47 11 -80
19 -33 9 -69 18 -80 20 -11 3 -31 8 -45 11 -14 3 -41 8 -60 11 -19 3 -55 9
-80 14 -24 5 -48 6 -52 4 -5 -3 -8 -2 -8 3 0 4 -12 8 -27 9 -16 0 -53 3 -83 7
-30 3 -118 9 -195 13 -164 7 -5515 11 -5542 4z"/>
<path d="M22647 18894 c-1 -1 -42 -4 -92 -8 -115 -8 -195 -17 -282 -32 -13 -2
-33 -6 -45 -8 -13 -1 -36 -6 -53 -9 -16 -4 -43 -9 -60 -12 -16 -2 -66 -14
-110 -26 -44 -11 -87 -23 -95 -25 -152 -38 -573 -213 -661 -275 -14 -10 -28
-16 -31 -13 -3 2 -11 -2 -18 -11 -7 -8 -19 -15 -26 -15 -8 0 -14 -3 -14 -7 0
-5 -25 -21 -55 -38 -30 -16 -55 -33 -55 -37 0 -4 -5 -8 -10 -8 -12 0 -133 -81
-138 -92 -2 -5 -8 -8 -13 -8 -5 0 -17 -8 -28 -17 -10 -10 -31 -28 -47 -40 -16
-12 -39 -30 -51 -40 -12 -10 -38 -31 -58 -48 -38 -31 -56 -47 -141 -126 -68
-64 -205 -209 -245 -260 -19 -23 -41 -50 -49 -59 -9 -8 -31 -37 -49 -63 -19
-26 -38 -47 -43 -47 -4 0 -8 -6 -8 -14 0 -7 -11 -25 -25 -40 -13 -14 -21 -26
-17 -26 4 0 3 -4 -3 -8 -16 -11 -75 -99 -75 -111 0 -6 -4 -11 -8 -11 -5 0 -16
-15 -25 -32 -9 -18 -30 -55 -47 -83 -17 -27 -33 -57 -37 -65 -3 -8 -14 -26
-24 -40 -9 -14 -18 -29 -20 -35 -1 -5 -26 -61 -56 -123 -29 -62 -53 -116 -53
-120 -1 -4 -9 -25 -20 -47 -11 -22 -19 -47 -20 -55 0 -9 -5 -21 -11 -27 -6 -6
-12 -19 -14 -29 -2 -11 -4 -19 -5 -19 -1 0 -3 -9 -5 -20 -2 -11 -9 -21 -15
-23 -5 -2 -8 -7 -5 -12 3 -4 -8 -45 -24 -91 -16 -46 -37 -113 -46 -149 -9 -36
-19 -72 -23 -80 -3 -8 -6 -19 -6 -25 -1 -5 -5 -23 -9 -40 -4 -16 -9 -43 -11
-60 -3 -16 -9 -50 -15 -75 -5 -25 -13 -67 -16 -95 -4 -27 -8 -61 -11 -75 -19
-105 -22 -700 -4 -700 3 0 7 -17 8 -37 1 -21 7 -62 13 -91 6 -29 12 -67 14
-85 2 -18 4 -32 5 -32 1 0 3 -11 6 -25 7 -44 29 -144 34 -157 2 -5 4 -12 5
-18 2 -5 4 -13 5 -17 1 -5 3 -11 4 -15 5 -21 38 -130 43 -143 28 -71 50 -140
45 -144 -3 -4 0 -6 6 -6 7 0 11 -3 9 -8 -2 -7 16 -53 51 -132 9 -19 16 -38 17
-41 0 -8 82 -175 114 -234 56 -102 130 -226 140 -235 4 -3 24 -31 46 -64 52
-78 121 -168 163 -213 12 -13 22 -25 22 -27 0 -18 324 -340 383 -381 15 -11
189 -146 220 -171 9 -8 20 -14 23 -14 6 0 96 -60 104 -69 3 -3 19 -13 35 -21
17 -8 37 -19 45 -26 8 -6 49 -29 90 -50 41 -22 76 -42 78 -46 2 -4 20 -12 40
-19 20 -6 40 -16 43 -21 3 -5 16 -11 29 -13 13 -2 27 -10 30 -16 4 -6 9 -9 12
-7 3 1 31 -9 64 -23 54 -24 77 -33 182 -73 42 -17 86 -30 90 -27 1 1 15 -5 30
-13 18 -9 34 -11 43 -6 26 17 2019 2014 2013 2019 -3 3 -267 6 -587 8 -641 2
-600 1 -642 13 -16 5 -43 11 -60 14 -16 2 -46 10 -65 16 -19 6 -42 13 -50 15
-8 1 -42 15 -75 31 -33 15 -63 28 -67 28 -4 1 -35 20 -70 42 -35 23 -66 43
-70 43 -4 1 -18 11 -31 24 -13 12 -36 34 -52 48 -53 46 -136 143 -180 209 -69
105 -143 281 -148 349 -1 17 -5 31 -8 31 -3 0 -6 6 -7 13 0 6 -3 37 -7 67 -8
79 -12 220 -5 220 3 0 6 19 7 43 1 43 6 82 17 127 3 14 9 40 12 58 3 17 9 32
13 32 4 0 8 6 8 13 0 20 47 137 55 137 5 0 8 9 8 20 0 11 3 20 8 20 4 0 13 14
21 30 34 78 192 254 283 316 24 16 49 35 56 42 7 6 20 12 28 12 8 0 14 4 14 8
0 12 145 77 227 102 92 27 198 47 255 46 25 -1 44 2 41 6 -2 5 6 4 19 -1 14
-5 31 -5 40 0 9 5 19 5 22 1 3 -5 26 -6 51 -2 25 4 45 4 45 1 0 -8 43 -7 56 2
5 3 16 2 24 -3 9 -5 19 -5 26 1 8 7 14 6 19 -1 4 -7 12 -7 25 0 13 7 21 7 25
0 4 -7 13 -7 26 0 10 6 19 7 19 3 0 -9 63 -8 79 1 5 4 12 2 16 -4 4 -6 11 -7
17 -4 15 10 68 11 68 2 0 -4 14 -3 30 2 17 5 30 5 30 2 0 -9 64 -7 79 3 6 3
11 1 11 -5 0 -8 6 -7 21 1 15 7 24 8 32 0 6 -6 16 -7 28 -1 11 7 20 7 24 0 4
-7 13 -7 26 0 12 7 19 7 19 1 0 -6 11 -6 30 -1 18 5 32 5 35 -1 4 -5 14 -5 25
1 13 7 21 7 25 0 4 -7 13 -7 26 0 10 6 19 7 19 3 0 -9 63 -8 79 1 5 4 12 2 16
-4 4 -6 11 -7 17 -4 15 10 68 11 68 2 0 -4 14 -3 30 2 17 5 30 5 30 2 0 -9 64
-7 79 3 6 3 11 1 11 -5 0 -8 6 -7 21 1 15 7 24 8 32 0 6 -6 16 -7 28 -1 11 7
20 7 24 0 4 -7 13 -7 26 0 12 7 19 7 19 1 0 -6 11 -6 30 -1 18 5 32 5 35 -1 4
-5 14 -5 25 1 13 7 21 7 25 0 4 -7 13 -7 26 0 10 6 19 7 19 3 0 -9 63 -8 79 1
5 4 12 2 16 -4 4 -6 11 -7 17 -4 15 10 68 11 68 2 0 -4 14 -3 30 2 17 5 30 5
30 2 0 -9 64 -7 79 3 6 3 11 1 11 -5 0 -8 6 -7 21 1 15 7 24 8 32 0 6 -6 16
-7 28 -1 11 7 20 7 24 0 4 -7 13 -7 26 0 12 7 19 7 19 1 0 -6 11 -6 30 -1 18
5 32 5 35 -1 4 -5 14 -5 25 1 13 7 21 7 25 0 4 -7 13 -7 26 0 10 6 19 7 19 3
0 -9 63 -8 79 1 5 4 12 2 16 -4 4 -6 11 -7 17 -4 15 10 68 11 68 2 0 -4 14 -3
30 2 17 5 30 5 30 2 0 -9 64 -7 79 3 6 3 11 1 11 -5 0 -8 6 -7 21 1 15 7 24 8
32 0 6 -6 16 -7 28 -1 11 7 20 7 24 0 4 -7 13 -7 26 0 10 6 19 7 19 2 0 -5 23
-6 50 -2 28 4 50 4 50 0 0 -7 43 -6 56 3 5 3 16 2 24 -3 8 -5 21 -5 31 1 11 6
20 5 24 -1 4 -7 13 -7 26 0 13 8 19 7 19 0 0 -7 6 -8 19 0 13 6 22 7 26 0 3
-6 15 -6 30 0 15 6 27 6 30 0 4 -7 13 -6 25 0 13 7 21 7 25 0 4 -6 12 -7 23
-1 21 12 2180 2171 2172 2172 -7 2 -5531 5 -5533 3z"/>
<path d="M9712 18881 c-22 -6 -20 -9 31 -61 30 -30 76 -76 103 -101 27 -26 56
-55 65 -65 9 -11 119 -119 245 -241 126 -122 326 -317 444 -432 118 -116 218
-211 222 -211 5 0 8 -7 8 -15 0 -8 4 -15 8 -15 4 0 96 -87 205 -193 108 -107
197 -191 197 -188 0 3 9 -7 20 -24 11 -16 20 -28 20 -25 0 6 230 -218 472
-458 l117 -116 403 -3 c222 -2 627 -4 900 -5 275 -2 498 -7 498 -12 0 -5 6 -4
13 3 10 8 17 7 25 -1 8 -8 12 -8 12 -1 0 6 12 8 28 6 15 -2 34 -4 42 -4 73 3
102 2 107 -2 3 -3 16 -2 29 3 13 5 25 6 28 2 4 -7 51 -8 66 -2 3 1 9 1 15 0 5
-1 46 -3 90 -6 44 -2 94 -6 110 -8 17 -3 48 -7 70 -10 22 -4 56 -10 75 -15 19
-5 76 -19 125 -32 87 -21 219 -64 300 -97 68 -28 283 -140 330 -172 24 -16 46
-30 49 -30 6 0 36 -24 61 -47 8 -7 16 -13 20 -13 4 0 12 -6 20 -12 7 -7 32
-29 55 -47 23 -19 48 -41 56 -48 7 -7 15 -13 18 -13 10 0 171 -171 224 -239
15 -19 36 -46 48 -60 30 -37 118 -169 144 -216 62 -110 106 -191 107 -195 1
-3 7 -18 14 -35 7 -16 13 -32 14 -35 0 -3 6 -15 13 -26 6 -12 8 -24 5 -28 -3
-3 -1 -6 5 -6 7 0 11 -3 10 -7 -1 -5 4 -24 11 -43 14 -36 19 -51 24 -72 1 -7
5 -18 9 -23 8 -14 59 -210 64 -250 2 -16 5 -42 6 -57 1 -16 5 -28 8 -28 3 0 7
-10 7 -22 1 -13 4 -70 8 -128 6 -91 9 -305 5 -305 -2 0 -9 -86 -13 -152 -1
-18 -4 -33 -7 -33 -3 0 -6 -17 -8 -38 -2 -35 -9 -77 -12 -77 -1 0 -4 -11 -6
-24 -15 -83 -62 -242 -100 -338 -29 -76 -123 -275 -133 -283 -4 -3 -18 -26
-31 -51 -27 -51 -115 -184 -140 -210 -8 -9 -22 -26 -30 -36 -52 -69 -270 -300
-270 -287 0 5 -31 -22 -77 -64 -19 -18 -48 -39 -64 -48 -16 -8 -29 -19 -29
-24 0 -6 -7 -10 -15 -10 -8 0 -15 -4 -15 -10 0 -5 -4 -10 -9 -10 -5 0 -33 -15
-61 -34 -28 -19 -73 -45 -98 -58 -26 -12 -49 -25 -52 -28 -8 -8 -100 -50 -103
-47 -2 1 -15 -6 -30 -16 -15 -9 -27 -15 -27 -11 0 4 -6 2 -12 -3 -15 -12 -123
-48 -124 -42 0 2 -7 -1 -15 -8 -8 -6 -43 -19 -79 -28 -83 -22 -93 -24 -180
-41 -38 -7 -131 -17 -167 -18 -18 -1 -33 -4 -33 -7 0 -3 -524 -6 -1165 -6
l-1165 -1 -118 -114 c-107 -105 -236 -230 -444 -429 -135 -131 -479 -462 -543
-524 -34 -33 -155 -150 -270 -260 -114 -110 -242 -234 -285 -275 -374 -361
-481 -464 -519 -499 l-43 -41 38 0 c204 -3 5571 2 5609 4 79 5 206 17 229 22
47 10 73 14 116 18 25 3 56 8 70 11 25 7 72 18 120 29 14 3 40 9 58 12 18 3
35 10 38 15 3 5 9 7 13 5 4 -3 65 15 137 40 71 24 134 46 139 48 55 18 163 62
185 76 13 8 26 14 27 12 5 -4 216 100 303 150 96 55 196 118 222 141 12 9 24
17 28 17 3 0 15 8 26 18 10 10 35 29 54 42 43 30 67 49 92 73 10 9 20 17 23
17 7 0 53 42 173 158 59 56 110 102 114 102 5 0 8 3 8 8 0 4 20 30 46 57 25
28 57 66 72 85 15 19 32 40 38 45 41 38 254 344 254 365 0 5 5 10 10 10 6 0
10 6 10 14 0 7 7 19 15 26 8 7 12 16 9 21 -3 5 -2 9 3 9 4 0 13 10 19 23 6 12
35 69 64 127 30 58 55 107 56 110 0 3 7 19 14 35 7 17 14 32 15 35 1 3 6 16
12 30 39 91 73 185 78 210 0 3 4 11 9 19 8 12 19 51 32 110 3 13 9 32 15 43 5
10 8 18 5 18 -3 0 1 21 9 48 15 51 41 177 50 239 3 21 8 45 11 53 3 8 8 38 10
65 2 28 6 68 8 90 15 136 18 382 18 1430 0 1040 -3 1302 -17 1410 -2 17 -7 53
-10 80 -7 59 -40 248 -49 280 -1 6 -6 28 -11 50 -4 22 -10 45 -14 50 -3 6 -6
15 -6 20 -1 13 -14 63 -25 95 -16 49 -19 60 -19 63 1 2 -25 73 -41 112 -4 11
-18 47 -30 80 -12 33 -30 78 -40 100 -9 22 -23 57 -31 78 -7 20 -17 37 -21 37
-4 0 -8 5 -8 10 0 36 -226 437 -252 448 -4 2 -8 8 -8 14 0 8 -83 122 -100 138
-3 3 -17 21 -30 40 -14 19 -32 42 -40 51 -8 8 -40 44 -70 79 -30 35 -91 100
-136 144 -74 74 -103 101 -233 213 -103 89 -327 241 -476 323 -22 12 -44 26
-49 31 -6 5 -18 9 -28 9 -10 0 -18 4 -18 9 0 5 -10 13 -22 17 -13 4 -58 24
-101 45 -43 21 -88 41 -100 45 -12 3 -35 12 -52 19 -51 21 -146 58 -155 59 -3
1 -25 9 -50 18 -54 20 -206 67 -236 72 -12 3 -38 9 -57 14 -20 6 -38 7 -41 4
-3 -3 -6 0 -6 7 0 7 -3 10 -8 7 -4 -2 -30 0 -57 6 -28 5 -63 11 -80 13 -16 2
-41 6 -55 9 -14 3 -50 8 -80 11 -30 3 -73 8 -95 11 -22 3 -81 7 -131 8 -50 2
-96 6 -102 10 -6 3 -13 2 -16 -3 -4 -6 -18 -6 -36 -1 -17 5 -30 5 -30 0 0 -5
-13 -5 -30 0 -17 5 -30 5 -30 0 0 -5 -13 -5 -30 0 -17 5 -30 5 -30 0 0 -5 -13
-5 -30 0 -17 5 -30 5 -30 0 0 -5 -13 -5 -30 0 -17 5 -30 5 -30 0 0 -5 -13 -5
-30 0 -17 5 -30 5 -30 0 0 -5 -13 -5 -30 0 -17 5 -30 5 -30 0 0 -5 -13 -5 -30
0 -17 5 -30 5 -30 0 0 -5 -13 -5 -30 0 -17 5 -30 5 -30 0 0 -5 -13 -5 -30 0
-17 5 -30 5 -30 0 0 -5 -13 -5 -30 0 -17 5 -30 5 -30 0 0 -5 -13 -5 -30 0 -17
5 -30 5 -30 0 0 -5 -13 -5 -30 0 -17 5 -30 5 -30 0 0 -5 -13 -5 -30 0 -17 5
-30 5 -30 0 0 -5 -13 -5 -30 0 -17 5 -30 5 -30 0 0 -5 -13 -5 -30 0 -17 5 -30
5 -30 0 0 -5 -13 -5 -30 0 -17 5 -30 5 -30 0 0 -5 -13 -5 -30 0 -17 5 -30 5
-30 0 0 -5 -13 -5 -30 0 -17 5 -30 5 -30 0 0 -5 -13 -5 -30 0 -17 5 -30 5 -30
0 0 -5 -13 -5 -30 0 -17 5 -30 5 -30 0 0 -5 -13 -5 -30 0 -17 5 -30 5 -30 0 0
-5 -13 -5 -30 0 -17 5 -30 5 -30 0 0 -5 -13 -5 -30 0 -17 5 -30 5 -30 0 0 -5
-13 -5 -30 0 -17 5 -30 5 -30 0 0 -5 -13 -5 -30 0 -17 5 -30 5 -30 0 0 -5 -13
-5 -30 0 -17 5 -30 5 -30 0 0 -5 -13 -5 -30 0 -17 5 -30 5 -30 0 0 -5 -13 -5
-30 0 -17 5 -30 5 -30 0 0 -5 -13 -5 -30 0 -17 5 -30 5 -30 0 0 -5 -13 -5 -30
0 -17 5 -30 5 -30 0 0 -5 -13 -5 -30 0 -17 5 -30 5 -30 0 0 -5 -13 -5 -30 0
-17 5 -30 5 -30 0 0 -5 -13 -5 -30 0 -17 5 -30 5 -30 0 0 -5 -13 -5 -30 0 -17
5 -30 5 -30 0 0 -5 -13 -5 -30 0 -17 5 -30 5 -30 0 0 -5 -13 -5 -30 0 -17 5
-30 5 -30 0 0 -5 -13 -5 -30 0 -17 5 -30 5 -30 0 0 -5 -13 -5 -30 0 -17 5 -30
5 -30 0 0 -5 -13 -5 -30 0 -17 5 -30 5 -30 0 0 -5 -13 -5 -30 0 -17 5 -30 5
-30 0 0 -5 -13 -5 -30 0 -17 5 -30 5 -30 0 0 -5 -13 -5 -30 0 -17 5 -30 5 -30
0 0 -5 -13 -5 -30 0 -17 5 -30 5 -30 0 0 -5 -13 -5 -30 0 -17 5 -30 5 -30 0 0
-5 -13 -5 -30 0 -17 5 -30 5 -30 0 0 -5 -13 -5 -30 0 -17 5 -30 5 -30 0 0 -5
-13 -5 -30 0 -17 5 -30 5 -30 0 0 -5 -13 -5 -30 0 -17 5 -30 5 -30 0 0 -5 -13
-5 -30 0 -17 5 -30 5 -30 0 0 -5 -13 -5 -30 0 -17 5 -30 5 -30 0 0 -5 -13 -5
-30 0 -17 5 -30 5 -30 0 0 -5 -13 -5 -30 0 -17 5 -30 5 -30 0 0 -5 -13 -5 -30
0 -17 5 -30 5 -30 0 0 -5 -13 -5 -30 0 -17 5 -30 5 -30 0 0 -5 -13 -5 -30 0
-17 5 -30 5 -30 0 0 -5 -13 -5 -30 0 -17 5 -30 5 -30 0 0 -5 -13 -5 -30 0 -17
5 -30 5 -30 0 0 -5 -13 -5 -30 0 -17 5 -30 5 -30 0 0 -5 -13 -5 -30 0 -17 5
-30 5 -30 0 0 -5 -13 -5 -30 0 -17 5 -30 5 -30 0 0 -5 -13 -5 -30 0 -17 5 -30
5 -30 0 0 -5 -13 -5 -30 0 -17 5 -30 5 -30 0 0 -5 -13 -5 -30 0 -17 5 -30 5
-30 0 0 -5 -13 -5 -30 0 -17 5 -30 5 -30 0 0 -5 -13 -5 -30 0 -17 5 -30 5 -30
0 0 -5 -13 -5 -30 0 -17 5 -30 5 -30 0 0 -5 -13 -5 -30 0 -17 5 -30 5 -30 0 0
-5 -13 -5 -30 0 -17 5 -30 5 -30 0 0 -5 -13 -5 -30 0 -17 5 -30 5 -30 0 0 -5
-13 -5 -30 0 -17 5 -30 5 -30 0 0 -5 -13 -5 -30 0 -17 5 -30 5 -30 0 0 -5 -13
-5 -30 0 -17 5 -30 5 -30 0 0 -5 -13 -5 -30 0 -17 5 -30 5 -30 0 0 -5 -13 -5
-30 0 -17 5 -30 5 -30 0 0 -5 -13 -5 -30 0 -17 5 -30 5 -30 0 0 -5 -13 -5 -30
0 -17 5 -30 5 -30 0 0 -5 -13 -5 -30 0 -17 5 -30 5 -30 0 0 -5 -13 -5 -30 0
-17 5 -32 5 -35 0 -3 -5 -15 -6 -29 0 -12 4 -29 4 -36 0 -8 -5 -18 -6 -23 -3
-12 8 -117 9 -117 1 0 -4 -13 -3 -30 2 -17 5 -32 5 -35 0 -3 -5 -16 -5 -28 -1
-12 5 -34 5 -49 0 -16 -4 -28 -5 -28 -1 0 4 -49 7 -110 7 -60 0 -110 -3 -110
-6 0 -4 -15 -4 -32 0 -18 4 -43 5 -56 2z"/>
<path d="M11938 15632 l-48 -3 0 -82 c-2 -624 1 -2080 4 -2085 5 -9 2078 -6
2161 2 32 4 77 11 100 17 22 6 48 13 57 15 45 10 55 13 81 23 60 24 72 29 82
31 6 1 22 11 38 22 15 11 27 16 27 11 0 -4 4 -3 8 2 4 6 23 19 42 29 82 45
220 166 275 241 17 22 32 42 35 45 27 24 127 208 134 245 2 13 9 32 14 42 59
117 75 426 31 610 -23 99 -84 254 -101 261 -4 2 -8 9 -8 14 0 10 -50 94 -73
123 -91 117 -267 275 -306 275 -5 0 -11 3 -13 8 -4 10 -146 79 -180 87 -16 4
-28 11 -28 17 0 5 -4 7 -9 4 -5 -3 -30 1 -57 8 -51 15 -86 22 -169 32 -50 6
-2008 12 -2097 6z"/>
<path d="M956 14562 c-5 -8 29 -47 75 -88 13 -11 31 -31 39 -42 8 -12 20 -22
27 -22 7 0 13 -4 13 -8 0 -8 390 -400 3197 -3218 l973 -976 641 1 c353 0 643
1 645 3 2 2 -93 101 -212 219 -118 118 -854 855 -1634 1639 -781 784 -1655
1662 -1943 1951 -288 289 -532 529 -542 533 -10 4 -102 6 -204 6 -103 -1 -195
-1 -206 -1 -11 0 -85 0 -165 0 -80 0 -149 0 -155 0 -5 0 -66 0 -135 1 -69 1
-185 1 -257 0 -73 -1 -137 1 -142 5 -5 3 -12 2 -15 -3z"/>
<path d="M2915 14560 l-110 -5 2173 -2173 2173 -2174 587 1 c323 0 621 0 663
1 l76 0 -1176 1179 c-647 649 -1619 1625 -2161 2170 -542 545 -992 993 -1000
997 -8 3 -98 5 -200 4 -102 -1 -192 -1 -200 -1 -8 0 -80 0 -160 0 -80 0 -158
0 -175 1 -96 4 -396 4 -490 0z"/>
<path d="M24591 14050 c-999 -989 -1541 -1529 -1541 -1533 0 -2 722 -5 1604
-5 l1605 0 41 47 c23 25 50 56 61 67 10 12 19 26 19 32 0 5 7 12 15 16 8 3 15
10 15 15 0 5 16 33 35 63 19 29 43 72 51 95 9 24 21 43 25 43 5 0 8 3 7 8 -1
4 7 36 19 72 12 36 25 81 29 100 9 43 10 47 19 85 4 17 8 89 10 160 2 126 -10
235 -37 328 -6 23 -12 44 -12 47 -1 3 -5 11 -9 18 -5 6 -6 12 -3 12 11 0 -83
200 -122 260 -43 67 -47 73 -57 84 -5 6 -35 41 -65 76 -30 36 -64 72 -75 81
-11 9 -31 27 -45 39 -14 12 -36 30 -50 38 -14 9 -29 22 -33 29 -4 7 -14 13
-21 13 -7 0 -21 8 -32 18 -31 28 -244 129 -244 116 0 -3 -10 2 -21 10 -12 8
-28 12 -35 9 -8 -3 -14 -1 -14 4 0 5 -10 9 -22 10 -27 0 -75 10 -85 16 -18 11
-170 20 -345 21 l-188 1 -499 -495z"/>
<path d="M20827 11531 c-20 -22 -38 -37 -41 -33 -3 3 -6 1 -6 -4 0 -11 -403
-417 -430 -434 -8 -5 -12 -10 -9 -10 7 0 -451 -457 -471 -470 -8 -5 -12 -10
-9 -10 7 0 -291 -297 -311 -310 -8 -6 -11 -10 -6 -10 4 0 -2 -9 -15 -20 -13
-10 -19 -20 -14 -20 35 -3 2701 1 2745 4 72 5 204 16 255 22 22 2 60 6 85 9
25 2 45 5 45 5 0 3 42 10 88 14 27 3 56 7 65 10 9 3 33 8 52 10 19 3 51 9 70
14 19 5 38 9 43 10 4 1 8 2 10 3 1 1 13 2 27 4 25 3 136 30 245 60 33 9 67 18
75 20 8 2 34 10 57 18 22 9 44 13 47 10 3 -4 6 -1 6 5 0 7 3 11 8 11 4 -1 9 0
12 1 3 1 13 3 23 5 10 2 26 7 35 11 9 4 23 8 30 10 7 1 57 19 110 40 53 21 99
39 102 39 3 1 19 8 35 15 17 7 32 14 35 15 35 12 149 64 243 111 48 24 87 40
87 36 0 -4 4 -2 8 3 4 6 25 19 47 30 22 11 42 23 45 26 3 3 45 28 94 55 49 27
101 56 115 64 38 22 303 201 317 214 7 6 37 29 68 51 31 22 56 43 56 47 0 4 5
8 10 8 11 0 15 3 61 43 14 12 47 40 74 62 27 22 66 57 88 78 22 20 41 37 43
37 2 0 33 29 70 65 l66 64 -2225 0 -2225 0 -35 -38z"/>
</g>
</svg>
