<?xml version="1.0" encoding="utf-8"?>
<!-- Generator: Adobe Illustrator 25.4.0, SVG Export Plug-In . SVG Version: 6.00 Build 0)  -->
<svg version="1.1" id="Layer_1" xmlns="http://www.w3.org/2000/svg" xmlns:xlink="http://www.w3.org/1999/xlink" x="0px" y="0px"
	 viewBox="0 0 33.9 34" style="enable-background:new 0 0 33.9 34;" xml:space="preserve">
<style type="text/css">
	.st0{fill:url(#Path_19_00000146495759748003322670000003157996402593139388_);}
	.st1{fill:url(#SVGID_1_);}
	.st2{fill:url(#SVGID_00000178207003603984477050000007831729965664531869_);}
</style>
<linearGradient id="Path_19_00000059988022363936336610000013974583674040190601_" gradientUnits="userSpaceOnUse" x1="5.9995" y1="6.7345" x2="23.0534" y2="6.7345">
	<stop  offset="0" style="stop-color:#72B8FF"/>
	<stop  offset="0.9883" style="stop-color:#9889FF"/>
</linearGradient>
<path id="Path_19_1_" style="fill:url(#Path_19_00000059988022363936336610000013974583674040190601_);" d="M7,7.7h7
	c0.5,0,1-0.4,1-1s-0.4-1-1-1H7c-0.5,0-1,0.4-1,1S6.4,7.7,7,7.7z"/>
<g>
	<linearGradient id="SVGID_1_" gradientUnits="userSpaceOnUse" x1="2" y1="17" x2="32" y2="17">
		<stop  offset="0" style="stop-color:#72B8FF"/>
		<stop  offset="0.9883" style="stop-color:#9889FF"/>
	</linearGradient>
	<path class="st1" d="M28.8,3.2c1.1,0,2,0.9,2,2v23.7c0,1.1-0.9,2-2,2H5.2c-1.1,0-2-0.9-2-2V5.2c0-1.1,0.9-2,2-2H28.8 M28.8,2H5.2
		C3.4,2,2,3.4,2,5.2v23.7C2,30.6,3.4,32,5.2,32h23.7c1.7,0,3.2-1.4,3.2-3.2V5.2C32,3.4,30.6,2,28.8,2L28.8,2z"/>
</g>
<g>
	
		<linearGradient id="SVGID_00000086689531631340807720000003534709352643992996_" gradientUnits="userSpaceOnUse" x1="6" y1="19.5" x2="28" y2="19.5">
		<stop  offset="0" style="stop-color:#72B8FF"/>
		<stop  offset="0.9883" style="stop-color:#9889FF"/>
	</linearGradient>
	<path style="fill:url(#SVGID_00000086689531631340807720000003534709352643992996_);" d="M26.2,12.2c0.3,0,0.6,0.3,0.6,0.6v13.3
		c0,0.3-0.3,0.6-0.6,0.6H7.8c-0.3,0-0.6-0.3-0.6-0.6V12.8c0-0.3,0.3-0.6,0.6-0.6H26.2 M26.2,11H7.8c-1,0-1.8,0.8-1.8,1.8v13.3
		c0,1,0.8,1.8,1.8,1.8h18.3c1,0,1.8-0.8,1.8-1.8V12.8C28,11.8,27.2,11,26.2,11L26.2,11z"/>
</g>
</svg>
