<?xml version="1.0" encoding="utf-8"?>
<!-- Generator: Adobe Illustrator 25.4.0, SVG Export Plug-In . SVG Version: 6.00 Build 0)  -->
<svg version="1.1" id="Layer_1" xmlns="http://www.w3.org/2000/svg" xmlns:xlink="http://www.w3.org/1999/xlink" x="0px" y="0px"
	 viewBox="0 0 39.9 38" style="enable-background:new 0 0 39.9 38;" xml:space="preserve">
<style type="text/css">
	.st0{fill:url(#SVGID_1_);}
</style>
<g id="Icon_awesome-cannabis">
	<linearGradient id="SVGID_1_" gradientUnits="userSpaceOnUse" x1="1.9366" y1="19" x2="37.9358" y2="19">
		<stop  offset="0" style="stop-color:#72B8FF"/>
		<stop  offset="0.9883" style="stop-color:#9889FF"/>
	</linearGradient>
	<path class="st0" d="M19.9,2.4c2.6,4.4,4,9.4,4.1,14.5v0.3v2.6l2-1.6c3.1-2.5,6.7-4.3,10.6-5.3c-1.1,4-3,7.8-5.7,10.9l-1.4,1.6
		l2.1,0.4c1.7,0.3,3.3,0.9,4.8,1.6c-2.7,1.3-5.6,1.9-8.6,2c-0.4,0-0.8,0-1.2,0l-2.2-0.1l1,1.9c0.4,0.8,0.7,1.5,1,2.3
		c-1.7-0.6-3.3-1.5-4.9-2.5l-1.7-1.2v-0.2l-0.1,0.1l-0.1-0.1v0.2l-1.7,1.2c-1.5,1-3.1,1.9-4.8,2.5c0.3-0.8,0.6-1.6,1-2.3l1-1.9
		l-2.2,0.1c-0.4,0-0.8,0-1.2,0c-3,0-5.9-0.7-8.6-2c1.5-0.7,3.2-1.3,4.8-1.6l2.1-0.4l-1.4-1.6c-2.7-3.2-4.6-7-5.7-10.9
		c3.9,1,7.4,2.8,10.6,5.3l2,1.6v-2.6l0-0.3C15.9,11.8,17.4,6.7,19.9,2.4 M19.9,1c-0.2,0-0.4,0.1-0.6,0.2c-0.1,0.1-0.3,0.2-0.3,0.3
		c-2.8,4.6-4.3,9.9-4.4,15.3c0,0.1,0,0.2,0,0.3c-3.3-2.6-7.2-4.6-11.3-5.6c-0.1,0-0.2,0-0.2,0c-0.5,0-1,0.4-1.1,0.9
		c0,0.2,0,0.3,0,0.5c1.1,4.3,3.1,8.3,6,11.6c-1.9,0.4-3.7,1-5.4,1.8c-0.5,0.3-0.8,1-0.5,1.5c0.1,0.2,0.3,0.4,0.5,0.5
		c2.9,1.4,6.1,2.2,9.4,2.2c0.4,0,0.8,0,1.2,0c-0.5,0.9-0.9,1.8-1.2,2.8c-0.2,0.6,0.1,1.2,0.7,1.4c0.1,0,0.2,0.1,0.3,0.1
		c0.1,0,0.2,0,0.3-0.1c1.9-0.7,3.8-1.6,5.4-2.8v4.5c0,0.3,0.3,0.6,0.6,0.6c0,0,0,0,0,0h1.1c0,0,0,0,0,0c0.3,0,0.6-0.3,0.6-0.6
		c0,0,0,0,0,0v-4.5c1.7,1.2,3.5,2.1,5.4,2.8c0.1,0,0.2,0.1,0.3,0.1c0.5,0,0.9-0.3,1.1-0.8c0.1-0.2,0.1-0.5,0-0.7
		c-0.3-0.9-0.7-1.9-1.2-2.8c0.4,0,0.8,0,1.2,0c3.3,0,6.5-0.8,9.4-2.2c0.5-0.3,0.8-1,0.5-1.5c-0.1-0.2-0.3-0.4-0.5-0.5
		c-1.7-0.8-3.5-1.4-5.4-1.8c2.8-3.4,4.9-7.4,6-11.6c0.1-0.6-0.2-1.2-0.9-1.3c-0.1,0-0.2,0-0.2,0c0,0,0,0,0,0c0,0,0,0,0,0
		c-0.1,0-0.2,0-0.2,0c-4.1,1-8,3-11.3,5.6c0-0.1,0-0.2,0-0.3c-0.1-5.4-1.6-10.7-4.4-15.3C20.7,1.2,20.3,1,19.9,1L19.9,1z"/>
</g>
</svg>
