<?xml version="1.0" encoding="utf-8"?>
<!-- Generator: Adobe Illustrator 25.4.0, SVG Export Plug-In . SVG Version: 6.00 Build 0)  -->
<svg version="1.1" id="Layer_1" xmlns="http://www.w3.org/2000/svg" xmlns:xlink="http://www.w3.org/1999/xlink" x="0px" y="0px"
	 viewBox="0 0 32 24" style="enable-background:new 0 0 32 24;" xml:space="preserve">
<style type="text/css">
	.st0{fill:none;stroke:url(#Path_17_00000029007953270480224120000010019221423843440314_);stroke-miterlimit:10;}
	.st1{fill:none;stroke:url(#Path_18_00000059305429808101799700000016688646995522632585_);stroke-miterlimit:10;}
</style>
<g id="Icon_ionic-ios-mail" transform="translate(-3.375 -7.875)">
	
		<linearGradient id="Path_17_00000051343916837625278960000000126416920226805676_" gradientUnits="userSpaceOnUse" x1="4.25" y1="21.0948" x2="34.5" y2="21.0948">
		<stop  offset="0" style="stop-color:#72B8FF"/>
		<stop  offset="0.9883" style="stop-color:#9889FF"/>
	</linearGradient>
	
		<path id="Path_17" style="fill:none;stroke:url(#Path_17_00000051343916837625278960000000126416920226805676_);stroke-miterlimit:10;" d="
		M33.8,12.2l-7.6,7.7c-0.1,0.1-0.1,0.1,0,0.2c0,0,0,0,0,0l5.3,5.6c0.4,0.4,0.4,0.9,0,1.3c0,0,0,0,0,0c-0.4,0.4-0.9,0.4-1.3,0
		l-5.3-5.6c-0.1-0.1-0.1-0.1-0.2,0l-1.3,1.3c-1.1,1.1-2.5,1.7-4,1.7c-1.6,0-3-0.6-4.1-1.8L14,21.4c-0.1-0.1-0.1-0.1-0.2,0l-5.3,5.6
		c-0.4,0.4-0.9,0.4-1.3,0c-0.4-0.4-0.4-0.9,0-1.3c0,0,0,0,0,0l5.3-5.6c0.1-0.1,0.1-0.1,0-0.2L5,12.2c-0.1-0.1-0.1-0.1-0.2,0
		c0,0,0,0.1,0,0.1v15.4C4.8,29,5.8,30,7,30h24.8c1.2,0,2.2-1,2.2-2.2V12.3C34,12.3,33.9,12.2,33.8,12.2
		C33.8,12.2,33.8,12.2,33.8,12.2z"/>
	
		<linearGradient id="Path_18_00000125579832939976421490000010013902213736550554_" gradientUnits="userSpaceOnUse" x1="4.8592" y1="16.186" x2="33.8985" y2="16.186">
		<stop  offset="0" style="stop-color:#72B8FF"/>
		<stop  offset="0.9883" style="stop-color:#9889FF"/>
	</linearGradient>
	
		<path id="Path_18" style="fill:none;stroke:url(#Path_18_00000125579832939976421490000010013902213736550554_);stroke-miterlimit:10;" d="
		M19.4,22.6c1,0,2-0.4,2.7-1.1l11-11.2c-0.4-0.3-0.9-0.5-1.4-0.5H7c-0.5,0-1,0.2-1.4,0.5l11,11.2C17.4,22.2,18.3,22.6,19.4,22.6z"/>
</g>
</svg>
