<?xml version="1.0" encoding="utf-8"?>
<!-- Generator: Adobe Illustrator 25.4.0, SVG Export Plug-In . SVG Version: 6.00 Build 0)  -->
<svg version="1.1" id="Layer_1" xmlns="http://www.w3.org/2000/svg" xmlns:xlink="http://www.w3.org/1999/xlink" x="0px" y="0px"
	 viewBox="0 0 40 40" style="enable-background:new 0 0 40 40;" xml:space="preserve">
<style type="text/css">
	
		.st0{fill:none;stroke:url(#Icon_metro-dollar2_00000058560118958215171570000002413302065137475510_);stroke-width:1.32;stroke-miterlimit:10;}
	.st1{fill:none;stroke:url(#SVGID_1_);stroke-width:1.32;stroke-miterlimit:10;}
</style>
<g>
	
		<linearGradient id="Icon_metro-dollar2_00000168832090466056582730000005500622613863925121_" gradientUnits="userSpaceOnUse" x1="13.6117" y1="20" x2="26.3883" y2="20">
		<stop  offset="0" style="stop-color:#72B8FF"/>
		<stop  offset="0.9883" style="stop-color:#9889FF"/>
	</linearGradient>
	
		<path id="Icon_metro-dollar2" style="fill:none;stroke:url(#Icon_metro-dollar2_00000168832090466056582730000005500622613863925121_);stroke-width:1.32;stroke-miterlimit:10;" d="
		M25.7,23.5c0,1.2-0.4,2.4-1.2,3.2c-0.8,0.9-2,1.5-3.2,1.7v2.1c0,0.2-0.2,0.4-0.4,0.4c0,0,0,0,0,0h-1.7c-0.2,0-0.4-0.2-0.4-0.4v-2.1
		c-0.5-0.1-1.1-0.2-1.6-0.4c-0.8-0.3-1.5-0.6-2.2-1.1c-0.2-0.1-0.4-0.3-0.6-0.5c-0.1-0.1-0.2-0.2-0.2-0.2c-0.1-0.1-0.1-0.4,0-0.5
		l1.3-1.7c0.1-0.1,0.2-0.1,0.3-0.1c0.1,0,0.2,0,0.3,0.1l0,0c0.8,0.8,1.9,1.3,3,1.5c0.3,0.1,0.6,0.1,0.9,0.1c0.6,0,1.2-0.2,1.7-0.5
		c0.5-0.3,0.8-0.9,0.8-1.5c0-0.2-0.1-0.5-0.2-0.7c-0.1-0.2-0.3-0.4-0.4-0.5c-0.2-0.2-0.5-0.3-0.7-0.5c-0.3-0.2-0.6-0.3-0.8-0.4
		c-0.2-0.1-0.5-0.2-1-0.4c-0.3-0.1-0.6-0.2-0.8-0.3c-0.2-0.1-0.4-0.2-0.8-0.3c-0.3-0.1-0.6-0.3-0.8-0.4s-0.4-0.3-0.7-0.4
		c-0.2-0.2-0.5-0.3-0.7-0.5c-0.2-0.2-0.4-0.4-0.5-0.6c-0.2-0.2-0.3-0.5-0.4-0.7c-0.1-0.3-0.2-0.5-0.3-0.8c-0.1-0.3-0.1-0.6-0.1-1
		c0-1.1,0.4-2.2,1.2-3c0.8-0.9,1.9-1.4,3.1-1.6V9.4c0-0.2,0.2-0.4,0.4-0.4h1.7c0.2,0,0.4,0.2,0.4,0.4c0,0,0,0,0,0v2.2
		c0.5,0,0.9,0.1,1.4,0.3c0.4,0.1,0.7,0.2,1.1,0.4c0.3,0.1,0.5,0.3,0.8,0.5c0.2,0.2,0.4,0.3,0.5,0.4c0.1,0.1,0.1,0.1,0.2,0.2
		c0.1,0.1,0.2,0.3,0.1,0.5l-1,1.8c-0.1,0.1-0.2,0.2-0.3,0.2c-0.1,0-0.2,0-0.3-0.1c0,0-0.1-0.1-0.2-0.1c-0.1-0.1-0.3-0.2-0.5-0.3
		c-0.2-0.1-0.5-0.3-0.7-0.4c-0.3-0.1-0.6-0.2-0.9-0.3c-0.3-0.1-0.7-0.1-1-0.1c-0.7,0-1.3,0.2-1.9,0.5c-0.6,0.4-0.9,1.2-0.6,2
		c0.1,0.2,0.2,0.4,0.4,0.5c0.2,0.1,0.3,0.3,0.5,0.4c0.2,0.1,0.4,0.3,0.7,0.4c0.3,0.1,0.6,0.3,0.7,0.3c0.2,0.1,0.5,0.2,0.9,0.3
		c0.4,0.2,0.8,0.3,1,0.4c0.2,0.1,0.5,0.2,0.9,0.4c0.3,0.2,0.6,0.3,0.9,0.5c0.3,0.2,0.5,0.4,0.8,0.6c0.3,0.2,0.5,0.5,0.7,0.8
		c0.2,0.3,0.3,0.6,0.4,0.9C25.7,22.8,25.7,23.2,25.7,23.5L25.7,23.5z"/>
	<linearGradient id="SVGID_1_" gradientUnits="userSpaceOnUse" x1="0.8372" y1="20" x2="39.1628" y2="20">
		<stop  offset="0" style="stop-color:#72B8FF"/>
		<stop  offset="0.9883" style="stop-color:#9889FF"/>
	</linearGradient>
	<circle class="st1" cx="20" cy="20" r="18.5"/>
</g>
</svg>
