<?xml version="1.0" encoding="utf-8"?>
<!-- Generator: Adobe Illustrator 25.4.0, SVG Export Plug-In . SVG Version: 6.00 Build 0)  -->
<svg version="1.1" id="Layer_1" xmlns="http://www.w3.org/2000/svg" xmlns:xlink="http://www.w3.org/1999/xlink" x="0px" y="0px"
	 viewBox="0 0 27.9 34" style="enable-background:new 0 0 27.9 34;" xml:space="preserve">
<style type="text/css">
	.st0{fill:url(#SVGID_1_);}
	.st1{fill:url(#SVGID_00000156570046974226303520000009601373734245900464_);}
</style>
<g id="Icon_ionic-ios-document" transform="translate(-7.313 -3.938)">
	<g id="Path_51">
		<linearGradient id="SVGID_1_" gradientUnits="userSpaceOnUse" x1="23.8497" y1="10.36" x2="31.9377" y2="10.36">
			<stop  offset="0" style="stop-color:#72B8FF"/>
			<stop  offset="0.9883" style="stop-color:#9889FF"/>
		</linearGradient>
		<path class="st0" d="M25.1,8.4l5,4.2h-4.9c0,0-0.1,0-0.1-0.1V8.4 M24.4,6.9C24.4,6.9,24.4,6.9,24.4,6.9
			C24.4,6.9,24.4,6.9,24.4,6.9c-0.3,0-0.5,0.2-0.5,0.5c0,0,0,0,0,0v5.1c0,0.7,0.6,1.3,1.3,1.3c0,0,0,0,0,0h6.4c0,0,0,0,0,0
			c0.2,0,0.3-0.2,0.3-0.3c0,0,0,0,0,0c0-0.6-0.3-1.2-0.8-1.6l-5.4-4.5C25.4,7.1,24.9,6.9,24.4,6.9L24.4,6.9z"/>
	</g>
	<g id="Path_52">
		
			<linearGradient id="SVGID_00000088112609650563220820000005461287846299008390_" gradientUnits="userSpaceOnUse" x1="10.5607" y1="20.938" x2="31.9357" y2="20.938">
			<stop  offset="0" style="stop-color:#72B8FF"/>
			<stop  offset="0.9883" style="stop-color:#9889FF"/>
		</linearGradient>
		<path style="fill:url(#SVGID_00000088112609650563220820000005461287846299008390_);" d="M20.8,8.1v4.4c0,2.4,2,4.4,4.4,4.4h5.5
			l0,15.8c0,0.6-0.5,1-1,1l-16.9,0c-0.6,0-1-0.5-1-1l0-23.6c0-0.6,0.5-1,1-1H20.8 M22,6.9h-9.2c-1.2,0-2.2,1-2.2,2.2v23.6
			c0,1.2,1,2.2,2.2,2.2h16.9c1.2,0,2.2-1,2.2-2.2V15.7h-6.8c-1.7,0-3.2-1.4-3.2-3.2V6.9L22,6.9z"/>
	</g>
</g>
</svg>
