<?xml version="1.0" encoding="utf-8"?>
<!-- Generator: Adobe Illustrator 25.4.0, SVG Export Plug-In . SVG Version: 6.00 Build 0)  -->
<svg version="1.1" id="Layer_1" xmlns="http://www.w3.org/2000/svg" xmlns:xlink="http://www.w3.org/1999/xlink" x="0px" y="0px"
	 viewBox="0 0 32 31" style="enable-background:new 0 0 32 31;" xml:space="preserve">
<style type="text/css">
	
		.st0{fill:none;stroke:url(#Icon_awesome-recycle_00000147938040191664190900000009720260026063515291_);stroke-width:0.9969;stroke-miterlimit:10;}
</style>
<linearGradient id="Icon_awesome-recycle_00000181776639855242637750000010978109178312962997_" gradientUnits="userSpaceOnUse" x1="1.1546" y1="15.5" x2="30.8454" y2="15.5">
	<stop  offset="1.385225e-07" style="stop-color:#72B8FF"/>
	<stop  offset="0.9883" style="stop-color:#9889FF"/>
</linearGradient>
<path id="Icon_awesome-recycle" style="fill:none;stroke:url(#Icon_awesome-recycle_00000181776639855242637750000010978109178312962997_);stroke-width:0.9969;stroke-miterlimit:10;" d="
	M12,15.8c0.1,0.5-0.2,1-0.7,1.1c-0.2,0.1-0.5,0-0.7-0.1l-2.3-1.4l-2.9,4.6c-0.5,0.8-0.3,2,0.6,2.5c0.3,0.2,0.6,0.3,0.9,0.3h2.9
	c0.4,0,0.7,0.3,0.7,0.7v2.2c0,0.4-0.3,0.7-0.7,0.7H7c-3,0-5.4-2.4-5.4-5.4c0-1,0.3-2,0.8-2.8l2.9-4.6L3,12c-0.4-0.3-0.5-0.8-0.3-1.2
	c0.1-0.2,0.3-0.3,0.6-0.4L9.5,9c0.5-0.1,1,0.2,1.1,0.7L12,15.8z M17.5,5.6l2.3,3.7l-2.3,1.4c-0.4,0.3-0.5,0.8-0.3,1.2
	c0.1,0.2,0.3,0.3,0.6,0.4l6.2,1.4c0.5,0.1,1-0.2,1.1-0.7l1.4-6.2c0.1-0.5-0.2-1-0.7-1.1c-0.2-0.1-0.5,0-0.7,0.1l-2.3,1.4l-2.3-3.7
	C19,1.2,15.7,0.4,13.1,2c-0.7,0.4-1.3,1-1.7,1.7l-1,1.6c-0.2,0.3-0.1,0.7,0.2,0.9l1.9,1.2c0.3,0.2,0.7,0.1,0.9-0.2l1-1.6
	C15,4.7,16.1,4.5,17,5C17.2,5.2,17.4,5.3,17.5,5.6z M29.5,18L28,15.6c-0.2-0.3-0.6-0.4-0.9-0.2c0,0,0,0,0,0l-1.9,1.2
	c-0.3,0.2-0.4,0.6-0.2,0.9l1.5,2.5c0.5,0.8,0.3,2-0.6,2.5c-0.3,0.2-0.6,0.3-0.9,0.3h-5.4V20c0-0.5-0.4-0.9-0.9-0.9
	c-0.2,0-0.5,0.1-0.6,0.3l-4.5,4.5c-0.4,0.4-0.4,0.9,0,1.3c0,0,0,0,0,0l4.5,4.5c0.4,0.3,0.9,0.3,1.3,0c0.2-0.2,0.3-0.4,0.3-0.6v-2.7
	H25c3,0,5.4-2.4,5.4-5.4C30.3,19.9,30.1,18.9,29.5,18z"/>
</svg>
