<?xml version="1.0" encoding="utf-8"?>
<!-- Generator: Adobe Illustrator 25.4.0, SVG Export Plug-In . SVG Version: 6.00 Build 0)  -->
<svg version="1.1" id="Layer_1" xmlns="http://www.w3.org/2000/svg" xmlns:xlink="http://www.w3.org/1999/xlink" x="0px" y="0px"
	 viewBox="0 0 49.6 40.1" style="enable-background:new 0 0 49.6 40.1;" xml:space="preserve">
<style type="text/css">
	
		.st0{fill:none;stroke:url(#Icon_awesome-shipping-fast_00000035496739765299580170000016046106096502796673_);stroke-width:1.25;stroke-miterlimit:10;}
</style>
<linearGradient id="Icon_awesome-shipping-fast_00000054953489854087222450000006709708021593139588_" gradientUnits="userSpaceOnUse" x1="1.6622" y1="20.0397" x2="47.9122" y2="20.0397">
	<stop  offset="0" style="stop-color:#72B8FF"/>
	<stop  offset="0.9883" style="stop-color:#9889FF"/>
</linearGradient>
<path id="Icon_awesome-shipping-fast" style="fill:none;stroke:url(#Icon_awesome-shipping-fast_00000054953489854087222450000006709708021593139588_);stroke-width:1.25;stroke-miterlimit:10;" d="
	M46.2,26.8H45v-7.6c0-0.9-0.4-1.8-1-2.4l-7-7c-0.6-0.6-1.5-1-2.4-1h-3.1V5.4C31.5,3.6,30,2,28.2,2h-18C8.3,2,6.8,3.6,6.8,5.4v3.4
	H2.9C2.5,8.8,2.3,9,2.3,9.4v1.1c0,0.3,0.3,0.6,0.6,0.6H22c0.3,0,0.6,0.3,0.6,0.6v1.1c0,0.3-0.3,0.6-0.6,0.6H5.1
	c-0.3,0-0.6,0.3-0.6,0.6V15c0,0.3,0.3,0.6,0.6,0.6h14.6c0.3,0,0.6,0.3,0.6,0.6v1.1c0,0.3-0.3,0.6-0.6,0.6H2.9
	c-0.3,0-0.6,0.3-0.6,0.6v1.1c0,0.3,0.3,0.6,0.6,0.6h14.6c0.3,0,0.6,0.3,0.6,0.6v1.1c0,0.3-0.3,0.6-0.6,0.6H6.8v9
	c0,3.7,3,6.7,6.8,6.7s6.7-3,6.7-6.7h9c0,3.7,3,6.7,6.8,6.7c3.7,0,6.8-3,6.8-6.7h3.4c0.6,0,1.1-0.5,1.1-1.1v-2.2
	C47.3,27.3,46.8,26.8,46.2,26.8z M13.5,34.7c-1.9,0-3.4-1.5-3.4-3.4c0-1.9,1.5-3.4,3.4-3.4s3.4,1.5,3.4,3.4
	C16.9,33.2,15.4,34.7,13.5,34.7z M36,34.7c-1.9,0-3.4-1.5-3.4-3.4c0-1.9,1.5-3.4,3.4-3.4s3.4,1.5,3.4,3.4
	C39.4,33.2,37.9,34.7,36,34.7z M41.7,20H31.5v-7.9h3.1l7,7L41.7,20z"/>
</svg>
