<?xml version="1.0" encoding="utf-8"?>
<!-- Generator: Adobe Illustrator 25.4.0, SVG Export Plug-In . SVG Version: 6.00 Build 0)  -->
<svg version="1.1" id="Layer_1" xmlns="http://www.w3.org/2000/svg" xmlns:xlink="http://www.w3.org/1999/xlink" x="0px" y="0px"
	 viewBox="0 0 45 45" style="enable-background:new 0 0 45 45;" xml:space="preserve">
<style type="text/css">
	
		.st0{fill:none;stroke:url(#Path_9_00000119831786457935171390000002628769000523212443_);stroke-width:0.8946;stroke-miterlimit:10;}
	
		.st1{fill:none;stroke:url(#Path_10_00000076563284779778434270000009799782722886250145_);stroke-width:0.8946;stroke-miterlimit:10;}
	
		.st2{fill:none;stroke:url(#Path_11_00000146478066715725916960000009572881619155958717_);stroke-width:0.8946;stroke-miterlimit:10;}
	
		.st3{fill:none;stroke:url(#Icon_material-location-searching_00000142142501126421141900000001086443781329589921_);stroke-width:1.25;stroke-miterlimit:10;}
</style>
<g>
	
		<linearGradient id="Path_9_00000077326473337769008840000016827386258174117000_" gradientUnits="userSpaceOnUse" x1="18.987" y1="18.8828" x2="25.8534" y2="18.8828">
		<stop  offset="1.385225e-07" style="stop-color:#72B8FF"/>
		<stop  offset="0.9883" style="stop-color:#9889FF"/>
	</linearGradient>
	
		<path id="Path_9_3_" style="fill:none;stroke:url(#Path_9_00000077326473337769008840000016827386258174117000_);stroke-width:0.8946;stroke-miterlimit:10;" d="
		M25.6,20.8L19.2,17"/>
	
		<linearGradient id="Path_10_00000028295674586636527630000010325044373476933008_" gradientUnits="userSpaceOnUse" x1="15.1579" y1="22.6809" x2="29.4165" y2="22.6809">
		<stop  offset="1.385225e-07" style="stop-color:#72B8FF"/>
		<stop  offset="0.9883" style="stop-color:#9889FF"/>
	</linearGradient>
	
		<path id="Path_10_3_" style="fill:none;stroke:url(#Path_10_00000028295674586636527630000010325044373476933008_);stroke-width:0.8946;stroke-miterlimit:10;" d="
		M29,25.7v-5.9c0-0.5-0.3-1-0.7-1.3l-5.2-3c-0.5-0.3-1-0.3-1.5,0l-5.2,3c-0.5,0.3-0.7,0.8-0.7,1.3v5.9c0,0.5,0.3,1,0.7,1.3l5.2,3
		c0.5,0.3,1,0.3,1.5,0l5.2-3C28.7,26.7,29,26.2,29,25.7z"/>
	
		<linearGradient id="Path_11_00000161614804608876500380000003784560462995678609_" gradientUnits="userSpaceOnUse" x1="15.5817" y1="20.8796" x2="28.9928" y2="20.8796">
		<stop  offset="1.385225e-07" style="stop-color:#72B8FF"/>
		<stop  offset="0.9883" style="stop-color:#9889FF"/>
	</linearGradient>
	
		<path id="Path_11_2_" style="fill:none;stroke:url(#Path_11_00000161614804608876500380000003784560462995678609_);stroke-width:0.8946;stroke-miterlimit:10;" d="
		M15.8,18.9l6.5,3.7l6.5-3.7"/>
</g>
<linearGradient id="Icon_material-location-searching_00000094589520452077298420000017461809163813364651_" gradientUnits="userSpaceOnUse" x1="1.9814" y1="22.6809" x2="42.5931" y2="22.6809">
	<stop  offset="1.385225e-07" style="stop-color:#72B8FF"/>
	<stop  offset="0.9883" style="stop-color:#9889FF"/>
</linearGradient>
<path id="Icon_material-location-searching" style="fill:none;stroke:url(#Icon_material-location-searching_00000094589520452077298420000017461809163813364651_);stroke-width:1.25;stroke-miterlimit:10;" d="
	M38.3,20.9c-0.8-7.5-6.7-13.4-14.2-14.2V3h-3.6v3.7C13,7.5,7.1,13.4,6.3,20.9H2.6v3.6h3.7c0.8,7.5,6.7,13.4,14.2,14.2v3.7h3.6v-3.7
	c7.5-0.8,13.4-6.7,14.2-14.2H42v-3.6H38.3z M22.3,35.2c-6.9,0-12.5-5.6-12.5-12.5s5.6-12.5,12.5-12.5s12.5,5.6,12.5,12.5
	C34.8,29.6,29.2,35.2,22.3,35.2C22.3,35.2,22.3,35.2,22.3,35.2z"/>
</svg>
