<?xml version="1.0" encoding="utf-8"?>
<!-- Generator: Adobe Illustrator 25.4.0, SVG Export Plug-In . SVG Version: 6.00 Build 0)  -->
<svg version="1.1" id="e937dd5c-1a88-46eb-b274-68931cd56025"
	 xmlns="http://www.w3.org/2000/svg" xmlns:xlink="http://www.w3.org/1999/xlink" x="0px" y="0px" viewBox="0 0 1442.6 874.2"
	 style="enable-background:new 0 0 1442.6 874.2;" xml:space="preserve">
<style type="text/css">
	.st0{opacity:0.1;enable-background:new    ;}
	.st1{fill:#22313F;}
	.st2{fill:#3F3D56;}
	.st3{fill:url(#SVGID_1_);}
	.st4{fill:url(#SVGID_00000088103731003495385280000005697998341035532424_);}
	.st5{opacity:0.5;}
	.st6{fill:none;stroke:#6BB4FF;stroke-width:1.2854;stroke-miterlimit:10;}
	.st7{fill:none;stroke:url(#SVGID_00000005243843764350996690000016829484465108541570_);stroke-width:2;stroke-miterlimit:10;}
	.st8{fill:url(#SVGID_00000013165189383746033710000008938818580623488390_);}
	.st9{fill:url(#SVGID_00000124861096929237559380000007761270590176742834_);}
	.st10{fill:url(#SVGID_00000076566512255868137630000007854974320253952422_);}
</style>
<g>
	
		<ellipse transform="matrix(0.7071 -0.7071 0.7071 0.7071 -115.164 1171.3325)" class="st0" cx="1356.3" cy="724.7" rx="20" ry="48.5"/>
	<ellipse class="st1" cx="1359.8" cy="713.9" rx="10.7" ry="14"/>
	<ellipse class="st1" cx="1359.8" cy="696.7" rx="10.7" ry="14"/>
	<ellipse class="st1" cx="1359.8" cy="679.5" rx="10.7" ry="14"/>
	<ellipse class="st1" cx="1359.8" cy="662.4" rx="10.7" ry="14"/>
	<ellipse class="st1" cx="1359.8" cy="645.2" rx="10.7" ry="14"/>
	<ellipse class="st1" cx="1359.8" cy="628" rx="10.7" ry="14"/>
	<ellipse class="st2" cx="1359.8" cy="610.8" rx="10.7" ry="14"/>
	<g>
		
			<linearGradient id="SVGID_1_" gradientUnits="userSpaceOnUse" x1="1308.1719" y1="348.8882" x2="1411.0249" y2="348.8882" gradientTransform="matrix(1 0 0 -1 0 874)">
			<stop  offset="0" style="stop-color:#72B8FF"/>
			<stop  offset="0.9883" style="stop-color:#9889FF"/>
		</linearGradient>
		<path class="st3" d="M1400,493.3c1.5-1.9,2.8-3.8,4-5.9l-28.2-4.6l30.5,0.2c5.9-12.9,6.3-27.6,1-40.7l-40.9,21.2l37.7-27.7
			c-14.2-24.6-45.6-33-70.2-18.8s-33,45.6-18.8,70.2c1.2,2.1,2.6,4.2,4.1,6.1c-2.3,2.9-4.3,6-5.9,9.4l36.6,19l-39-13.1
			c-5.6,16.5-2.4,34.6,8.3,48.3c-17.6,22.3-13.7,54.6,8.6,72.2c22.3,17.6,54.6,13.7,72.2-8.6c14.7-18.6,14.7-44.9,0-63.6
			C1414.7,538.2,1414.7,512,1400,493.3L1400,493.3z"/>
	</g>
	<g>
		
			<linearGradient id="SVGID_00000018233384354396017230000010898196245521649549_" gradientUnits="userSpaceOnUse" x1="1308.1719" y1="291.7562" x2="1411.0249" y2="291.7562" gradientTransform="matrix(1 0 0 -1 0 874)">
			<stop  offset="0" style="stop-color:#72B8FF"/>
			<stop  offset="0.9883" style="stop-color:#9889FF"/>
		</linearGradient>
		<path style="fill:url(#SVGID_00000018233384354396017230000010898196245521649549_);" d="M1308.2,525.1c0,11.5,3.9,22.7,11,31.8
			c-17.6,22.3-13.7,54.6,8.6,72.2c22.3,17.6,54.6,13.7,72.2-8.6c14.7-18.6,14.7-44.9,0-63.6C1406.8,548.2,1308.2,519.4,1308.2,525.1
			z"/>
	</g>
	<path class="st0" d="M1308.4,525.1c0,11.5,3.9,22.7,11,31.8c-17.6,22.3-13.7,54.6,8.6,72.2c22.3,17.6,54.6,13.7,72.2-8.6
		c14.7-18.6,14.7-44.9,0-63.6C1407.1,548.2,1308.4,519.4,1308.4,525.1z"/>
</g>
<polygon class="st1" points="1028.7,99.6 1028.7,743.8 833.3,713.4 595.9,767.5 594,767.9 405,709.8 405,149.7 601.2,99.6 
	815.7,149.7 823.9,147.8 "/>
<polygon class="st1" points="1324.1,37.9 1324.1,801 943.7,764.9 481.3,829.1 477.5,829.6 109.6,760.7 109.6,97.3 491.6,37.9 
	909.4,97.3 925.3,95 "/>
<polygon class="st0" points="943.7,764.9 481.3,829.1 491.6,37.9 909.4,97.3 925.3,95 "/>
<g class="st5">
	<polyline class="st6" points="897.5,184.2 897.7,406.2 1033.4,406.2 1033.4,315.1 1260.2,315.1 	"/>
	<polyline class="st6" points="174.3,254.7 646.7,254.7 677.9,245.1 690.3,245.1 690.3,459.2 908.6,459.2 918,478.3 918,574.7 
		1086.4,574.7 1086.4,693.9 	"/>
	<line class="st6" x1="757" y1="693.9" x2="757" y2="459.2"/>
	<line class="st6" x1="1260.2" y1="631" x2="757" y2="631"/>
	<line class="st6" x1="1158.7" y1="184.2" x2="1158.7" y2="693.9"/>
	<line class="st6" x1="172.7" y1="586" x2="1260.2" y2="586"/>
	<line class="st6" x1="281" y1="693.9" x2="281" y2="184.2"/>
	<line class="st6" x1="548.8" y1="184.2" x2="548.8" y2="693.9"/>
	<line class="st6" x1="174.3" y1="313" x2="1033.4" y2="315.1"/>
	<line class="st6" x1="401.6" y1="185.1" x2="401.6" y2="693.9"/>
	<polyline class="st6" points="172.7,430.9 548.8,430.9 757,586 	"/>
	<line class="st6" x1="802.1" y1="184.2" x2="802.1" y2="459.2"/>
	<line class="st6" x1="757" y1="508.5" x2="1260.2" y2="508.5"/>
</g>
<g>
	
		<linearGradient id="SVGID_00000119099423325536782650000013028389639109888920_" gradientUnits="userSpaceOnUse" x1="755.2" y1="483.6988" x2="920.1036" y2="483.6988">
		<stop  offset="0" style="stop-color:#72B8FF"/>
		<stop  offset="0.9883" style="stop-color:#9889FF"/>
	</linearGradient>
	
		<path style="fill:none;stroke:url(#SVGID_00000119099423325536782650000013028389639109888920_);stroke-width:2;stroke-miterlimit:10;" d="
		M908.3,460.1l8.9,18l-0.4,29.2H758.3v-46.6L908.3,460.1 M909.5,458.1l-153.3,0.6v50.6h162.4l0.5-31.6L909.5,458.1L909.5,458.1z"/>
</g>
<g>
	
		<linearGradient id="SVGID_00000096037415911860268610000007865251819247039123_" gradientUnits="userSpaceOnUse" x1="782.4" y1="480.8" x2="893" y2="480.8" gradientTransform="matrix(1 0 0 -1 0 874)">
		<stop  offset="0" style="stop-color:#72B8FF"/>
		<stop  offset="0.9883" style="stop-color:#9889FF"/>
	</linearGradient>
	<path style="fill:url(#SVGID_00000096037415911860268610000007865251819247039123_);" d="M837.7,300.7c-30.5,0-55.3,24.7-55.3,55.3
		c0,30.5,55.3,129.7,55.3,129.7S893,386.6,893,356C893,325.5,868.2,300.7,837.7,300.7z M837.7,379.6c-13.4,0-24.3-10.9-24.3-24.3
		s10.9-24.3,24.3-24.3c13.4,0,24.3,10.9,24.3,24.3S851.1,379.6,837.7,379.6L837.7,379.6z"/>
</g>
<g>
	
		<ellipse transform="matrix(0.9185 -0.3955 0.3955 0.9185 -249.6289 435.1955)" class="st0" cx="930.6" cy="823" rx="33.5" ry="13.8"/>
	<ellipse class="st1" cx="930.3" cy="817.5" rx="7.4" ry="9.7"/>
	<ellipse class="st1" cx="930.3" cy="805.7" rx="7.4" ry="9.7"/>
	<ellipse class="st1" cx="930.3" cy="793.9" rx="7.4" ry="9.7"/>
	<ellipse class="st1" cx="930.3" cy="782" rx="7.4" ry="9.7"/>
	<ellipse class="st1" cx="930.3" cy="770.2" rx="7.4" ry="9.7"/>
	<ellipse class="st0" cx="930.3" cy="758.4" rx="7.4" ry="9.7"/>
	<ellipse class="st2" cx="930.3" cy="746.5" rx="7.4" ry="9.7"/>
	<g>
		
			<linearGradient id="SVGID_00000123436274022406482090000017928041290962392200_" gradientUnits="userSpaceOnUse" x1="895.0243" y1="186.4451" x2="965.8763" y2="186.4451" gradientTransform="matrix(1 0 0 -1 0 874)">
			<stop  offset="0" style="stop-color:#72B8FF"/>
			<stop  offset="0.9883" style="stop-color:#9889FF"/>
		</linearGradient>
		<path style="fill:url(#SVGID_00000123436274022406482090000017928041290962392200_);" d="M902.6,665.5c-1-1.3-1.9-2.6-2.8-4
			l19.4-3.2l-21,0.2c-4.1-8.9-4.3-19-0.7-28.1l28.2,14.6l-26-19.1c9.8-16.9,31.5-22.7,48.4-12.9s22.7,31.5,12.9,48.4
			c-0.8,1.5-1.8,2.9-2.8,4.2c1.6,2,2.9,4.2,4,6.5L937,685.2l26.9-9c3.8,11.3,1.7,23.9-5.7,33.3c12.1,15.4,9.4,37.7-5.9,49.8
			c-15.4,12.1-37.7,9.4-49.8-5.9c-10.1-12.9-10.1-31,0-43.8C892.5,696.5,892.5,678.4,902.6,665.5L902.6,665.5z"/>
	</g>
	<path class="st0" d="M965.9,687.4c0,7.9-2.7,15.7-7.6,21.9c12.1,15.4,9.4,37.7-5.9,49.8c-15.4,12.1-37.7,9.4-49.8-5.9
		c-10.1-12.9-10.1-31,0-43.8C897.9,703.3,965.9,683.5,965.9,687.4z"/>
</g>
<g>
	
		<ellipse transform="matrix(0.7071 -0.7071 0.7071 0.7071 -548.5498 292.5073)" class="st0" cx="78.8" cy="808.4" rx="20" ry="48.5"/>
	<ellipse class="st1" cx="82.3" cy="797.5" rx="10.7" ry="14"/>
	<ellipse class="st1" cx="82.3" cy="780.3" rx="10.7" ry="14"/>
	<ellipse class="st1" cx="82.3" cy="763.2" rx="10.7" ry="14"/>
	<ellipse class="st1" cx="82.3" cy="746" rx="10.7" ry="14"/>
	<ellipse class="st1" cx="82.3" cy="728.8" rx="10.7" ry="14"/>
	<ellipse class="st1" cx="82.3" cy="711.7" rx="10.7" ry="14"/>
	<ellipse class="st2" cx="82.3" cy="694.5" rx="10.7" ry="14"/>
	<g>
		
			<linearGradient id="SVGID_00000057828037931211707710000002104913807709540782_" gradientUnits="userSpaceOnUse" x1="30.5718" y1="265.1882" x2="133.425" y2="265.1882" gradientTransform="matrix(1 0 0 -1 0 874)">
			<stop  offset="0" style="stop-color:#72B8FF"/>
			<stop  offset="0.9883" style="stop-color:#9889FF"/>
		</linearGradient>
		<path style="fill:url(#SVGID_00000057828037931211707710000002104913807709540782_);" d="M122.4,577c1.5-1.9,2.8-3.8,4-5.9
			l-28.2-4.6l30.5,0.2c5.9-12.9,6.3-27.6,1-40.7l-40.9,21.2l37.7-27.7c-14.2-24.6-45.6-33-70.2-18.8s-33,45.6-18.8,70.2
			c1.2,2.1,2.6,4.2,4.1,6.1c-2.3,2.9-4.3,6-5.9,9.4l36.6,19l-39-13.1c-5.6,16.5-2.4,34.6,8.3,48.3c-17.6,22.3-13.7,54.6,8.6,72.2
			c22.3,17.6,54.6,13.7,72.2-8.6c14.7-18.6,14.7-44.9,0-63.6C137.1,621.9,137.1,595.6,122.4,577L122.4,577z"/>
	</g>
	<path class="st0" d="M30.6,608.8c0,11.5,3.9,22.7,11,31.8c-17.6,22.3-13.7,54.6,8.6,72.2c22.3,17.6,54.6,13.7,72.2-8.6
		c14.7-18.6,14.7-44.9,0-63.6C129.3,631.8,30.6,603,30.6,608.8z"/>
</g>
</svg>
