<?xml version="1.0" encoding="utf-8"?>
<!-- Generator: Adobe Illustrator 25.4.1, SVG Export Plug-In . SVG Version: 6.00 Build 0)  -->
<svg version="1.1" id="Layer_1" xmlns="http://www.w3.org/2000/svg" xmlns:xlink="http://www.w3.org/1999/xlink" x="0px" y="0px"
	 viewBox="0 0 129 98.9" style="enable-background:new 0 0 129 98.9;" xml:space="preserve">
<style type="text/css">
	.st0{opacity:0.2;}
	.st1{enable-background:new    ;}
	.st2{clip-path:url(#SVGID_00000178184373488646796120000005950186389702279810_);enable-background:new    ;}
	.st3{fill:#9872FF;}
	.st4{clip-path:url(#SVGID_00000034775575561151095570000002247115874947120527_);enable-background:new    ;}
	.st5{clip-path:url(#SVGID_00000034051043007699500210000000301831488118713743_);enable-background:new    ;}
	.st6{clip-path:url(#SVGID_00000034065098851802583980000000204028447598672571_);enable-background:new    ;}
	.st7{clip-path:url(#SVGID_00000016054557988688288210000008510646479635801750_);enable-background:new    ;}
	.st8{clip-path:url(#SVGID_00000045605941463791845070000006664933633816022430_);enable-background:new    ;}
	.st9{clip-path:url(#SVGID_00000113329206955131724000000006561901061432855939_);enable-background:new    ;}
	.st10{clip-path:url(#SVGID_00000119085547173855228340000016166414171603115454_);enable-background:new    ;}
	.st11{clip-path:url(#SVGID_00000160151238411377294160000001560464099095509148_);enable-background:new    ;}
	.st12{clip-path:url(#SVGID_00000026152778943228465290000010263862264539438773_);enable-background:new    ;}
	.st13{clip-path:url(#SVGID_00000146457263196786511630000009164451957949801655_);enable-background:new    ;}
	.st14{clip-path:url(#SVGID_00000006689271214215226860000016001285590250541442_);enable-background:new    ;}
	.st15{clip-path:url(#SVGID_00000099621971528508664900000010490019824772143282_);}
	.st16{clip-path:url(#SVGID_00000067234891840613933220000003523971491616380327_);}
</style>
<g id="truckfade1" class="st0">
	<g>
		<g>
			<g class="st1">
				<g class="st1">
					<g>
						<g>
							<defs>
								<path id="SVGID_1_" d="M23.6,54.8c0,1.5,1,3.4,2.4,4l-2.7,1.5c-1.3-0.7-2.4-2.5-2.4-4C21.7,55.8,22.7,55.3,23.6,54.8z"/>
							</defs>
							<use xlink:href="#SVGID_1_"  style="overflow:visible;fill:#9872FF;"/>
							<clipPath id="SVGID_00000064326933004527997690000006411538230033847716_">
								<use xlink:href="#SVGID_1_"  style="overflow:visible;"/>
							</clipPath>
							<g style="clip-path:url(#SVGID_00000064326933004527997690000006411538230033847716_);enable-background:new    ;">
								<path class="st3" d="M20.9,56.3l2.7-1.5l0,0c0,0,0,0,0,0.2L20.9,56.3C20.9,56.5,20.9,56.5,20.9,56.3L20.9,56.3"/>
								<path class="st3" d="M20.9,56.5l2.7-1.5c0,0,0,0,0,0.2L20.9,56.5L20.9,56.5"/>
								<path class="st3" d="M20.9,56.7l2.7-1.5c0,0,0,0,0,0.2L20.9,56.7L20.9,56.7"/>
								<path class="st3" d="M20.9,56.7l2.7-1.5c0,0,0,0,0,0.2L20.9,56.7C20.9,56.8,20.9,56.8,20.9,56.7"/>
								<path class="st3" d="M20.9,56.8l2.7-1.5c0,0,0,0,0,0.2L20.9,56.8C20.9,57,20.9,56.8,20.9,56.8"/>
								<path class="st3" d="M20.9,57l2.7-1.5c0,0,0,0,0,0.2L20.9,57C21,57,20.9,57,20.9,57"/>
								<path class="st3" d="M21,57.2l2.7-1.5c0,0,0,0,0,0.2L21,57.2L21,57.2"/>
								<path class="st3" d="M21,57.2l2.7-1.5c0,0,0,0,0,0.2L21,57.2C21,57.3,21,57.3,21,57.2"/>
								<path class="st3" d="M21,57.3l2.7-1.5V56L21,57.3C21,57.5,21,57.3,21,57.3"/>
								<path class="st3" d="M21,57.5l2.7-1.5c0,0,0,0,0,0.2L21,57.5L21,57.5"/>
								<path class="st3" d="M21,57.7l2.7-1.5c0,0,0,0,0,0.2L21,57.7L21,57.7"/>
								<path class="st3" d="M21.2,57.7l2.7-1.5c0,0,0,0,0,0.2L21.2,57.7C21.2,57.8,21.2,57.7,21.2,57.7"/>
								<path class="st3" d="M21.2,57.8l2.7-1.5c0,0,0,0,0,0.2L21.2,57.8L21.2,57.8"/>
								<path class="st3" d="M21.2,58l2.7-1.5c0,0,0,0,0,0.2L21.2,58L21.2,58"/>
								<path class="st3" d="M21.2,58l2.7-1.5c0,0,0,0,0,0.2L21.2,58C21.4,58.2,21.2,58.2,21.2,58"/>
								<path class="st3" d="M21.4,58.2l2.7-1.5c0,0,0,0,0,0.2L21.4,58.2L21.4,58.2"/>
								<path class="st3" d="M21.4,58.3l2.7-1.5V57L21.4,58.3L21.4,58.3"/>
								<path class="st3" d="M21.4,58.3l2.7-1.5V57L21.4,58.3C21.5,58.5,21.4,58.5,21.4,58.3"/>
								<path class="st3" d="M21.5,58.5l2.7-1.5c0,0,0,0.2,0.2,0.2L21.5,58.5C21.5,58.7,21.5,58.7,21.5,58.5"/>
								<path class="st3" d="M21.5,58.8l2.7-1.5c0,0.2,0.2,0.2,0.2,0.3l-2.7,1.5C21.7,59,21.7,58.8,21.5,58.8"/>
								<path class="st3" d="M21.7,59l2.7-1.5l0.2,0.2L21.7,59C21.9,59.2,21.9,59.2,21.7,59"/>
								<path class="st3" d="M21.9,59.4l2.7-1.5c0,0,0,0.2,0.2,0.2L21.9,59.4C22.1,59.4,22.1,59.4,21.9,59.4"/>
								<path class="st3" d="M22.1,59.4l2.7-1.5c0,0,0,0,0.2,0.2L22.1,59.4C22.1,59.5,22.1,59.5,22.1,59.4"/>
								<path class="st3" d="M22.2,59.5l2.7-1.5c0,0,0,0,0.2,0.2L22.2,59.5L22.2,59.5"/>
								<path class="st3" d="M22.2,59.7l2.7-1.5c0,0,0,0,0.2,0.2L22.2,59.7L22.2,59.7"/>
								<path class="st3" d="M22.4,59.7l2.7-1.5c0,0,0,0,0.2,0.2L22.4,59.7C22.4,59.9,22.4,59.7,22.4,59.7"/>
								<path class="st3" d="M22.4,59.9l2.7-1.5c0,0,0,0,0.2,0.2L22.4,59.9C22.6,59.9,22.4,59.9,22.4,59.9"/>
								<path class="st3" d="M22.6,59.9l2.7-1.5c0,0,0,0,0.2,0.2L22.6,59.9C22.6,60,22.6,60,22.6,59.9"/>
								<path class="st3" d="M22.6,60l2.7-1.5c0,0,0,0,0.2,0.2L22.6,60C22.7,60,22.7,60,22.6,60"/>
								<path class="st3" d="M22.7,60.2l2.7-1.5c0,0,0,0,0.2,0.2L22.7,60.2C22.9,60.2,22.7,60.2,22.7,60.2"/>
								<path class="st3" d="M22.9,60.2l2.7-1.5c0,0,0,0,0.2,0L22.9,60.2L22.9,60.2"/>
								<path class="st3" d="M22.9,60.4l2.7-1.5c0,0,0,0,0.2,0L22.9,60.4C23.1,60.4,23.1,60.4,22.9,60.4"/>
								<path class="st3" d="M23.1,60.4l2.7-1.5c0,0,0,0,0.2,0L23.1,60.4L23.1,60.4"/>
								<path class="st3" d="M23.2,60.4l2.7-1.5c0,0,0,0,0.2,0L23.2,60.4C23.2,60.5,23.2,60.5,23.2,60.4"/>
								<path class="st3" d="M23.2,60.5l2.7-1.5l0,0L23.2,60.5L23.2,60.5"/>
							</g>
						</g>
					</g>
				</g>
				<g class="st1">
					<g>
						<g>
							<defs>
								<path id="SVGID_00000145775599656835446210000016123973099155078279_" d="M24.2,53.3c-0.5,0.2-0.7,0.8-0.7,1.5
									c-0.8,0.5-1.7,1-2.7,1.5l0,0c0.8-0.5,1.7-1,2.7-1.5c-0.8,0.5-1.7,1-2.7,1.5c0-0.7,0.3-1.3,0.7-1.5
									C22.4,54.5,23.4,53.8,24.2,53.3z"/>
							</defs>
							<use xlink:href="#SVGID_00000145775599656835446210000016123973099155078279_"  style="overflow:visible;fill:#9872FF;"/>
							<clipPath id="SVGID_00000134224557124053108780000013609280959730850991_">
								<use xlink:href="#SVGID_00000145775599656835446210000016123973099155078279_"  style="overflow:visible;"/>
							</clipPath>
							<g style="clip-path:url(#SVGID_00000134224557124053108780000013609280959730850991_);enable-background:new    ;">
								<path class="st3" d="M21.5,54.8l2.7-1.5c-0.2,0.2-0.3,0.2-0.3,0.3l-2.7,1.5C21.2,55.1,21.4,55,21.5,54.8"/>
								<path class="st3" d="M21.2,55.3l2.7-1.5c0,0,0,0.2-0.2,0.2L21.2,55.3C21,55.3,21.2,55.3,21.2,55.3"/>
								<path class="st3" d="M21,55.5l2.7-1.5v0.2L21,55.5L21,55.5"/>
								<path class="st3" d="M21,55.7l2.7-1.5c0,0,0,0,0,0.2L21,55.7L21,55.7"/>
								<path class="st3" d="M21,55.7l2.7-1.5c0,0,0,0,0,0.2L21,55.7C21,55.8,21,55.7,21,55.7"/>
								<path class="st3" d="M21,55.8l2.7-1.5c0,0,0,0,0,0.2L21,55.8C20.9,55.8,20.9,55.8,21,55.8"/>
								<path class="st3" d="M20.9,56l2.7-1.5c0,0,0,0,0,0.2L20.9,56L20.9,56"/>
								<path class="st3" d="M20.9,56l2.7-1.5c0,0,0,0,0,0.2L20.9,56C20.9,56.2,20.9,56.2,20.9,56"/>
								<path class="st3" d="M20.9,56.2l2.7-1.5c0,0,0,0,0,0.2L20.9,56.2L20.9,56.2"/>
								<path class="st3" d="M20.9,56.3l2.7-1.5c0,0,0,0,0,0.2L20.9,56.3L20.9,56.3"/>
								<path class="st3" d="M20.9,56.3l2.7-1.5l0,0c0,0,0,0,0,0.2L20.9,56.3C20.9,56.5,20.9,56.5,20.9,56.3L20.9,56.3"/>
							</g>
						</g>
					</g>
				</g>
				<g class="st1">
					<g>
						<g>
							<defs>
								<path id="SVGID_00000049910557244149195100000010507390705870718606_" d="M21.5,54.8l2.7-1.5c0.5-0.3,1-0.2,1.7,0.2L23.2,55
									C22.6,54.6,22.1,54.6,21.5,54.8z"/>
							</defs>
							<use xlink:href="#SVGID_00000049910557244149195100000010507390705870718606_"  style="overflow:visible;fill:#9872FF;"/>
							<clipPath id="SVGID_00000150077666253439808740000013086092740063216521_">
								<use xlink:href="#SVGID_00000049910557244149195100000010507390705870718606_"  style="overflow:visible;"/>
							</clipPath>
							<g style="clip-path:url(#SVGID_00000150077666253439808740000013086092740063216521_);enable-background:new    ;">
								<path class="st3" d="M21.5,54.8l2.7-1.5c0,0,0.2,0,0.2-0.2L21.5,54.8C21.7,54.8,21.7,54.8,21.5,54.8"/>
								<path class="st3" d="M21.7,54.8l2.7-1.5h0.2L21.7,54.8C21.9,54.8,21.9,54.8,21.7,54.8"/>
								<path class="st3" d="M21.9,54.8l2.7-1.5h0.2L21.9,54.8C22.1,54.6,22.1,54.6,21.9,54.8"/>
								<path class="st3" d="M22.1,54.6l2.7-1.5c0,0,0,0,0.2,0L22.1,54.6C22.2,54.6,22.2,54.6,22.1,54.6"/>
								<path class="st3" d="M22.2,54.6l2.7-1.5c0,0,0,0,0.2,0L22.2,54.6L22.2,54.6"/>
								<path class="st3" d="M22.4,54.6l2.7-1.5c0,0,0,0,0.2,0L22.4,54.6L22.4,54.6"/>
								<path class="st3" d="M22.4,54.6l2.7-1.5c0,0,0,0,0.2,0L22.4,54.6C22.6,54.8,22.6,54.6,22.4,54.6"/>
								<path class="st3" d="M22.6,54.8l2.7-1.5c0,0,0,0,0.2,0L22.6,54.8L22.6,54.8"/>
								<path class="st3" d="M22.7,54.8l2.7-1.5c0,0,0,0,0.2,0L22.7,54.8L22.7,54.8"/>
								<path class="st3" d="M22.7,54.8l2.7-1.5c0,0,0,0,0.2,0L22.7,54.8L22.7,54.8"/>
								<path class="st3" d="M22.9,54.8l2.7-1.5c0,0,0,0,0.2,0L22.9,54.8L22.9,54.8"/>
								<path class="st3" d="M22.9,54.8l2.7-1.5c0,0,0,0,0.2,0L22.9,54.8C23.1,54.8,22.9,54.8,22.9,54.8"/>
								<path class="st3" d="M23.1,54.8l2.7-1.5c0,0,0,0,0.2,0L23.1,54.8C23.1,55,23.1,55,23.1,54.8"/>
								<path class="st3" d="M23.1,55l2.7-1.5c0,0,0,0,0.2,0L23.1,55C23.2,55,23.2,55,23.1,55"/>
								<path class="st3" d="M23.2,55l2.7-1.5l0,0L23.2,55L23.2,55"/>
							</g>
						</g>
					</g>
				</g>
				<g class="st1">
					<g>
						<g>
							<defs>
								<path id="SVGID_00000003076987039594124040000016251918044659753897_" d="M27.6,59.2l-2.7,1.5c0.5-0.2,0.7-0.8,0.7-1.5
									c0-1.5-1-3.4-2.4-4l2.7-1.5c1.3,0.8,2.4,2.7,2.4,4C28.3,58.3,28.1,58.8,27.6,59.2z"/>
							</defs>
							<use xlink:href="#SVGID_00000003076987039594124040000016251918044659753897_"  style="overflow:visible;fill:#9872FF;"/>
							<clipPath id="SVGID_00000000199558481936454350000012585553819395027341_">
								<use xlink:href="#SVGID_00000003076987039594124040000016251918044659753897_"  style="overflow:visible;"/>
							</clipPath>
							<g style="clip-path:url(#SVGID_00000000199558481936454350000012585553819395027341_);enable-background:new    ;">
								<path class="st3" d="M23.2,55l2.7-1.5l0,0L23.2,55L23.2,55"/>
								<path class="st3" d="M23.4,55l2.7-1.5c0,0,0,0,0.2,0L23.4,55C23.4,55.1,23.4,55,23.4,55"/>
								<path class="st3" d="M23.4,55.1l2.7-1.5c0,0,0,0,0.2,0L23.4,55.1C23.6,55.1,23.4,55.1,23.4,55.1"/>
								<path class="st3" d="M23.6,55.1l2.7-1.5c0,0,0,0,0.2,0L23.6,55.1L23.6,55.1"/>
								<path class="st3" d="M23.6,55.3l2.7-1.5c0,0,0,0,0.2,0L23.6,55.3C23.7,55.3,23.7,55.3,23.6,55.3"/>
								<path class="st3" d="M23.7,55.3l2.7-1.5c0,0,0,0,0.2,0.2L23.7,55.3L23.7,55.3"/>
								<path class="st3" d="M23.9,55.5l2.7-1.5c0,0,0,0,0.2,0.2L23.9,55.5L23.9,55.5"/>
								<path class="st3" d="M23.9,55.5l2.7-1.5c0,0,0,0,0.2,0.2L23.9,55.5C24.1,55.5,23.9,55.5,23.9,55.5"/>
								<path class="st3" d="M24.1,55.7l2.7-1.5c0,0,0,0,0.2,0.2L24.1,55.7L24.1,55.7"/>
								<path class="st3" d="M24.1,55.7l2.7-1.5c0,0,0,0,0.2,0.2L24.1,55.7C24.2,55.8,24.2,55.7,24.1,55.7"/>
								<path class="st3" d="M24.2,55.8l2.7-1.5c0,0,0,0,0.2,0.2L24.2,55.8L24.2,55.8"/>
								<path class="st3" d="M24.4,55.8l2.7-1.5c0,0,0,0,0.2,0.2L24.4,55.8C24.4,56,24.4,56,24.4,55.8"/>
								<path class="st3" d="M24.4,56l2.7-1.5c0,0,0,0,0.2,0.2L24.4,56C24.4,56.2,24.4,56,24.4,56"/>
								<path class="st3" d="M24.6,56.2l2.7-1.5c0,0,0,0.2,0.2,0.2L24.6,56.2L24.6,56.2"/>
								<path class="st3" d="M24.6,56.3l2.7-1.5l0.2,0.2L24.6,56.3C24.7,56.3,24.7,56.3,24.6,56.3"/>
								<path class="st3" d="M24.7,56.5l2.7-1.5c0,0.2,0.2,0.2,0.2,0.3l-2.7,1.5C24.9,56.7,24.9,56.5,24.7,56.5"/>
								<path class="st3" d="M24.9,56.8l2.7-1.5c0,0,0,0.2,0.2,0.2L24.9,56.8C25.1,56.8,24.9,56.8,24.9,56.8"/>
								<path class="st3" d="M25.1,57l2.7-1.5v0.2L25.1,57L25.1,57"/>
								<path class="st3" d="M25.1,57.2l2.7-1.5c0,0,0,0,0,0.2L25.1,57.2C25.3,57.2,25.3,57.2,25.1,57.2"/>
								<path class="st3" d="M25.3,57.2l2.7-1.5c0,0,0,0,0,0.2L25.3,57.2C25.3,57.3,25.3,57.3,25.3,57.2"/>
								<path class="st3" d="M25.3,57.3l2.7-1.5c0,0,0,0,0,0.2L25.3,57.3C25.3,57.5,25.3,57.3,25.3,57.3"/>
								<path class="st3" d="M25.3,57.5l2.7-1.5c0,0,0,0,0,0.2L25.3,57.5C25.4,57.5,25.3,57.5,25.3,57.5"/>
								<path class="st3" d="M25.4,57.5l2.7-1.5c0,0,0,0,0,0.2L25.4,57.5C25.4,57.7,25.4,57.7,25.4,57.5"/>
								<path class="st3" d="M25.4,57.7l2.7-1.5c0,0,0,0,0,0.2L25.4,57.7C25.4,57.8,25.4,57.7,25.4,57.7"/>
								<path class="st3" d="M25.4,57.8l2.7-1.5c0,0,0,0,0,0.2L25.4,57.8L25.4,57.8"/>
								<path class="st3" d="M25.4,58l2.7-1.5c0,0,0,0,0,0.2L25.4,58C25.6,58,25.4,58,25.4,58"/>
								<path class="st3" d="M25.6,58l2.7-1.5v0.2L25.6,58C25.6,58.2,25.6,58.2,25.6,58"/>
								<path class="st3" d="M25.6,58.2l2.7-1.5c0,0,0,0,0,0.2L25.6,58.2C25.6,58.3,25.6,58.2,25.6,58.2"/>
								<path class="st3" d="M25.6,58.3l2.7-1.5c0,0,0,0,0,0.2L25.6,58.3L25.6,58.3"/>
								<path class="st3" d="M25.6,58.5l2.7-1.5c0,0,0,0,0,0.2L25.6,58.5L25.6,58.5"/>
								<path class="st3" d="M25.6,58.5l2.7-1.5c0,0,0,0,0,0.2L25.6,58.5C25.6,58.7,25.6,58.7,25.6,58.5"/>
								<path class="st3" d="M25.6,58.7l2.7-1.5c0,0,0,0,0,0.2L25.6,58.7C25.6,58.8,25.6,58.7,25.6,58.7"/>
								<path class="st3" d="M25.6,58.8l2.7-1.5c0,0,0,0,0,0.2L25.6,58.8L25.6,58.8"/>
								<path class="st3" d="M25.6,58.8l2.7-1.5c0,0,0,0,0,0.2L25.6,58.8C25.6,59,25.6,59,25.6,58.8"/>
								<path class="st3" d="M25.8,59l2.7-1.5c0,0,0,0,0,0.2l0,0L25.8,59C25.8,59.2,25.8,59.2,25.8,59C25.8,59.2,25.8,59,25.8,59"/>
								<path class="st3" d="M25.8,59.2l2.7-1.5c0,0,0,0,0,0.2L25.8,59.2L25.8,59.2"/>
								<path class="st3" d="M25.6,59.2l2.7-1.5c0,0,0,0,0,0.2L25.6,59.2C25.6,59.4,25.6,59.4,25.6,59.2"/>
								<path class="st3" d="M25.6,59.4l2.7-1.5c0,0,0,0,0,0.2L25.6,59.4C25.6,59.5,25.6,59.4,25.6,59.4"/>
								<path class="st3" d="M25.6,59.5l2.7-1.5c0,0,0,0,0,0.2L25.6,59.5L25.6,59.5"/>
								<path class="st3" d="M25.6,59.7l2.7-1.5c0,0,0,0,0,0.2L25.6,59.7L25.6,59.7"/>
								<path class="st3" d="M25.6,59.7l2.7-1.5c0,0,0,0,0,0.2L25.6,59.7C25.6,59.9,25.6,59.7,25.6,59.7"/>
								<path class="st3" d="M25.6,59.9l2.7-1.5v0.2L25.6,59.9L25.6,59.9"/>
								<path class="st3" d="M25.6,60l2.7-1.5v0.2L25.6,60C25.4,60,25.6,60,25.6,60"/>
								<path class="st3" d="M25.4,60.2l2.7-1.5c0,0,0,0.2-0.2,0.2L25.4,60.2L25.4,60.2"/>
								<path class="st3" d="M25.4,60.2l2.7-1.5c-0.2,0.2-0.2,0.3-0.3,0.3l-2.7,1.5C25.1,60.5,25.3,60.5,25.4,60.2"/>
							</g>
						</g>
					</g>
				</g>
				<g>
					<ellipse transform="matrix(0.8646 -0.5025 0.5025 0.8646 -25.866 19.6248)" class="st3" cx="23.5" cy="57.8" rx="2" ry="3.4"/>
				</g>
				<g class="st1">
					<g>
						<g>
							<defs>
								<path id="SVGID_00000065075068560445249520000007373992485881924528_" d="M19.7,51.6l2.7-1.5c0.8-0.5,2.2-0.5,3.5,0.3
									l-2.7,1.5C21.9,51.1,20.7,51.1,19.7,51.6z"/>
							</defs>
							<use xlink:href="#SVGID_00000065075068560445249520000007373992485881924528_"  style="overflow:visible;fill:#9872FF;"/>
							<clipPath id="SVGID_00000026120904798701512190000016127131310782481323_">
								<use xlink:href="#SVGID_00000065075068560445249520000007373992485881924528_"  style="overflow:visible;"/>
							</clipPath>
							<g style="clip-path:url(#SVGID_00000026120904798701512190000016127131310782481323_);enable-background:new    ;">
								<path class="st3" d="M19.7,51.6l2.7-1.5c0.2,0,0.3-0.2,0.3-0.2L20,51.4C20,51.4,19.9,51.6,19.7,51.6"/>
								<path class="st3" d="M20.2,51.4l2.7-1.5c0.2,0,0.2,0,0.3-0.2l-2.7,1.5C20.4,51.4,20.2,51.4,20.2,51.4"/>
								<path class="st3" d="M20.5,51.3l2.7-1.5c0.2,0,0.2,0,0.3,0l-2.7,1.5C20.7,51.3,20.5,51.3,20.5,51.3"/>
								<path class="st3" d="M20.7,51.3l2.7-1.5c0.2,0,0.2,0,0.3,0L21,51.3C20.9,51.3,20.9,51.3,20.7,51.3"/>
								<path class="st3" d="M21,51.3l2.7-1.5h0.2L21,51.3L21,51.3"/>
								<path class="st3" d="M21.2,51.3l2.7-1.5h0.2L21.2,51.3C21.4,51.3,21.4,51.3,21.2,51.3"/>
								<path class="st3" d="M21.5,51.3l2.7-1.5h0.2L21.5,51.3L21.5,51.3"/>
								<path class="st3" d="M21.7,51.4l2.7-1.5h0.2L21.7,51.4L21.7,51.4"/>
								<path class="st3" d="M21.9,51.4l2.7-1.5h0.2L21.9,51.4C22.1,51.4,22.1,51.4,21.9,51.4"/>
								<path class="st3" d="M22.1,51.4l2.7-1.5h0.2L22.1,51.4C22.2,51.4,22.2,51.4,22.1,51.4"/>
								<path class="st3" d="M22.4,51.6l2.7-1.5h0.2L22.4,51.6L22.4,51.6"/>
								<path class="st3" d="M22.6,51.6l2.7-1.5c0,0,0.2,0,0.2,0.2L22.6,51.6C22.7,51.6,22.6,51.6,22.6,51.6"/>
								<path class="st3" d="M22.7,51.8l2.7-1.5c0,0,0.2,0,0.2,0.2L22.7,51.8C22.9,51.8,22.7,51.8,22.7,51.8"/>
								<path class="st3" d="M22.9,51.8l2.7-1.5c0,0,0.2,0,0.2,0.2L22.9,51.8C23.1,51.8,23.1,51.8,22.9,51.8"/>
								<path class="st3" d="M23.1,51.9l2.7-1.5c0,0,0.2,0,0.2,0.2L23.1,51.9C23.2,51.9,23.2,51.9,23.1,51.9"/>
							</g>
						</g>
					</g>
				</g>
				<g>
					<path class="st3" d="M23.2,51.9c2.9,1.7,5.1,5.6,5.1,8.8c0,3.2-2.4,4.5-5.1,2.9s-5.1-5.6-5.1-8.8
						C18.2,51.6,20.5,50.4,23.2,51.9z M23.2,60.5c1.3,0.8,2.4,0.2,2.4-1.3c0-1.5-1-3.4-2.4-4s-2.4-0.2-2.4,1.3
						C20.9,57.8,21.9,59.7,23.2,60.5"/>
				</g>
				<g class="st1">
					<g>
						<g>
							<defs>
								<path id="SVGID_00000080905380257960404350000007312366709572937374_" d="M29.5,62.4l-2.7,1.5c0.8-0.5,1.5-1.7,1.5-3.2
									c0-3.2-2.2-7.1-5.1-8.8l2.7-1.5c2.9,1.7,5.1,5.6,5.1,8.8C31,60.7,30.5,61.9,29.5,62.4z"/>
							</defs>
							<use xlink:href="#SVGID_00000080905380257960404350000007312366709572937374_"  style="overflow:visible;fill:#9872FF;"/>
							<clipPath id="SVGID_00000142876995509997210610000004251593008566680508_">
								<use xlink:href="#SVGID_00000080905380257960404350000007312366709572937374_"  style="overflow:visible;"/>
							</clipPath>
							<g style="clip-path:url(#SVGID_00000142876995509997210610000004251593008566680508_);enable-background:new    ;">
								<path class="st3" d="M23.2,51.9l2.7-1.5l0,0L23.2,51.9C23.4,51.9,23.4,51.9,23.2,51.9"/>
								<path class="st3" d="M23.4,51.9l2.7-1.5l0.2,0.2L23.4,51.9C23.6,52.1,23.4,52.1,23.4,51.9"/>
								<path class="st3" d="M23.6,52.1l2.7-1.5l0.2,0.2L23.6,52.1L23.6,52.1"/>
								<path class="st3" d="M23.7,52.3l2.7-1.5l0.2,0.2L23.7,52.3C23.9,52.5,23.9,52.3,23.7,52.3"/>
								<path class="st3" d="M24.1,52.5l2.7-1.5l0.2,0.2L24.1,52.5C24.1,52.6,24.1,52.5,24.1,52.5"/>
								<path class="st3" d="M24.2,52.6l2.7-1.5l0.2,0.2L24.2,52.6C24.4,52.8,24.2,52.6,24.2,52.6"/>
								<path class="st3" d="M24.4,52.8l2.7-1.5l0.2,0.2L24.4,52.8C24.6,53,24.6,52.8,24.4,52.8"/>
								<path class="st3" d="M24.7,53l2.7-1.5l0.2,0.2L24.7,53C24.7,53.1,24.7,53.1,24.7,53"/>
								<path class="st3" d="M24.9,53.1l2.7-1.5l0.2,0.2L24.9,53.1C25.1,53.3,24.9,53.3,24.9,53.1"/>
								<path class="st3" d="M25.1,53.5l2.7-1.5l0.2,0.2L25.1,53.5C25.3,53.6,25.3,53.5,25.1,53.5"/>
								<path class="st3" d="M25.3,53.6l2.7-1.5l0.2,0.2L25.3,53.6C25.4,53.8,25.4,53.6,25.3,53.6"/>
								<path class="st3" d="M25.6,53.8l2.7-1.5l0.2,0.2L25.6,53.8C25.6,54,25.6,54,25.6,53.8"/>
								<path class="st3" d="M25.8,54.1l2.7-1.5l0.2,0.2L25.8,54.1C25.8,54.3,25.8,54.1,25.8,54.1"/>
								<path class="st3" d="M25.9,54.3l2.7-1.5c0,0.2,0.2,0.2,0.2,0.3l-2.7,1.5C26.1,54.5,25.9,54.5,25.9,54.3"/>
								<path class="st3" d="M26.1,54.6l2.7-1.5c0.2,0.2,0.2,0.3,0.3,0.5l-2.7,1.5C26.3,55,26.3,54.8,26.1,54.6"/>
								<path class="st3" d="M26.4,55l2.7-1.5c0.2,0.2,0.3,0.3,0.3,0.7l-2.7,1.5C26.8,55.5,26.6,55.3,26.4,55"/>
								<path class="st3" d="M26.8,55.7l2.7-1.5c0,0.2,0.2,0.3,0.2,0.5l-2.7,1.5C26.9,56,26.9,55.8,26.8,55.7"/>
								<path class="st3" d="M27.1,56.2l2.7-1.5c0,0.2,0.2,0.2,0.2,0.3l-2.7,1.5C27.1,56.3,27.1,56.2,27.1,56.2"/>
								<path class="st3" d="M27.3,56.3l2.7-1.5c0,0.2,0.2,0.2,0.2,0.3l-2.7,1.5C27.3,56.7,27.3,56.5,27.3,56.3"/>
								<path class="st3" d="M27.3,56.7l2.7-1.5c0,0,0,0.2,0.2,0.2L27.3,56.7C27.4,56.8,27.4,56.8,27.3,56.7"/>
								<path class="st3" d="M27.4,56.8l2.7-1.5c0,0,0,0.2,0.2,0.2L27.4,56.8C27.6,57,27.4,57,27.4,56.8"/>
								<path class="st3" d="M27.6,57.2l2.7-1.5c0,0,0,0.2,0.2,0.2L27.6,57.2C27.6,57.3,27.6,57.2,27.6,57.2"/>
								<path class="st3" d="M27.6,57.3l2.7-1.5c0,0,0,0.2,0.2,0.2L27.6,57.3C27.8,57.5,27.6,57.5,27.6,57.3"/>
								<path class="st3" d="M27.8,57.7l2.7-1.5c0,0.2,0,0.2,0.2,0.3L27.9,58C27.8,57.8,27.8,57.7,27.8,57.7"/>
								<path class="st3" d="M27.8,57.8l2.7-1.5c0,0.2,0,0.2,0,0.3l-2.7,1.5C27.9,58,27.9,58,27.8,57.8"/>
								<path class="st3" d="M27.9,58.2l2.7-1.5c0,0.2,0,0.2,0,0.3l-2.7,1.5C27.9,58.3,27.9,58.2,27.9,58.2"/>
								<path class="st3" d="M27.9,58.3l2.7-1.5c0,0.2,0,0.2,0,0.3l-2.7,1.5C28.1,58.5,27.9,58.5,27.9,58.3"/>
								<path class="st3" d="M28.1,58.7l2.7-1.5c0,0.2,0,0.2,0,0.3L28.1,59C28.1,58.8,28.1,58.8,28.1,58.7"/>
								<path class="st3" d="M28.1,59l2.7-1.5c0,0.2,0,0.2,0,0.3l-2.7,1.5C28.1,59.2,28.1,59,28.1,59"/>
								<path class="st3" d="M28.1,59.2l2.7-1.5c0,0.2,0,0.2,0,0.3l-2.7,1.5C28.3,59.4,28.3,59.4,28.1,59.2"/>
								<path class="st3" d="M28.3,59.5L31,58c0,0.2,0,0.2,0,0.3l-2.7,1.5C28.3,59.7,28.3,59.5,28.3,59.5"/>
								<path class="st3" d="M28.3,59.7l2.7-1.5v0.2L28.3,59.7C28.3,59.9,28.3,59.9,28.3,59.7"/>
								<path class="st3" d="M28.3,60l2.7-1.5v0.2L28.3,60L28.3,60"/>
								<path class="st3" d="M28.3,60.2l2.7-1.5v0.2L28.3,60.2C28.3,60.4,28.3,60.4,28.3,60.2"/>
								<path class="st3" d="M28.3,60.5L31,59v0.2l0,0L28.3,60.5L28.3,60.5L28.3,60.5"/>
								<path class="st3" d="M28.3,60.7l2.7-1.5v0.2L28.3,60.7C28.3,60.9,28.3,60.7,28.3,60.7"/>
								<path class="st3" d="M28.3,60.9l2.7-1.5v0.2L28.3,60.9C28.3,61,28.3,61,28.3,60.9"/>
								<path class="st3" d="M28.3,61.2l2.7-1.5v0.2L28.3,61.2L28.3,61.2"/>
								<path class="st3" d="M28.3,61.4l2.7-1.5V60L28.3,61.4C28.3,61.5,28.3,61.5,28.3,61.4"/>
								<path class="st3" d="M28.3,61.7l2.7-1.5v0.2L28.3,61.7L28.3,61.7"/>
								<path class="st3" d="M28.1,61.9l2.7-1.5c0,0.2,0,0.2,0,0.3l-2.7,1.5C28.1,62,28.1,62,28.1,61.9"/>
								<path class="st3" d="M28.1,62.2l2.7-1.5c0,0.2,0,0.2-0.2,0.3l-2.7,1.5C28.1,62.4,28.1,62.2,28.1,62.2"/>
								<path class="st3" d="M28.1,62.4l2.7-1.5c0,0.2,0,0.2-0.2,0.3l-2.7,1.5C27.9,62.6,27.9,62.6,28.1,62.4"/>
								<path class="st3" d="M27.9,62.7l2.7-1.5c0,0.2-0.2,0.2-0.2,0.3l-2.7,1.5C27.8,62.9,27.9,62.9,27.9,62.7"/>
								<path class="st3" d="M27.8,63.1l2.7-1.5c-0.2,0.3-0.5,0.7-0.8,0.8l-2.7,1.5C27.3,63.7,27.4,63.4,27.8,63.1"/>
							</g>
						</g>
					</g>
				</g>
			</g>
		</g>
	</g>
	<g>
		<g>
			<g class="st1">
				<g class="st1">
					<g>
						<g>
							<defs>
								<path id="SVGID_00000075135666009690305490000007973925433128423574_" d="M72.4,83.3c0,1.5,1,3.4,2.4,4l-2.7,1.5
									c-1.3-0.8-2.4-2.5-2.4-4C70.7,84.3,71.6,83.8,72.4,83.3z"/>
							</defs>
							<use xlink:href="#SVGID_00000075135666009690305490000007973925433128423574_"  style="overflow:visible;fill:#9872FF;"/>
							<clipPath id="SVGID_00000121255988696953887540000002089877637878245815_">
								<use xlink:href="#SVGID_00000075135666009690305490000007973925433128423574_"  style="overflow:visible;"/>
							</clipPath>
							<g style="clip-path:url(#SVGID_00000121255988696953887540000002089877637878245815_);enable-background:new    ;">
								<path class="st3" d="M69.9,84.8l2.7-1.5l0,0c0,0,0,0,0,0.2L69.9,84.8C69.9,84.9,69.9,84.8,69.9,84.8L69.9,84.8"/>
								<path class="st3" d="M69.9,84.9l2.7-1.5c0,0,0,0,0,0.2L69.9,84.9L69.9,84.9"/>
								<path class="st3" d="M69.9,85.1l2.7-1.5c0,0,0,0,0,0.2L69.9,85.1L69.9,85.1"/>
								<path class="st3" d="M69.9,85.1l2.7-1.5c0,0,0,0,0,0.2L69.9,85.1C69.9,85.3,69.9,85.1,69.9,85.1"/>
								<path class="st3" d="M69.9,85.3l2.7-1.5c0,0,0,0,0,0.2L69.9,85.3L69.9,85.3"/>
								<path class="st3" d="M69.9,85.5l2.7-1.5c0,0,0,0,0,0.2L69.9,85.5L69.9,85.5"/>
								<path class="st3" d="M69.9,85.5l2.7-1.5c0,0,0,0,0,0.2L69.9,85.5C69.9,85.6,69.9,85.6,69.9,85.5"/>
								<path class="st3" d="M69.9,85.6l2.7-1.5c0,0,0,0,0,0.2L69.9,85.6C69.9,85.8,69.9,85.6,69.9,85.6"/>
								<path class="st3" d="M70,85.8l2.7-1.5v0.2L70,85.8L70,85.8"/>
								<path class="st3" d="M70,86l2.7-1.5c0,0,0,0,0,0.2L70,86L70,86"/>
								<path class="st3" d="M70,86l2.7-1.5c0,0,0,0,0,0.2L70,86C70,86.1,70,86.1,70,86"/>
								<path class="st3" d="M70,86.1l2.7-1.5c0,0,0,0,0,0.2L70,86.1C70,86.3,70,86.1,70,86.1"/>
								<path class="st3" d="M70,86.3l2.7-1.5c0,0,0,0,0,0.2L70,86.3C70.2,86.3,70.2,86.3,70,86.3"/>
								<path class="st3" d="M70.2,86.3l2.7-1.5c0,0,0,0,0,0.2L70.2,86.3C70.2,86.5,70.2,86.5,70.2,86.3"/>
								<path class="st3" d="M70.2,86.5l2.7-1.5c0,0,0,0,0,0.2L70.2,86.5C70.2,86.6,70.2,86.5,70.2,86.5"/>
								<path class="st3" d="M70.2,86.6l2.7-1.5c0,0,0,0,0,0.2L70.2,86.6L70.2,86.6"/>
								<path class="st3" d="M70.4,86.8l2.7-1.5c0,0,0,0,0,0.2L70.4,86.8L70.4,86.8"/>
								<path class="st3" d="M70.4,86.8l2.7-1.5v0.2L70.4,86.8C70.4,87,70.4,87,70.4,86.8"/>
								<path class="st3" d="M70.4,87l2.7-1.5c0,0,0,0.2,0.2,0.2L70.4,87C70.5,87.1,70.5,87.1,70.4,87"/>
								<path class="st3" d="M70.5,87.1l2.7-1.5c0,0.2,0.2,0.2,0.2,0.3l-2.7,1.5C70.7,87.3,70.5,87.3,70.5,87.1"/>
								<path class="st3" d="M70.7,87.5l2.7-1.5l0.2,0.2L70.7,87.5L70.7,87.5"/>
								<path class="st3" d="M70.9,87.6l2.7-1.5c0,0,0,0.2,0.2,0.2L70.9,87.6C70.9,87.8,70.9,87.8,70.9,87.6"/>
								<path class="st3" d="M71.1,87.8l2.7-1.5c0,0,0,0,0.2,0.2L71.1,87.8C71.1,88,71.1,87.8,71.1,87.8"/>
								<path class="st3" d="M71.1,88l2.7-1.5c0,0,0,0,0.2,0.2L71.1,88C71.2,88,71.1,88,71.1,88"/>
								<path class="st3" d="M71.2,88l2.7-1.5c0,0,0,0,0.2,0.2L71.2,88C71.2,88.1,71.2,88.1,71.2,88"/>
								<path class="st3" d="M71.2,88.1l2.7-1.5c0,0,0,0,0.2,0.2L71.2,88.1C71.4,88.1,71.2,88.1,71.2,88.1"/>
								<path class="st3" d="M71.4,88.3l2.7-1.5c0,0,0,0,0.2,0.2L71.4,88.3L71.4,88.3"/>
								<path class="st3" d="M71.4,88.3l2.7-1.5c0,0,0,0,0.2,0.2L71.4,88.3C71.6,88.5,71.6,88.3,71.4,88.3"/>
								<path class="st3" d="M71.6,88.5l2.7-1.5c0,0,0,0,0.2,0.2L71.6,88.5C71.7,88.5,71.6,88.5,71.6,88.5"/>
								<path class="st3" d="M71.7,88.5l2.7-1.5c0,0,0,0,0.2,0.2L71.7,88.5C71.7,88.7,71.7,88.7,71.7,88.5"/>
								<path class="st3" d="M71.7,88.7l2.7-1.5c0,0,0,0,0.2,0L71.7,88.7C71.9,88.7,71.9,88.7,71.7,88.7"/>
								<path class="st3" d="M71.9,88.7l2.7-1.5c0,0,0,0,0.2,0L71.9,88.7C71.9,88.8,71.9,88.8,71.9,88.7"/>
								<path class="st3" d="M72.1,88.8l2.7-1.5c0,0,0,0,0.2,0L72.1,88.8L72.1,88.8"/>
								<path class="st3" d="M72.1,88.8l2.7-1.5c0,0,0,0,0.2,0L72.1,88.8C72.2,88.8,72.1,88.8,72.1,88.8"/>
								<path class="st3" d="M72.2,89l2.7-1.5l0,0L72.2,89L72.2,89"/>
							</g>
						</g>
					</g>
				</g>
				<g class="st1">
					<g>
						<g>
							<defs>
								<path id="SVGID_00000042735479310525031710000003687454758874716594_" d="M73.2,81.7c-0.5,0.2-0.7,0.8-0.7,1.5
									c-0.8,0.5-1.7,1-2.7,1.5l0,0c0.8-0.5,1.7-1,2.7-1.5c-0.8,0.5-1.7,1-2.7,1.5c0-0.7,0.3-1.3,0.7-1.5
									C71.4,82.8,72.4,82.3,73.2,81.7z"/>
							</defs>
							<use xlink:href="#SVGID_00000042735479310525031710000003687454758874716594_"  style="overflow:visible;fill:#9872FF;"/>
							<clipPath id="SVGID_00000117645714511599441280000000914180515980207520_">
								<use xlink:href="#SVGID_00000042735479310525031710000003687454758874716594_"  style="overflow:visible;"/>
							</clipPath>
							<g style="clip-path:url(#SVGID_00000117645714511599441280000000914180515980207520_);enable-background:new    ;">
								<path class="st3" d="M70.5,83.3l2.7-1.5c-0.2,0.2-0.3,0.2-0.3,0.3l-2.7,1.5C70.2,83.4,70.4,83.4,70.5,83.3"/>
								<path class="st3" d="M70.2,83.6l2.7-1.5c0,0,0,0.2-0.2,0.2L70.2,83.6C70,83.8,70,83.8,70.2,83.6"/>
								<path class="st3" d="M70,83.8l2.7-1.5v0.2L70,83.8C70,83.9,70,83.9,70,83.8"/>
								<path class="st3" d="M70,83.9l2.7-1.5c0,0,0,0,0,0.2L70,83.9C69.9,84.1,70,84.1,70,83.9"/>
								<path class="st3" d="M69.9,84.1l2.7-1.5c0,0,0,0,0,0.2L69.9,84.1L69.9,84.1"/>
								<path class="st3" d="M69.9,84.3l2.7-1.5c0,0,0,0,0,0.2L69.9,84.3L69.9,84.3"/>
								<path class="st3" d="M69.9,84.3l2.7-1.5c0,0,0,0,0,0.2L69.9,84.3C69.9,84.4,69.9,84.4,69.9,84.3"/>
								<path class="st3" d="M69.9,84.4l2.7-1.5c0,0,0,0,0,0.2L69.9,84.4C69.9,84.6,69.9,84.4,69.9,84.4"/>
								<path class="st3" d="M69.9,84.6l2.7-1.5c0,0,0,0,0,0.2L69.9,84.6L69.9,84.6"/>
								<path class="st3" d="M69.9,84.6l2.7-1.5c0,0,0,0,0,0.2L69.9,84.6C69.9,84.8,69.9,84.8,69.9,84.6"/>
								<path class="st3" d="M69.9,84.8l2.7-1.5l0,0c0,0,0,0,0,0.2L69.9,84.8C69.9,84.9,69.9,84.8,69.9,84.8L69.9,84.8"/>
							</g>
						</g>
					</g>
				</g>
				<g class="st1">
					<g>
						<g>
							<defs>
								<path id="SVGID_00000113339598517621305190000014835612316446048181_" d="M70.5,83.3l2.7-1.5c0.5-0.2,1-0.2,1.7,0.2
									l-2.7,1.5C71.6,83.1,71.1,83.1,70.5,83.3z"/>
							</defs>
							<use xlink:href="#SVGID_00000113339598517621305190000014835612316446048181_"  style="overflow:visible;fill:#9872FF;"/>
							<clipPath id="SVGID_00000183239137376804556600000000119744556736093608_">
								<use xlink:href="#SVGID_00000113339598517621305190000014835612316446048181_"  style="overflow:visible;"/>
							</clipPath>
							<g style="clip-path:url(#SVGID_00000183239137376804556600000000119744556736093608_);enable-background:new    ;">
								<path class="st3" d="M70.5,83.3l2.7-1.5c0,0,0.2,0,0.2-0.2L70.5,83.3C70.7,83.3,70.5,83.3,70.5,83.3"/>
								<path class="st3" d="M70.7,83.3l2.7-1.5h0.2L70.7,83.3C70.9,83.1,70.7,83.1,70.7,83.3"/>
								<path class="st3" d="M70.9,83.1l2.7-1.5h0.2L70.9,83.1C71.1,83.1,70.9,83.1,70.9,83.1"/>
								<path class="st3" d="M71.1,83.1l2.7-1.5c0,0,0,0,0.2,0L71.1,83.1L71.1,83.1"/>
								<path class="st3" d="M71.2,83.1l2.7-1.5c0,0,0,0,0.2,0L71.2,83.1L71.2,83.1"/>
								<path class="st3" d="M71.2,83.1l2.7-1.5c0,0,0,0,0.2,0L71.2,83.1C71.4,83.1,71.4,83.1,71.2,83.1"/>
								<path class="st3" d="M71.4,83.1l2.7-1.5c0,0,0,0,0.2,0L71.4,83.1L71.4,83.1"/>
								<path class="st3" d="M71.6,83.1l2.7-1.5c0,0,0,0,0.2,0L71.6,83.1L71.6,83.1"/>
								<path class="st3" d="M71.6,83.1l2.7-1.5c0,0,0,0,0.2,0L71.6,83.1C71.7,83.3,71.6,83.3,71.6,83.1"/>
								<path class="st3" d="M71.7,83.3l2.7-1.5c0,0,0,0,0.2,0L71.7,83.3L71.7,83.3"/>
								<path class="st3" d="M71.7,83.3l2.7-1.5c0,0,0,0,0.2,0L71.7,83.3C71.9,83.3,71.9,83.3,71.7,83.3"/>
								<path class="st3" d="M71.9,83.3l2.7-1.5c0,0,0,0,0.2,0L71.9,83.3L71.9,83.3"/>
								<path class="st3" d="M71.9,83.3l2.7-1.5c0,0,0,0,0.2,0L71.9,83.3C72.1,83.3,72.1,83.3,71.9,83.3"/>
								<path class="st3" d="M72.1,83.4l2.7-1.5c0,0,0,0,0.2,0L72.1,83.4L72.1,83.4"/>
								<path class="st3" d="M72.2,83.4l2.7-1.5l0,0L72.2,83.4L72.2,83.4"/>
							</g>
						</g>
					</g>
				</g>
				<g class="st1">
					<g>
						<g>
							<defs>
								<path id="SVGID_00000106134539693129832380000012021436765718283673_" d="M76.6,87.6l-2.7,1.5c0.5-0.2,0.7-0.8,0.7-1.5
									c0-1.5-1-3.4-2.4-4l2.7-1.5c1.3,0.7,2.4,2.7,2.4,4C77.3,86.8,76.9,87.3,76.6,87.6z"/>
							</defs>
							<use xlink:href="#SVGID_00000106134539693129832380000012021436765718283673_"  style="overflow:visible;fill:#9872FF;"/>
							<clipPath id="SVGID_00000052065540887221438670000005538782739969062567_">
								<use xlink:href="#SVGID_00000106134539693129832380000012021436765718283673_"  style="overflow:visible;"/>
							</clipPath>
							<g style="clip-path:url(#SVGID_00000052065540887221438670000005538782739969062567_);enable-background:new    ;">
								<path class="st3" d="M72.2,83.4l2.7-1.5l0,0L72.2,83.4L72.2,83.4"/>
								<path class="st3" d="M72.2,83.4l2.7-1.5c0,0,0,0,0.2,0L72.2,83.4C72.4,83.4,72.2,83.4,72.2,83.4"/>
								<path class="st3" d="M72.4,83.6l2.7-1.5c0,0,0,0,0.2,0L72.4,83.6L72.4,83.6"/>
								<path class="st3" d="M72.4,83.6l2.7-1.5c0,0,0,0,0.2,0L72.4,83.6C72.6,83.6,72.6,83.6,72.4,83.6"/>
								<path class="st3" d="M72.6,83.6l2.7-1.5c0,0,0,0,0.2,0L72.6,83.6C72.6,83.8,72.6,83.8,72.6,83.6"/>
								<path class="st3" d="M72.7,83.8l2.7-1.5c0,0,0,0,0.2,0.2L72.7,83.8L72.7,83.8"/>
								<path class="st3" d="M72.7,83.8l2.7-1.5c0,0,0,0,0.2,0.2L72.7,83.8C72.9,83.9,72.7,83.9,72.7,83.8"/>
								<path class="st3" d="M72.9,83.9l2.7-1.5c0,0,0,0,0.2,0.2L72.9,83.9L72.9,83.9"/>
								<path class="st3" d="M72.9,83.9l2.7-1.5c0,0,0,0,0.2,0.2L72.9,83.9C73.1,84.1,73.1,84.1,72.9,83.9"/>
								<path class="st3" d="M73.1,84.1l2.7-1.5c0,0,0,0,0.2,0.2L73.1,84.1L73.1,84.1"/>
								<path class="st3" d="M73.2,84.3l2.7-1.5c0,0,0,0,0.2,0.2L73.2,84.3L73.2,84.3"/>
								<path class="st3" d="M73.2,84.3l2.7-1.5c0,0,0,0,0.2,0.2L73.2,84.3C73.4,84.4,73.2,84.3,73.2,84.3"/>
								<path class="st3" d="M73.4,84.4l2.7-1.5c0,0,0,0,0.2,0.2L73.4,84.4L73.4,84.4"/>
								<path class="st3" d="M73.4,84.6l2.7-1.5c0,0,0,0.2,0.2,0.2L73.4,84.6C73.6,84.6,73.6,84.6,73.4,84.6"/>
								<path class="st3" d="M73.6,84.6l2.7-1.5l0.2,0.2L73.6,84.6C73.7,84.8,73.6,84.8,73.6,84.6"/>
								<path class="st3" d="M73.7,84.9l2.7-1.5c0,0.2,0.2,0.2,0.2,0.3l-2.7,1.5C73.9,85.1,73.7,84.9,73.7,84.9"/>
								<path class="st3" d="M73.9,85.1l2.7-1.5c0,0,0,0.2,0.2,0.2L73.9,85.1C73.9,85.3,73.9,85.3,73.9,85.1"/>
								<path class="st3" d="M74.1,85.5l2.7-1.5v0.2L74.1,85.5L74.1,85.5"/>
								<path class="st3" d="M74.1,85.6l2.7-1.5c0,0,0,0,0,0.2L74.1,85.6L74.1,85.6"/>
								<path class="st3" d="M74.1,85.6l2.7-1.5c0,0,0,0,0,0.2L74.1,85.6C74.2,85.8,74.2,85.6,74.1,85.6"/>
								<path class="st3" d="M74.2,85.8l2.7-1.5c0,0,0,0,0,0.2L74.2,85.8L74.2,85.8"/>
								<path class="st3" d="M74.2,86l2.7-1.5c0,0,0,0,0,0.2L74.2,86L74.2,86"/>
								<path class="st3" d="M74.2,86l2.7-1.5c0,0,0,0,0,0.2L74.2,86C74.2,86.1,74.2,86.1,74.2,86"/>
								<path class="st3" d="M74.4,86.1l2.7-1.5c0,0,0,0,0,0.2L74.4,86.1C74.4,86.3,74.4,86.1,74.4,86.1"/>
								<path class="st3" d="M74.4,86.3l2.7-1.5c0,0,0,0,0,0.2L74.4,86.3L74.4,86.3"/>
								<path class="st3" d="M74.4,86.3l2.7-1.5c0,0,0,0,0,0.2L74.4,86.3C74.4,86.5,74.4,86.5,74.4,86.3"/>
								<path class="st3" d="M74.4,86.5l2.7-1.5v0.2L74.4,86.5C74.4,86.6,74.4,86.5,74.4,86.5"/>
								<path class="st3" d="M74.4,86.6l2.7-1.5c0,0,0,0,0,0.2L74.4,86.6C74.6,86.6,74.6,86.6,74.4,86.6"/>
								<path class="st3" d="M74.6,86.8l2.7-1.5c0,0,0,0,0,0.2L74.6,86.8L74.6,86.8"/>
								<path class="st3" d="M74.6,86.8l2.7-1.5c0,0,0,0,0,0.2L74.6,86.8C74.6,87,74.6,87,74.6,86.8"/>
								<path class="st3" d="M74.6,87l2.7-1.5c0,0,0,0,0,0.2L74.6,87C74.6,87.1,74.6,87,74.6,87"/>
								<path class="st3" d="M74.6,87.1l2.7-1.5c0,0,0,0,0,0.2L74.6,87.1L74.6,87.1"/>
								<path class="st3" d="M74.6,87.3l2.7-1.5c0,0,0,0,0,0.2L74.6,87.3L74.6,87.3"/>
								<path class="st3" d="M74.6,87.3l2.7-1.5c0,0,0,0,0,0.2L74.6,87.3C74.6,87.5,74.6,87.3,74.6,87.3"/>
								<path class="st3" d="M74.6,87.5l2.7-1.5c0,0,0,0,0,0.2l0,0L74.6,87.5C74.6,87.6,74.6,87.6,74.6,87.5L74.6,87.5"/>
								<path class="st3" d="M74.6,87.6l2.7-1.5c0,0,0,0,0,0.2L74.6,87.6L74.6,87.6"/>
								<path class="st3" d="M74.6,87.6l2.7-1.5c0,0,0,0,0,0.2L74.6,87.6C74.6,87.8,74.6,87.8,74.6,87.6"/>
								<path class="st3" d="M74.6,87.8l2.7-1.5c0,0,0,0,0,0.2L74.6,87.8L74.6,87.8"/>
								<path class="st3" d="M74.6,88l2.7-1.5c0,0,0,0,0,0.2L74.6,88L74.6,88"/>
								<path class="st3" d="M74.6,88l2.7-1.5c0,0,0,0,0,0.2L74.6,88C74.6,88.1,74.6,88.1,74.6,88"/>
								<path class="st3" d="M74.6,88.1l2.7-1.5c0,0,0,0,0,0.2L74.6,88.1L74.6,88.1"/>
								<path class="st3" d="M74.6,88.3l2.7-1.5V87L74.6,88.3C74.4,88.3,74.6,88.3,74.6,88.3"/>
								<path class="st3" d="M74.4,88.3l2.7-1.5V87L74.4,88.3C74.4,88.5,74.4,88.5,74.4,88.3"/>
								<path class="st3" d="M74.4,88.5l2.7-1.5c0,0,0,0.2-0.2,0.2L74.4,88.5C74.4,88.7,74.4,88.7,74.4,88.5"/>
								<path class="st3" d="M74.4,88.7l2.7-1.5c-0.2,0.2-0.2,0.3-0.3,0.3L74.1,89C74.1,89,74.2,88.8,74.4,88.7"/>
							</g>
						</g>
					</g>
				</g>
				<g>
					<ellipse transform="matrix(0.8646 -0.5025 0.5025 0.8646 -33.4265 47.9454)" class="st3" cx="72.2" cy="86" rx="2" ry="3.4"/>
				</g>
				<g class="st1">
					<g>
						<g>
							<defs>
								<path id="SVGID_00000056400259534296325590000005891001121880156298_" d="M68.7,80.1l2.7-1.5c0.8-0.5,2.2-0.5,3.5,0.3
									l-2.7,1.5C70.9,79.6,69.5,79.6,68.7,80.1z"/>
							</defs>
							<use xlink:href="#SVGID_00000056400259534296325590000005891001121880156298_"  style="overflow:visible;fill:#9872FF;"/>
							<clipPath id="SVGID_00000103953025524081192580000017919116914846501022_">
								<use xlink:href="#SVGID_00000056400259534296325590000005891001121880156298_"  style="overflow:visible;"/>
							</clipPath>
							<g style="clip-path:url(#SVGID_00000103953025524081192580000017919116914846501022_);enable-background:new    ;">
								<path class="st3" d="M68.7,80.1l2.7-1.5c0.2,0,0.3-0.2,0.3-0.2L69,79.9C68.9,79.9,68.9,79.9,68.7,80.1"/>
								<path class="st3" d="M69,79.9l2.7-1.5c0.2,0,0.2,0,0.3-0.2l-2.7,1.5C69.4,79.7,69.2,79.9,69,79.9"/>
								<path class="st3" d="M69.4,79.7l2.7-1.5c0.2,0,0.2,0,0.3,0l-2.7,1.5C69.5,79.7,69.5,79.7,69.4,79.7"/>
								<path class="st3" d="M69.7,79.7l2.7-1.5c0.2,0,0.2,0,0.3,0L70,79.7C69.9,79.7,69.9,79.7,69.7,79.7"/>
								<path class="st3" d="M70,79.7l2.7-1.5h0.2L70,79.7L70,79.7"/>
								<path class="st3" d="M70.2,79.7l2.7-1.5h0.2L70.2,79.7L70.2,79.7"/>
								<path class="st3" d="M70.4,79.7l2.7-1.5h0.2L70.4,79.7C70.5,79.7,70.5,79.7,70.4,79.7"/>
								<path class="st3" d="M70.7,79.7l2.7-1.5h0.2L70.7,79.7L70.7,79.7"/>
								<path class="st3" d="M70.9,79.9l2.7-1.5h0.2L70.9,79.9C71.1,79.9,70.9,79.9,70.9,79.9"/>
								<path class="st3" d="M71.1,79.9l2.7-1.5h0.2L71.1,79.9L71.1,79.9"/>
								<path class="st3" d="M71.2,79.9l2.7-1.5h0.2L71.2,79.9C71.4,80.1,71.4,79.9,71.2,79.9"/>
								<path class="st3" d="M71.4,80.1l2.7-1.5c0,0,0.2,0,0.2,0.2L71.4,80.1C71.6,80.1,71.6,80.1,71.4,80.1"/>
								<path class="st3" d="M71.7,80.1l2.7-1.5c0,0,0.2,0,0.2,0.2L71.7,80.1C71.9,80.2,71.7,80.1,71.7,80.1"/>
								<path class="st3" d="M71.9,80.2l2.7-1.5c0,0,0.2,0,0.2,0.2L71.9,80.2C72.1,80.2,71.9,80.2,71.9,80.2"/>
								<path class="st3" d="M72.1,80.2l2.7-1.5c0,0,0.2,0,0.2,0.2L72.1,80.2C72.2,80.4,72.1,80.4,72.1,80.2"/>
							</g>
						</g>
					</g>
				</g>
				<g>
					<path class="st3" d="M72.2,80.4c2.7,1.7,5.1,5.6,5.1,8.8s-2.4,4.5-5.1,2.9c-2.9-1.7-5.1-5.6-5.1-8.8
						C67.2,80.1,69.5,78.7,72.2,80.4z M72.2,89c1.3,0.7,2.4,0.2,2.4-1.3c0-1.5-1-3.4-2.4-4c-1.3-0.8-2.4-0.2-2.4,1.3
						C69.9,86.3,70.9,88.1,72.2,89"/>
				</g>
				<g class="st1">
					<g>
						<g>
							<defs>
								<path id="SVGID_00000065076185484375390430000008079984145953191346_" d="M78.5,90.8l-2.7,1.5c0.8-0.5,1.5-1.7,1.5-3.2
									c0-3.2-2.2-7.1-5.1-8.8l2.7-1.5c2.7,1.7,5.1,5.6,5.1,8.8C80,89.2,79.3,90.3,78.5,90.8z"/>
							</defs>
							<use xlink:href="#SVGID_00000065076185484375390430000008079984145953191346_"  style="overflow:visible;fill:#9872FF;"/>
							<clipPath id="SVGID_00000032609951213180770630000011913180644109800579_">
								<use xlink:href="#SVGID_00000065076185484375390430000008079984145953191346_"  style="overflow:visible;"/>
							</clipPath>
							<g style="clip-path:url(#SVGID_00000032609951213180770630000011913180644109800579_);enable-background:new    ;">
								<path class="st3" d="M72.2,80.4l2.7-1.5l0,0L72.2,80.4L72.2,80.4"/>
								<path class="st3" d="M72.2,80.4l2.7-1.5l0.2,0.2L72.2,80.4C72.4,80.6,72.4,80.4,72.2,80.4"/>
								<path class="st3" d="M72.6,80.6l2.7-1.5l0.2,0.2L72.6,80.6C72.7,80.7,72.6,80.6,72.6,80.6"/>
								<path class="st3" d="M72.7,80.7l2.7-1.5l0.2,0.2L72.7,80.7C72.9,80.7,72.7,80.7,72.7,80.7"/>
								<path class="st3" d="M72.9,80.9l2.7-1.5l0.2,0.2L72.9,80.9C73.1,80.9,73.1,80.9,72.9,80.9"/>
								<path class="st3" d="M73.2,81.1l2.7-1.5l0.2,0.2L73.2,81.1L73.2,81.1"/>
								<path class="st3" d="M73.4,81.2l2.7-1.5l0.2,0.2L73.4,81.2C73.6,81.4,73.4,81.2,73.4,81.2"/>
								<path class="st3" d="M73.6,81.4l2.7-1.5l0.2,0.2L73.6,81.4C73.7,81.6,73.7,81.4,73.6,81.4"/>
								<path class="st3" d="M73.9,81.6l2.7-1.5l0.2,0.2L73.9,81.6C73.9,81.7,73.9,81.7,73.9,81.6"/>
								<path class="st3" d="M74.1,81.7l2.7-1.5l0.2,0.2L74.1,81.7C74.2,81.9,74.1,81.9,74.1,81.7"/>
								<path class="st3" d="M74.2,82.1l2.7-1.5l0.2,0.2L74.2,82.1C74.4,82.3,74.2,82.1,74.2,82.1"/>
								<path class="st3" d="M74.4,82.3l2.7-1.5l0.2,0.2L74.4,82.3C74.6,82.4,74.6,82.3,74.4,82.3"/>
								<path class="st3" d="M74.6,82.4l2.7-1.5l0.2,0.2L74.6,82.4C74.8,82.6,74.8,82.6,74.6,82.4"/>
								<path class="st3" d="M74.8,82.8l2.7-1.5c0,0.2,0.2,0.2,0.2,0.3l-2.7,1.5C74.9,82.9,74.9,82.8,74.8,82.8"/>
								<path class="st3" d="M75.1,83.1l2.7-1.5c0.2,0.2,0.2,0.3,0.3,0.5l-2.7,1.5C75.3,83.3,75.1,83.1,75.1,83.1"/>
								<path class="st3" d="M75.4,83.4l2.7-1.5c0.2,0.2,0.3,0.3,0.3,0.7l-2.7,1.5C75.6,83.9,75.4,83.6,75.4,83.4"/>
								<path class="st3" d="M75.8,84.1l2.7-1.5c0,0.2,0.2,0.3,0.2,0.5l-2.7,1.5C75.9,84.4,75.8,84.3,75.8,84.1"/>
								<path class="st3" d="M75.9,84.4l2.7-1.5c0,0.2,0.2,0.2,0.2,0.3l-2.7,1.5C76.1,84.8,76.1,84.6,75.9,84.4"/>
								<path class="st3" d="M76.1,84.8l2.7-1.5c0,0.2,0.2,0.2,0.2,0.3l-2.7,1.5C76.3,84.9,76.3,84.9,76.1,84.8"/>
								<path class="st3" d="M76.3,85.1l2.7-1.5c0,0,0,0.2,0.2,0.2L76.3,85.1C76.4,85.3,76.3,85.1,76.3,85.1"/>
								<path class="st3" d="M76.4,85.3l2.7-1.5c0,0,0,0.2,0.2,0.2L76.4,85.3C76.4,85.5,76.4,85.5,76.4,85.3"/>
								<path class="st3" d="M76.4,85.6l2.7-1.5c0,0,0,0.2,0.2,0.2L76.4,85.6C76.6,85.8,76.6,85.6,76.4,85.6"/>
								<path class="st3" d="M76.6,85.8l2.7-1.5c0,0,0,0.2,0.2,0.2L76.6,85.8C76.6,86,76.6,86,76.6,85.8"/>
								<path class="st3" d="M76.6,86.1l2.7-1.5c0,0.2,0,0.2,0.2,0.3l-2.7,1.5C76.8,86.3,76.8,86.1,76.6,86.1"/>
								<path class="st3" d="M76.8,86.3l2.7-1.5c0,0.2,0,0.2,0,0.3l-2.7,1.5C76.8,86.5,76.8,86.5,76.8,86.3"/>
								<path class="st3" d="M76.8,86.6l2.7-1.5c0,0.2,0,0.2,0,0.3L76.8,87C76.9,86.8,76.9,86.6,76.8,86.6"/>
								<path class="st3" d="M76.9,86.8l2.7-1.5c0,0.2,0,0.2,0,0.3l-2.7,1.5C76.9,87,76.9,87,76.9,86.8"/>
								<path class="st3" d="M76.9,87.1l2.7-1.5c0,0.2,0,0.2,0,0.3l-2.7,1.5C77.1,87.3,76.9,87.1,76.9,87.1"/>
								<path class="st3" d="M77.1,87.3l2.7-1.5c0,0.2,0,0.2,0,0.3l-2.7,1.5C77.1,87.5,77.1,87.5,77.1,87.3"/>
								<path class="st3" d="M77.1,87.6l2.7-1.5c0,0.2,0,0.2,0,0.3L77.1,88C77.1,87.8,77.1,87.6,77.1,87.6"/>
								<path class="st3" d="M77.1,87.8l2.7-1.5c0,0.2,0,0.2,0,0.3l-2.7,1.5C77.1,88,77.1,88,77.1,87.8"/>
								<path class="st3" d="M77.3,88.1l2.7-1.5v0.2L77.3,88.1L77.3,88.1"/>
								<path class="st3" d="M77.3,88.3l2.7-1.5V87L77.3,88.3C77.3,88.5,77.3,88.5,77.3,88.3"/>
								<path class="st3" d="M77.3,88.7l2.7-1.5v0.2L77.3,88.7L77.3,88.7"/>
								<path class="st3" d="M77.3,88.8l2.7-1.5v0.2l0,0L77.3,88.8L77.3,88.8C77.3,89,77.3,89,77.3,88.8"/>
								<path class="st3" d="M77.3,89.2l2.7-1.5v0.2L77.3,89.2L77.3,89.2"/>
								<path class="st3" d="M77.3,89.3l2.7-1.5V88L77.3,89.3C77.3,89.5,77.3,89.5,77.3,89.3"/>
								<path class="st3" d="M77.3,89.7l2.7-1.5v0.2L77.3,89.7C77.3,89.8,77.3,89.7,77.3,89.7"/>
								<path class="st3" d="M77.3,89.8l2.7-1.5v0.2L77.3,89.8C77.1,90,77.3,89.8,77.3,89.8"/>
								<path class="st3" d="M77.1,90l2.7-1.5v0.2L77.1,90C77.1,90.2,77.1,90.2,77.1,90"/>
								<path class="st3" d="M77.1,90.3l2.7-1.5c0,0.2,0,0.2,0,0.3l-2.7,1.5C77.1,90.5,77.1,90.3,77.1,90.3"/>
								<path class="st3" d="M77.1,90.5l2.7-1.5c0,0.2,0,0.2-0.2,0.3l-2.7,1.5C76.9,90.7,77.1,90.7,77.1,90.5"/>
								<path class="st3" d="M76.9,90.8l2.7-1.5c0,0.2,0,0.2-0.2,0.3l-2.7,1.5C76.9,91,76.9,91,76.9,90.8"/>
								<path class="st3" d="M76.8,91.2l2.7-1.5c0,0.2-0.2,0.2-0.2,0.3l-2.7,1.5C76.8,91.3,76.8,91.2,76.8,91.2"/>
								<path class="st3" d="M76.6,91.5l2.7-1.5c-0.2,0.3-0.5,0.7-0.8,0.8l-2.7,1.5C76.1,92.2,76.4,91.9,76.6,91.5"/>
							</g>
						</g>
					</g>
				</g>
			</g>
		</g>
	</g>
	<g>
		<g>
			<g class="st1">
				<g>
					<polygon class="st3" points="13.5,40.5 50.7,18.8 50.7,30.6 13.3,52.3 					"/>
				</g>
				<g>
					<polygon class="st3" points="3.5,34.8 40.9,13.1 50.7,18.8 13.5,40.5 					"/>
				</g>
				<g>
					<polygon class="st3" points="13.5,40.5 13.3,52.3 3.5,46.6 3.5,34.8 					"/>
				</g>
			</g>
		</g>
	</g>
	<g>
		<g>
			<g class="st1">
				<g>
					<polygon class="st3" points="35.2,38.6 73.1,16.6 72.9,43 35.2,64.9 					"/>
				</g>
				<g>
					<polygon class="st3" points="21.9,30.9 59.8,9 73.1,16.6 35.2,38.6 					"/>
				</g>
				<g>
					<polygon class="st3" points="35.2,38.6 35.2,64.9 12.8,51.9 12.8,40.8 21.9,30.9 					"/>
					<g class="st1">
						<g>
							<g>
								<defs>
									<polygon id="SVGID_00000171709094648606750570000002269737087197354917_" points="35.2,38.6 35.2,64.9 12.8,51.9 
										12.8,40.8 21.9,30.9 									"/>
								</defs>
								<use xlink:href="#SVGID_00000171709094648606750570000002269737087197354917_"  style="overflow:visible;fill:#9872FF;"/>
								<clipPath id="SVGID_00000073704008699957495890000015808359171980573602_">
									<use xlink:href="#SVGID_00000171709094648606750570000002269737087197354917_"  style="overflow:visible;"/>
								</clipPath>
								<g style="clip-path:url(#SVGID_00000073704008699957495890000015808359171980573602_);">
									<g>
										<g>
											<g>
												<polyline class="st3" points="32.5,39.3 22.6,33.6 16.3,40.7 32.5,50.1 32.5,39.3 												"/>
												<path class="st3" d="M16.3,40.7l6.2-7.1l10.1,5.7v10.6L16.3,40.7 M33,39.1l-10.6-6.1l-6.7,7.6l17.2,9.9L33,39.1"/>
											</g>
										</g>
									</g>
								</g>
							</g>
						</g>
					</g>
				</g>
			</g>
		</g>
	</g>
	<g>
		<g>
			<g class="st1">
				<g>
					<polygon class="st3" points="126.4,35.1 126.4,73.7 88.6,95.7 88.7,57.2 					"/>
				</g>
				<g>
					<polygon class="st3" points="88.7,57.2 88.6,95.7 34.9,64.7 34.9,26 					"/>
					<g class="st1">
						<g>
							<g>
								<defs>
									<polygon id="SVGID_00000010301976886493795070000014589812493960683675_" points="88.7,57.2 88.6,95.7 34.9,64.7 34.9,26 
																			"/>
								</defs>
								<use xlink:href="#SVGID_00000010301976886493795070000014589812493960683675_"  style="overflow:visible;fill:#9872FF;"/>
								<clipPath id="SVGID_00000134237511148550586760000016866072693960345001_">
									<use xlink:href="#SVGID_00000010301976886493795070000014589812493960683675_"  style="overflow:visible;"/>
								</clipPath>
								<g style="clip-path:url(#SVGID_00000134237511148550586760000016866072693960345001_);">
									<g>
										<g>
											<g>
												<polyline class="st3" points="43.3,50.3 41.4,49.3 47.6,60 49.5,61 48.5,59.4 43.3,50.3 												"/>
												<polyline class="st3" points="46,51.9 44.1,50.8 49,59.5 50.2,61.5 52.2,62.7 50.3,59.5 46,51.9 												"/>
												<path class="st3" d="M49.2,46.6L41.4,42l3,5.4l4.7,2.7c0.8,0.5,1.5,1.7,1.5,2.7s-0.7,1.3-1.5,0.8l-1.5-0.8l2.9,5.1
													c1.3,0.3,2.5-0.3,3-1.5c0.2-0.5,0.3-1,0.3-1.7s-0.2-1.3-0.3-2C53,50.3,51.4,47.7,49.2,46.6"/>
												<path class="st3" d="M59.9,58.2l-2.9-1.7V60l2.9,1.7c0.8,0.5,1.5,0.2,1.5-0.8C61.5,59.9,60.8,58.7,59.9,58.2"/>
												<path class="st3" d="M61.6,53.8l-7.7-4.5l3.2,5.4l3,1.9c0.2,0.2,0.3,0.2,0.5,0.3c0.7,0.5,1.2,1.2,1.7,2
													c0.5,1,0.8,2,0.8,2.9c0,1-0.3,1.7-0.8,2c-0.3,0.3-1,0.3-1.5,0.2c-0.2,0-0.5-0.2-0.7-0.3l-3-1.7l-3.2,1.7l7.7,4.5
													c0.5,0.3,1,0.5,1.5,0.7c1.3,0.2,2.4-0.3,2.9-1.5c0.2-0.5,0.3-1,0.3-1.7V62c0-0.7-0.2-1.3-0.3-2
													c-0.5-1.9-1.5-3.5-2.9-4.9C62.8,54.5,62.3,54.1,61.6,53.8"/>
												<path class="st3" d="M76.3,74.3L75.8,74l-5.9-3.4l-2,1.2l3.5,2C73.2,74.8,74.9,75,76.3,74.3"/>
												<path class="st3" d="M76.4,69.5l-0.5-0.3l-2.9,1.7l3.2,1.9l1.3,0.8C78.6,73,78,70.5,76.4,69.5"/>
												<path class="st3" d="M80.5,64.6L72.7,60c-2-1.2-3.7-0.7-4.4,1c-0.2,0.5-0.3,1-0.3,1.7s0.2,1.3,0.3,2
													c0.5,1.9,1.7,3.7,3,5.1l2.9-1.7l-1.5-0.8c-0.8-0.5-1.5-1.7-1.5-2.7c0-1,0.7-1.3,1.5-0.8l4.5,2.7L80.5,64.6"/>
											</g>
										</g>
									</g>
								</g>
							</g>
						</g>
					</g>
				</g>
				<g>
					<polygon class="st3" points="126.4,35.1 88.7,57.2 34.9,26 72.7,4.1 					"/>
				</g>
			</g>
		</g>
	</g>
</g>
</svg>
