<?xml version="1.0" encoding="utf-8"?>
<!-- Generator: Adobe Illustrator 25.4.1, SVG Export Plug-In . SVG Version: 6.00 Build 0)  -->
<svg version="1.1" id="Layer_1" xmlns="http://www.w3.org/2000/svg" xmlns:xlink="http://www.w3.org/1999/xlink" x="0px" y="0px"
	 viewBox="0 0 129 98.9" style="enable-background:new 0 0 129 98.9;" xml:space="preserve">
<style type="text/css">
	.st0{opacity:0.2;}
	.st1{enable-background:new    ;}
	.st2{fill:#9872FF;}
	.st3{clip-path:url(#SVGID_00000052105202865555517920000001797048065199531426_);enable-background:new    ;}
	.st4{clip-path:url(#SVGID_00000168088804467349830930000009335423547126722994_);enable-background:new    ;}
	.st5{clip-path:url(#SVGID_00000047779914086685871440000013036964809174817457_);enable-background:new    ;}
	.st6{clip-path:url(#SVGID_00000036961217144817617350000005872513602364467131_);enable-background:new    ;}
	.st7{clip-path:url(#SVGID_00000111175069227818184390000000355464410692740741_);enable-background:new    ;}
	.st8{clip-path:url(#SVGID_00000155840382225816930750000005365075187973402016_);enable-background:new    ;}
	.st9{clip-path:url(#SVGID_00000138568002283447798540000016916201032499842958_);}
	.st10{clip-path:url(#SVGID_00000136396822531229379810000001808538509563425463_);enable-background:new    ;}
	.st11{clip-path:url(#SVGID_00000099626939140528835190000002943986128790526601_);enable-background:new    ;}
	.st12{clip-path:url(#SVGID_00000167384762054135929130000016278032387883866260_);enable-background:new    ;}
	.st13{clip-path:url(#SVGID_00000075121741670177403290000016756825997805719181_);enable-background:new    ;}
	.st14{clip-path:url(#SVGID_00000098199671260616474950000002332383310943197631_);enable-background:new    ;}
	.st15{clip-path:url(#SVGID_00000008862292689779661700000010822907590436578699_);enable-background:new    ;}
	.st16{clip-path:url(#SVGID_00000160887373632616387680000017081092847787802023_);}
	.st17{clip-path:url(#SVGID_00000106829275684300460770000006178529095135743386_);}
	.st18{clip-path:url(#SVGID_00000001634836781712300710000008670395891501848464_);enable-background:new    ;}
	.st19{clip-path:url(#SVGID_00000029031152385160882580000013014281866347623315_);enable-background:new    ;}
	.st20{clip-path:url(#SVGID_00000169516084801703418140000009752670659580434844_);enable-background:new    ;}
	.st21{clip-path:url(#SVGID_00000093873128262626078740000018208119450509451915_);enable-background:new    ;}
	.st22{clip-path:url(#SVGID_00000060017834249276488600000006930790345925361324_);enable-background:new    ;}
	.st23{clip-path:url(#SVGID_00000176022114893797364400000008151757591536637084_);enable-background:new    ;}
	.st24{clip-path:url(#SVGID_00000023962547213209114000000004154239468499898790_);enable-background:new    ;}
	.st25{clip-path:url(#SVGID_00000129916016090116875460000014575037977183873979_);enable-background:new    ;}
	.st26{clip-path:url(#SVGID_00000095339176886763650790000015176503788279896749_);enable-background:new    ;}
	.st27{clip-path:url(#SVGID_00000029022799679535272820000003307329129298028457_);enable-background:new    ;}
	.st28{clip-path:url(#SVGID_00000039093366630877786120000003532030646723033995_);enable-background:new    ;}
	.st29{clip-path:url(#SVGID_00000075152195497259502800000014313963761431197569_);enable-background:new    ;}
</style>
<g id="truckfade2" class="st0">
	<g id="car2_00000016795925356154311900000016710377100329573786_">
		<g>
			<g>
				<g class="st1">
					<g class="st1">
						<g>
							<g>
								<g>
									<g>
										<path id="SVGID_1_" class="st2" d="M106,57.6c0-0.6-0.3-1-0.6-1.3l2.1,1.3c0.3,0.1,0.6,0.7,0.6,1.3c0,1.3-0.8,2.8-2,3.4
											L104,61C105.1,60.3,106,58.9,106,57.6z"/>
									</g>
									<g>
										<defs>
											<path id="SVGID_00000003793673192560111010000008965842950913004950_" d="M106,57.6c0-0.6-0.3-1-0.6-1.3l2.1,1.3
												c0.3,0.1,0.6,0.7,0.6,1.3c0,1.3-0.8,2.8-2,3.4L104,61C105.1,60.3,106,58.9,106,57.6z"/>
										</defs>
										<clipPath id="SVGID_00000158746647354510121110000011749877951451015808_">
											<use xlink:href="#SVGID_00000003793673192560111010000008965842950913004950_"  style="overflow:visible;"/>
										</clipPath>
										<g style="clip-path:url(#SVGID_00000158746647354510121110000011749877951451015808_);enable-background:new    ;">
											<path class="st2" d="M106.3,62.2l-2.1-1.3c0.3-0.1,0.4-0.3,0.7-0.6l2.1,1.3C106.7,62,106.4,62.1,106.3,62.2"/>
											<path class="st2" d="M106.8,61.7l-2.1-1.3c0.1-0.1,0.1-0.1,0.3-0.3l2.1,1.3C107.1,61.5,107,61.7,106.8,61.7"/>
											<path class="st2" d="M107.1,61.4l-2.1-1.3l0.1-0.1L107.1,61.4C107.2,61.4,107.1,61.4,107.1,61.4"/>
											<path class="st2" d="M107.2,61.3l-2.1-1.3l0.1-0.1L107.2,61.3C107.4,61.1,107.2,61.3,107.2,61.3"/>
											<path class="st2" d="M107.4,61.1l-2.1-1.3l0.1-0.1L107.4,61.1C107.5,61,107.4,61,107.4,61.1"/>
											<path class="st2" d="M107.5,61l-2.1-1.3c0,0,0-0.1,0.1-0.1L107.5,61C107.5,60.8,107.5,60.8,107.5,61"/>
											<path class="st2" d="M107.7,60.7l-2.1-1.3c0,0,0-0.1,0.1-0.1L107.7,60.7C107.7,60.7,107.7,60.7,107.7,60.7"/>
											<path class="st2" d="M107.7,60.6l-2.1-1.3c0,0,0-0.1,0.1-0.1L107.7,60.6C107.8,60.4,107.7,60.6,107.7,60.6"/>
											<path class="st2" d="M107.8,60.4l-2.1-1.3c0,0,0-0.1,0.1-0.1L107.8,60.4C107.8,60.3,107.8,60.4,107.8,60.4"/>
											<path class="st2" d="M107.8,60.3l-2.1-1.3c0,0,0-0.1,0.1-0.1L107.8,60.3C107.9,60.1,107.9,60.1,107.8,60.3"/>
											<path class="st2" d="M107.9,60.1l-2.1-1.3v-0.1L107.9,60.1C107.9,60,107.9,60,107.9,60.1"/>
											<path class="st2" d="M107.9,59.9l-2.1-1.3v-0.1L107.9,59.9C108.1,59.7,108.1,59.9,107.9,59.9"/>
											<path class="st2" d="M108.1,59.7l-2.1-1.3c0-0.1,0-0.1,0-0.3l2.1,1.3C108.1,59.6,108.1,59.6,108.1,59.7"/>
											<path class="st2" d="M108.1,59.4l-2.1-1.3c0-0.1,0-0.1,0-0.3l2.1,1.3C108.1,59.3,108.1,59.4,108.1,59.4"/>
											<path class="st2" d="M108.2,59.1l-2.1-1.3c0-0.1,0-0.3,0-0.4c0-0.6-0.3-1-0.6-1.3l2.1,1.3c0.3,0.1,0.6,0.7,0.6,1.3
												C108.2,59,108.2,59,108.2,59.1"/>
										</g>
									</g>
								</g>
							</g>
						</g>
					</g>
					<g class="st1">
						<g>
							<g>
								<g>
									<g>
										<path id="SVGID_00000116935826452408263660000014081161175306079898_" class="st2" d="M102.7,61.1
											c0.4,0.1,0.8,0.1,1.4-0.1l2.1,1.3c-0.6,0.3-1,0.3-1.4,0.1C104.1,62,103.3,61.4,102.7,61.1z"/>
									</g>
									<g>
										<defs>
											<path id="SVGID_00000067958963117534618920000007458135078910059673_" d="M102.7,61.1c0.4,0.1,0.8,0.1,1.4-0.1l2.1,1.3
												c-0.6,0.3-1,0.3-1.4,0.1C104.1,62,103.3,61.4,102.7,61.1z"/>
										</defs>
										<clipPath id="SVGID_00000157277048342800477840000005614186972920525203_">
											<use xlink:href="#SVGID_00000067958963117534618920000007458135078910059673_"  style="overflow:visible;"/>
										</clipPath>
										<g style="clip-path:url(#SVGID_00000157277048342800477840000005614186972920525203_);enable-background:new    ;">
											<polyline class="st2" points="104.8,62.4 102.7,61.1 102.7,61.1 104.8,62.4 104.8,62.4 											"/>
											<path class="st2" d="M104.8,62.4l-2.1-1.3c0,0,0,0,0.1,0L104.8,62.4C105,62.4,104.8,62.4,104.8,62.4"/>
											<path class="st2" d="M105,62.4l-2.1-1.3c0,0,0,0,0.1,0L105,62.4L105,62.4"/>
											<path class="st2" d="M105.1,62.4l-2.1-1.3h0.1L105.1,62.4L105.1,62.4"/>
											<path class="st2" d="M105.1,62.4l-2.1-1.3h0.1L105.1,62.4C105.3,62.5,105.3,62.5,105.1,62.4"/>
											<path class="st2" d="M105.3,62.5l-2.1-1.3h0.1L105.3,62.5C105.4,62.5,105.3,62.5,105.3,62.5"/>
											<path class="st2" d="M105.4,62.5l-2.1-1.3h0.1L105.4,62.5L105.4,62.5"/>
											<path class="st2" d="M105.6,62.4l-2.1-1.3h0.1L105.6,62.4C105.7,62.4,105.6,62.4,105.6,62.4"/>
											<path class="st2" d="M105.7,62.4l-2.1-1.3c0.1,0,0.1,0,0.3-0.1l2.1,1.3C105.8,62.4,105.8,62.4,105.7,62.4"/>
											<path class="st2" d="M106,62.4l-2.1-1.3c0.1,0,0.1-0.1,0.3-0.1l2.1,1.3C106.1,62.2,106.1,62.2,106,62.4"/>
										</g>
									</g>
								</g>
							</g>
						</g>
					</g>
					<g class="st1">
						<g>
							<g>
								<g>
									<g>
										<path id="SVGID_00000062166404457536641650000016073816912897924484_" class="st2" d="M105.4,56.3l2.1,1.3
											c-0.4-0.1-0.8-0.1-1.4,0.1l-2.1-1.3C104.6,56.2,105.1,56,105.4,56.3z"/>
									</g>
									<g>
										<defs>
											<path id="SVGID_00000002365265866214308940000018005921177872770442_" d="M105.4,56.3l2.1,1.3c-0.4-0.1-0.8-0.1-1.4,0.1
												l-2.1-1.3C104.6,56.2,105.1,56,105.4,56.3z"/>
										</defs>
										<clipPath id="SVGID_00000164494262867958385420000012157510734359492237_">
											<use xlink:href="#SVGID_00000002365265866214308940000018005921177872770442_"  style="overflow:visible;"/>
										</clipPath>
										<g style="clip-path:url(#SVGID_00000164494262867958385420000012157510734359492237_);enable-background:new    ;">
											<path class="st2" d="M106.3,57.7l-2.1-1.3c0.1,0,0.1-0.1,0.3-0.1l2.1,1.3C106.4,57.6,106.3,57.6,106.3,57.7"/>
											<path class="st2" d="M106.5,57.6l-2.1-1.3c0.1,0,0.1,0,0.3-0.1l2.1,1.3C106.7,57.5,106.5,57.6,106.5,57.6"/>
											<path class="st2" d="M106.7,57.5l-2.1-1.3h0.1L106.7,57.5C106.8,57.5,106.8,57.5,106.7,57.5"/>
											<path class="st2" d="M107,57.5l-2.1-1.3h0.1L107,57.5L107,57.5"/>
											<path class="st2" d="M107.1,57.5l-2.1-1.3h0.1L107.1,57.5L107.1,57.5"/>
											<path class="st2" d="M107.2,57.5l-2.1-1.3h0.1L107.2,57.5L107.2,57.5"/>
											<path class="st2" d="M107.2,57.5l-2.1-1.3h0.1L107.2,57.5C107.4,57.5,107.4,57.5,107.2,57.5"/>
											<path class="st2" d="M107.4,57.5l-2.1-1.3c0,0,0,0,0.1,0L107.4,57.5C107.5,57.5,107.4,57.5,107.4,57.5"/>
											<path class="st2" d="M107.5,57.5l-2.1-1.3c0,0,0,0,0.1,0L107.5,57.5C107.5,57.6,107.5,57.6,107.5,57.5"/>
											<polyline class="st2" points="107.7,57.6 105.4,56.3 105.4,56.3 107.7,57.6 107.7,57.6 											"/>
										</g>
									</g>
								</g>
							</g>
						</g>
					</g>
					<g class="st1">
						<g>
							<g>
								<g>
									<g>
										<path id="SVGID_00000066507194463328220670000003756726185693096110_" class="st2" d="M104.8,62.4l-2.1-1.3
											c-0.4-0.1-0.6-0.7-0.6-1.3c0-1.3,0.8-2.7,2-3.4l2.1,1.3c-1.1,0.6-2,2.1-2,3.4C104.3,61.7,104.6,62.1,104.8,62.4z"/>
									</g>
									<g>
										<defs>
											<path id="SVGID_00000165215944276371300220000010352778781817154995_" d="M104.8,62.4l-2.1-1.3c-0.4-0.1-0.6-0.7-0.6-1.3
												c0-1.3,0.8-2.7,2-3.4l2.1,1.3c-1.1,0.6-2,2.1-2,3.4C104.3,61.7,104.6,62.1,104.8,62.4z"/>
										</defs>
										<clipPath id="SVGID_00000034089625320560405260000001884831291261016200_">
											<use xlink:href="#SVGID_00000165215944276371300220000010352778781817154995_"  style="overflow:visible;"/>
										</clipPath>
										<g style="clip-path:url(#SVGID_00000034089625320560405260000001884831291261016200_);enable-background:new    ;">
											<path class="st2" d="M104.8,62.4l-2.1-1.3c-0.4-0.1-0.6-0.7-0.6-1.3c0-0.1,0-0.3,0-0.4l2.1,1.3c0,0.1,0,0.3,0,0.4
												C104.3,61.7,104.6,62.1,104.8,62.4"/>
											<path class="st2" d="M104.3,60.7l-2.1-1.3c0-0.1,0-0.1,0-0.3l2.1,1.3C104.3,60.6,104.3,60.6,104.3,60.7"/>
											<path class="st2" d="M104.3,60.4l-2.1-1.3c0-0.1,0-0.1,0-0.3l2.1,1.3C104.4,60.3,104.4,60.4,104.3,60.4"/>
											<path class="st2" d="M104.4,60.1l-2.1-1.3v-0.1L104.4,60.1C104.4,60.1,104.4,60.1,104.4,60.1"/>
											<path class="st2" d="M104.4,60l-2.1-1.3v-0.1L104.4,60C104.6,59.9,104.4,60,104.4,60"/>
											<path class="st2" d="M104.6,59.9l-2.1-1.3c0,0,0-0.1,0.1-0.1L104.6,59.9C104.6,59.7,104.6,59.7,104.6,59.9"/>
											<path class="st2" d="M104.6,59.6l-2.1-1.3c0,0,0-0.1,0.1-0.1L104.6,59.6C104.7,59.6,104.6,59.6,104.6,59.6"/>
											<path class="st2" d="M104.7,59.4l-2.1-1.3c0,0,0-0.1,0.1-0.1L104.7,59.4C104.7,59.4,104.7,59.4,104.7,59.4"/>
											<path class="st2" d="M104.7,59.3l-2.1-1.3c0,0,0-0.1,0.1-0.1L104.7,59.3C104.8,59.1,104.8,59.3,104.7,59.3"/>
											<path class="st2" d="M104.8,59.1l-2.1-1.3c0,0,0-0.1,0.1-0.1L105,59L104.8,59.1"/>
											<path class="st2" d="M105,59l-2.1-1.3l0.1-0.1L105,59C105,58.9,105,58.9,105,59"/>
											<path class="st2" d="M105.1,58.9l-2.1-1.3l0.1-0.1L105.1,58.9C105.1,58.7,105.1,58.7,105.1,58.9"/>
											<path class="st2" d="M105.1,58.6l-2.1-1.3l0.1-0.1L105.1,58.6C105.3,58.4,105.3,58.6,105.1,58.6"/>
											<path class="st2" d="M105.4,58.4l-2.1-1.3c0-0.1,0.1-0.1,0.3-0.3l2.1,1.3C105.6,58.3,105.4,58.3,105.4,58.4"/>
											<path class="st2" d="M105.6,58.2l-2.1-1.3c0.1-0.1,0.4-0.4,0.7-0.6l2.1,1.3C106,57.9,105.8,58,105.6,58.2"/>
										</g>
									</g>
								</g>
							</g>
						</g>
					</g>
					<g>
						<path class="st2" d="M106.3,55.2c2.3-1.3,4.1-0.3,4.1,2.4s-1.8,5.8-4.1,7.2c-2.3,1.3-4.1,0.3-4.1-2.4
							C102,59.7,104,56.5,106.3,55.2z M106.3,62.2c1.1-0.6,2-2.1,2-3.4c0-1.3-0.8-1.7-2-1.1c-1.1,0.6-2,2.1-2,3.4
							C104.3,62.2,105.1,62.8,106.3,62.2"/>
					</g>
					<g>
						<path class="st2" d="M106.3,57.7c1.1-0.6,2-0.1,2,1.1s-0.8,2.8-2,3.4c-1.1,0.6-2,0.1-2-1.1C104.3,59.9,105.1,58.3,106.3,57.7z
							"/>
					</g>
					<g class="st1">
						<g>
							<g>
								<g>
									<g>
										<path id="SVGID_00000065075455091448547600000000490739896919055532_" class="st2" d="M107,53.7l2.1,1.3
											c-0.7-0.4-1.8-0.4-3,0.3L104,54C105.3,53.2,106.3,53.2,107,53.7z"/>
									</g>
									<g>
										<defs>
											<path id="SVGID_00000160876636830036260540000013476264238573153683_" d="M107,53.7l2.1,1.3c-0.7-0.4-1.8-0.4-3,0.3
												L104,54C105.3,53.2,106.3,53.2,107,53.7z"/>
										</defs>
										<clipPath id="SVGID_00000180330518054081828410000011856787961384537513_">
											<use xlink:href="#SVGID_00000160876636830036260540000013476264238573153683_"  style="overflow:visible;"/>
										</clipPath>
										<g style="clip-path:url(#SVGID_00000180330518054081828410000011856787961384537513_);enable-background:new    ;">
											<path class="st2" d="M106.3,55.2l-2.1-1.3c0.1-0.1,0.4-0.1,0.6-0.3l2.1,1.3C106.5,55.1,106.4,55.1,106.3,55.2"/>
											<path class="st2" d="M106.8,54.9l-2.1-1.3c0.1,0,0.3-0.1,0.4-0.1l2.1,1.3C107.1,54.8,107,54.8,106.8,54.9"/>
											<path class="st2" d="M107.2,54.8l-2.1-1.3c0.1,0,0.3,0,0.4-0.1l2.1,1.3C107.5,54.6,107.4,54.8,107.2,54.8"/>
											<path class="st2" d="M107.7,54.6l-2.1-1.3c0.1,0,0.1,0,0.3,0l2.1,1.3C107.8,54.6,107.8,54.6,107.7,54.6"/>
											<path class="st2" d="M107.9,54.6l-2.1-1.3c0.1,0,0.1,0,0.3,0l2.1,1.3C108.1,54.6,108.1,54.6,107.9,54.6"/>
											<path class="st2" d="M108.2,54.6l-2.1-1.3c0.1,0,0.1,0,0.3,0l2.1,1.3C108.4,54.6,108.4,54.6,108.2,54.6"/>
											<path class="st2" d="M108.5,54.6l-2.1-1.3c0.1,0,0.1,0,0.3,0l2.1,1.3C108.7,54.6,108.5,54.6,108.5,54.6"/>
											<path class="st2" d="M108.7,54.8l-2.1-1.3c0.1,0,0.1,0,0.3,0.1l2.1,1.3C108.8,54.8,108.8,54.8,108.7,54.8"/>
											<path class="st2" d="M108.9,54.8l-2.1-1.3c0.1,0,0.1,0,0.1,0.1L108.9,54.8C109.1,54.9,108.9,54.8,108.9,54.8"/>
											<path class="st2" d="M109.1,54.9l-2.1-1.3l0,0L109.1,54.9C109.2,54.9,109.1,54.9,109.1,54.9"/>
										</g>
									</g>
								</g>
							</g>
						</g>
					</g>
					<g class="st1">
						<g>
							<g>
								<g>
									<g>
										<path id="SVGID_00000158738834881157205330000003972630538266171070_" class="st2" d="M103.3,64.9l-2.1-1.3
											c-0.7-0.4-1.3-1.4-1.3-2.7c0-2.7,1.8-5.8,4.1-7.2l2.1,1.3c-2.3,1.3-4.1,4.5-4.1,7.2C102.2,63.7,102.6,64.5,103.3,64.9z"/>
									</g>
									<g>
										<defs>
											<path id="SVGID_00000156556298067973283860000005112503750811440041_" d="M103.3,64.9l-2.1-1.3c-0.7-0.4-1.3-1.4-1.3-2.7
												c0-2.7,1.8-5.8,4.1-7.2l2.1,1.3c-2.3,1.3-4.1,4.5-4.1,7.2C102.2,63.7,102.6,64.5,103.3,64.9z"/>
										</defs>
										<clipPath id="SVGID_00000011020315134957840890000007753224957124474010_">
											<use xlink:href="#SVGID_00000156556298067973283860000005112503750811440041_"  style="overflow:visible;"/>
										</clipPath>
										<g style="clip-path:url(#SVGID_00000011020315134957840890000007753224957124474010_);enable-background:new    ;">
											<path class="st2" d="M103.3,64.9l-2.1-1.3c-0.7-0.4-1.3-1.4-1.3-2.7c0-0.3,0-0.6,0-0.8l2.1,1.3c0,0.3,0,0.6,0,0.8
												C102.2,63.7,102.6,64.5,103.3,64.9"/>
											<path class="st2" d="M102.2,61.5l-2.1-1.3c0-0.1,0-0.4,0.1-0.6l2.1,1.3C102.2,61.1,102.2,61.4,102.2,61.5"/>
											<path class="st2" d="M102.3,61l-2.1-1.3c0-0.1,0.1-0.3,0.1-0.4l2.1,1.3C102.3,60.7,102.3,60.8,102.3,61"/>
											<path class="st2" d="M102.3,60.4l-2.1-1.3c0-0.1,0.1-0.3,0.1-0.4l2.1,1.3C102.5,60.1,102.5,60.3,102.3,60.4"/>
											<path class="st2" d="M102.5,60.1l-2.1-1.3c0-0.1,0.1-0.3,0.1-0.4l2.1,1.3C102.6,59.9,102.6,60,102.5,60.1"/>
											<path class="st2" d="M102.6,59.7l-2.1-1.3c0-0.1,0.1-0.3,0.1-0.4l2.1,1.3C102.7,59.4,102.7,59.6,102.6,59.7"/>
											<path class="st2" d="M102.7,59.3l-2.1-1.3c0-0.1,0.1-0.3,0.1-0.4l2.1,1.3C102.9,59,102.9,59.1,102.7,59.3"/>
											<path class="st2" d="M103,59l-2.1-1.3c0-0.1,0.1-0.3,0.1-0.4l2.1,1.3C103,58.7,103,58.9,103,59"/>
											<path class="st2" d="M103.2,58.6l-2.1-1.3c0-0.1,0.1-0.3,0.1-0.3l2.1,1.3C103.3,58.3,103.2,58.4,103.2,58.6"/>
											<path class="st2" d="M103.3,58.3l-2.1-1.3c0-0.1,0.1-0.3,0.3-0.3l2.1,1.3C103.4,58,103.4,58.2,103.3,58.3"/>
											<path class="st2" d="M103.6,57.9l-2.1-1.3c0.1-0.1,0.1-0.3,0.3-0.4l2.1,1.3C103.7,57.6,103.6,57.7,103.6,57.9"/>
											<path class="st2" d="M103.7,57.6l-2.1-1.3c0.1-0.1,0.1-0.3,0.3-0.4l2.1,1.3C104,57.3,103.9,57.5,103.7,57.6"/>
											<path class="st2" d="M104,57.2l-2.1-1.3c0.1-0.1,0.3-0.3,0.3-0.4l2.1,1.3C104.3,56.9,104.1,57,104,57.2"/>
											<path class="st2" d="M104.4,56.8l-2.1-1.3c0.1-0.1,0.3-0.3,0.4-0.4l2.1,1.3C104.7,56.5,104.6,56.6,104.4,56.8"/>
											<path class="st2" d="M104.8,56.3l-2.1-1.3c0.4-0.4,0.8-0.8,1.4-1.1l2.1,1.3C105.7,55.5,105.3,55.9,104.8,56.3"/>
										</g>
									</g>
								</g>
							</g>
						</g>
					</g>
				</g>
			</g>
		</g>
		<g>
			<g>
				<g class="st1">
					<g>
						<polygon class="st2" points="114.9,22.4 114.7,53.9 71,79.4 71.2,47.7 						"/>
						<g class="st1">
							<g>
								<g>
									<g>
										<g>
											<polygon id="SVGID_00000035510870930754871190000011772615422841537928_" class="st2" points="114.9,22.4 114.7,53.9 
												71,79.4 71.2,47.7 											"/>
										</g>
										<g>
											<defs>
												<polygon id="SVGID_00000061467856130676669120000018196408672232794273_" points="114.9,22.4 114.7,53.9 71,79.4 
													71.2,47.7 												"/>
											</defs>
											<clipPath id="SVGID_00000136404738753932709560000012175772410485725869_">
												<use xlink:href="#SVGID_00000061467856130676669120000018196408672232794273_"  style="overflow:visible;"/>
											</clipPath>
											<g style="clip-path:url(#SVGID_00000136404738753932709560000012175772410485725869_);">
												<g>
													<g>
														<g>
															<polyline class="st2" points="79.2,59.4 77.8,60.4 82.7,63.2 84.3,62.4 83.6,62 79.2,59.4 															"/>
															<polyline class="st2" points="81.5,58.2 79.9,59.1 84,61.4 85,62 86.5,61.1 85,60.3 81.5,58.2 															"/>
															<path class="st2" d="M84.1,50.7l-6.3,3.7l2.5,1.4l3.8-2.3c0.7-0.4,1.3-0.1,1.3,0.7s-0.6,1.8-1.3,2.3l-1.3,0.7
																l2.4,1.4c1.1-1.1,2.1-2.7,2.4-4.2c0.1-0.6,0.3-1.1,0.3-1.5c0-0.6-0.1-1-0.3-1.3C87.2,50.3,85.8,49.8,84.1,50.7"/>
															<path class="st2" d="M92.9,50.1l-2.4,1.4v3l2.4-1.4c0.7-0.4,1.3-1.4,1.3-2.3C94.1,50,93.6,49.7,92.9,50.1"/>
															<path class="st2" d="M94.3,44.9L88,48.6l2.5,1.4l2.5-1.4c0.1-0.1,0.3-0.1,0.4-0.3c0.6-0.1,1-0.1,1.4,0.1
																c0.4,0.3,0.7,0.8,0.7,1.5c0,0.8-0.3,1.7-0.7,2.4c-0.3,0.6-0.7,1.1-1.3,1.5c-0.1,0.1-0.4,0.3-0.6,0.4l-2.5,1.4
																L87.9,60l6.3-3.7c0.4-0.3,0.8-0.6,1.3-1c1.1-1.1,2-2.5,2.3-3.9c0.1-0.6,0.3-1.1,0.3-1.7V47c0-0.6-0.1-1-0.3-1.3
																c-0.4-1-1.3-1.5-2.3-1.3C95.1,44.5,94.7,44.6,94.3,44.9"/>
															<path class="st2" d="M106.1,47.9l-0.4,0.3l-4.8,2.8l-1.5,2.7l3-1.7C103.7,51.1,105.1,49.6,106.1,47.9"/>
															<path class="st2" d="M106.3,43.8l-0.4,0.3l-2.4,4.1l2.5-1.5l1.1-0.7C108.1,44.5,107.5,43.1,106.3,43.8"/>
															<path class="st2" d="M109.5,36l-6.3,3.7c-1.7,1-3.1,3.1-3.7,5.1c-0.1,0.6-0.3,1.1-0.3,1.5c0,0.6,0.1,1,0.3,1.4
																c0.4,1.1,1.3,1.5,2.4,1.3l2.4-4.1l-1.3,0.7c-0.7,0.4-1.3,0.1-1.3-0.7s0.6-1.8,1.3-2.3l3.8-2.3L109.5,36"/>
														</g>
													</g>
												</g>
											</g>
										</g>
									</g>
								</g>
							</g>
						</g>
					</g>
					<g>
						<polygon class="st2" points="71.2,47.7 71,79.4 39.8,61.4 39.9,29.7 						"/>
					</g>
					<g>
						<polygon class="st2" points="114.9,22.4 71.2,47.7 39.9,29.7 83.7,4.3 						"/>
					</g>
				</g>
			</g>
		</g>
		<g>
			<g>
				<g class="st1">
					<g class="st1">
						<g>
							<g>
								<g>
									<g>
										<path id="SVGID_00000097475095846574587520000015358836780848508045_" class="st2" d="M63.3,82.1c0-0.6-0.3-1-0.6-1.3
											l2.1,1.3c0.3,0.1,0.6,0.7,0.6,1.3c0,1.3-0.8,2.8-2,3.4l-2.1-1.3C62.4,84.9,63.3,83.4,63.3,82.1z"/>
									</g>
									<g>
										<defs>
											<path id="SVGID_00000150817122266958876790000009248163921221969549_" d="M63.3,82.1c0-0.6-0.3-1-0.6-1.3l2.1,1.3
												c0.3,0.1,0.6,0.7,0.6,1.3c0,1.3-0.8,2.8-2,3.4l-2.1-1.3C62.4,84.9,63.3,83.4,63.3,82.1z"/>
										</defs>
										<clipPath id="SVGID_00000096743426221329930320000014120422823035351955_">
											<use xlink:href="#SVGID_00000150817122266958876790000009248163921221969549_"  style="overflow:visible;"/>
										</clipPath>
										<g style="clip-path:url(#SVGID_00000096743426221329930320000014120422823035351955_);enable-background:new    ;">
											<path class="st2" d="M63.6,86.8l-2.1-1.3c0.3-0.1,0.4-0.3,0.7-0.6l2.1,1.3C64,86.5,63.9,86.6,63.6,86.8"/>
											<path class="st2" d="M64.3,86.3L62.2,85c0.1-0.1,0.1-0.1,0.3-0.3l2.1,1.3C64.4,86.1,64.3,86.2,64.3,86.3"/>
											<path class="st2" d="M64.4,86.1l-2.1-1.3l0.1-0.1L64.4,86.1C64.6,85.9,64.4,85.9,64.4,86.1"/>
											<path class="st2" d="M64.6,85.9l-2.1-1.3l0.1-0.1L64.6,85.9C64.7,85.8,64.7,85.8,64.6,85.9"/>
											<path class="st2" d="M64.7,85.6l-2.1-1.3l0.1-0.1L64.7,85.6C64.8,85.5,64.7,85.6,64.7,85.6"/>
											<path class="st2" d="M64.8,85.5l-2.1-1.3c0,0,0-0.1,0.1-0.1L64.8,85.5C64.8,85.3,64.8,85.5,64.8,85.5"/>
											<path class="st2" d="M65,85.3L62.9,84c0,0,0-0.1,0.1-0.1L65,85.3C65,85.2,65,85.2,65,85.3"/>
											<path class="st2" d="M65,85.2l-2.1-1.3c0,0,0-0.1,0.1-0.1L65,85.2C65.1,85.1,65.1,85.1,65,85.2"/>
											<path class="st2" d="M65.1,84.9L63,83.7c0,0,0-0.1,0.1-0.1L65.1,84.9C65.1,84.9,65.1,84.9,65.1,84.9"/>
											<path class="st2" d="M65.1,84.8L63,83.5c0,0,0-0.1,0.1-0.1L65.1,84.8C65.3,84.6,65.3,84.8,65.1,84.8"/>
											<path class="st2" d="M65.3,84.6l-2.1-1.3v-0.1L65.3,84.6L65.3,84.6"/>
											<path class="st2" d="M65.3,84.5l-2.1-1.3v-0.1L65.3,84.5C65.4,84.4,65.4,84.4,65.3,84.5"/>
											<path class="st2" d="M65.4,84.2L63.3,83c0-0.1,0-0.1,0-0.3l2.1,1.3C65.4,84.1,65.4,84.2,65.4,84.2"/>
											<path class="st2" d="M65.4,84.1l-2.1-1.3c0-0.1,0-0.1,0-0.3l2.1,1.3C65.5,83.8,65.4,83.9,65.4,84.1"/>
											<path class="st2" d="M65.5,83.8l-2.1-1.3c0-0.1,0-0.3,0-0.4c0-0.6-0.3-1-0.6-1.3l2.1,1.3c0.3,0.1,0.6,0.7,0.6,1.3
												C65.5,83.5,65.5,83.7,65.5,83.8"/>
										</g>
									</g>
								</g>
							</g>
						</g>
					</g>
					<g class="st1">
						<g>
							<g>
								<g>
									<g>
										<path id="SVGID_00000100380263441159059090000011442933705521247154_" class="st2" d="M60.1,85.6c0.4,0.1,0.8,0.1,1.4-0.1
											l0,0l2.1,1.3c-0.6,0.3-1,0.3-1.4,0.1C61.5,86.5,60.6,86.1,60.1,85.6z"/>
									</g>
									<g>
										<defs>
											<path id="SVGID_00000065793813750791754230000003364281966583964324_" d="M60.1,85.6c0.4,0.1,0.8,0.1,1.4-0.1l0,0
												l2.1,1.3c-0.6,0.3-1,0.3-1.4,0.1C61.5,86.5,60.6,86.1,60.1,85.6z"/>
										</defs>
										<clipPath id="SVGID_00000084526862501427645950000004236996657977211796_">
											<use xlink:href="#SVGID_00000065793813750791754230000003364281966583964324_"  style="overflow:visible;"/>
										</clipPath>
										<g style="clip-path:url(#SVGID_00000084526862501427645950000004236996657977211796_);enable-background:new    ;">
											<polyline class="st2" points="62.2,86.9 60.1,85.6 60.1,85.6 62.2,86.9 62.2,86.9 											"/>
											<path class="st2" d="M62.2,86.9l-2.1-1.3c0,0,0,0,0.1,0L62.2,86.9C62.3,86.9,62.2,86.9,62.2,86.9"/>
											<path class="st2" d="M62.3,86.9l-2.1-1.3c0,0,0,0,0.1,0L62.3,86.9C62.3,87,62.3,87,62.3,86.9"/>
											<path class="st2" d="M62.4,87l-2.1-1.3h0.1L62.4,87L62.4,87"/>
											<path class="st2" d="M62.4,87l-2.1-1.3h0.1L62.4,87C62.6,87,62.6,87,62.4,87"/>
											<path class="st2" d="M62.6,87l-2.1-1.3h0.1L62.6,87C62.7,87,62.6,87,62.6,87"/>
											<path class="st2" d="M62.7,87l-2.1-1.3h0.1L62.7,87L62.7,87"/>
											<path class="st2" d="M62.9,87l-2.1-1.3h0.1L62.9,87C63,87,63,87,62.9,87"/>
											<path class="st2" d="M63,87l-2.1-1.3c0.1,0,0.1,0,0.3-0.1l2.1,1.3C63.2,86.9,63.2,86.9,63,87"/>
											<path class="st2" d="M63.3,86.9l-2.1-1.3c0.1,0,0.1-0.1,0.3-0.1l2.1,1.3C63.4,86.8,63.4,86.9,63.3,86.9"/>
										</g>
									</g>
								</g>
							</g>
						</g>
					</g>
					<g class="st1">
						<g>
							<g>
								<g>
									<g>
										<path id="SVGID_00000123411375860621483570000016598927019241378439_" class="st2" d="M62.7,80.8l2.1,1.3
											C64.4,82,64,82,63.4,82.2L61.3,81C61.9,80.7,62.4,80.7,62.7,80.8z"/>
									</g>
									<g>
										<defs>
											<path id="SVGID_00000074400818234716485330000007203374263395974038_" d="M62.7,80.8l2.1,1.3C64.4,82,64,82,63.4,82.2
												L61.3,81C61.9,80.7,62.4,80.7,62.7,80.8z"/>
										</defs>
										<clipPath id="SVGID_00000166661022683298076310000012986976235077567392_">
											<use xlink:href="#SVGID_00000074400818234716485330000007203374263395974038_"  style="overflow:visible;"/>
										</clipPath>
										<g style="clip-path:url(#SVGID_00000166661022683298076310000012986976235077567392_);enable-background:new    ;">
											<path class="st2" d="M63.6,82.2L61.5,81c0.1,0,0.1-0.1,0.3-0.1l2.1,1.3C63.7,82.1,63.6,82.2,63.6,82.2"/>
											<path class="st2" d="M63.9,82.1l-2.1-1.3c0.1,0,0.1,0,0.3-0.1l2.1,1.3C64,82.1,63.9,82.1,63.9,82.1"/>
											<path class="st2" d="M64,82.1l-2.1-1.3H62L64,82.1C64.1,82,64.1,82.1,64,82.1"/>
											<path class="st2" d="M64.3,82l-2.1-1.3h0.1L64.3,82L64.3,82"/>
											<path class="st2" d="M64.4,82l-2.1-1.3h0.1L64.4,82L64.4,82"/>
											<path class="st2" d="M64.6,82l-2.1-1.3h0.1L64.6,82L64.6,82"/>
											<path class="st2" d="M64.6,82l-2.1-1.3h0.1L64.6,82C64.7,82,64.7,82,64.6,82"/>
											<path class="st2" d="M64.7,82.1l-2.1-1.3c0,0,0,0,0.1,0L64.7,82.1C64.8,82.1,64.7,82.1,64.7,82.1"/>
											<path class="st2" d="M64.8,82.1l-2.1-1.3c0,0,0,0,0.1,0L64.8,82.1L64.8,82.1"/>
											<polyline class="st2" points="65,82.1 62.7,80.8 62.7,80.8 65,82.1 65,82.1 											"/>
										</g>
									</g>
								</g>
							</g>
						</g>
					</g>
					<g class="st1">
						<g>
							<g>
								<g>
									<g>
										<path id="SVGID_00000082349717105373677310000007228572505084289960_" class="st2" d="M62.2,86.9l-2.1-1.3
											c-0.4-0.1-0.6-0.7-0.6-1.3c0-1.3,0.8-2.7,2-3.4l2.1,1.3c-1.1,0.6-2,2.1-2,3.4C61.6,86.2,61.9,86.8,62.2,86.9z"/>
									</g>
									<g>
										<defs>
											<path id="SVGID_00000080186985958145181370000016164287157467907250_" d="M62.2,86.9l-2.1-1.3c-0.4-0.1-0.6-0.7-0.6-1.3
												c0-1.3,0.8-2.7,2-3.4l2.1,1.3c-1.1,0.6-2,2.1-2,3.4C61.6,86.2,61.9,86.8,62.2,86.9z"/>
										</defs>
										<clipPath id="SVGID_00000121958210656954870100000010523300413002433719_">
											<use xlink:href="#SVGID_00000080186985958145181370000016164287157467907250_"  style="overflow:visible;"/>
										</clipPath>
										<g style="clip-path:url(#SVGID_00000121958210656954870100000010523300413002433719_);enable-background:new    ;">
											<path class="st2" d="M62.2,86.9l-2.1-1.3c-0.4-0.1-0.6-0.7-0.6-1.3c0-0.1,0-0.3,0-0.4l2.1,1.3c0,0.1,0,0.3,0,0.4
												C61.6,86.2,61.9,86.8,62.2,86.9"/>
											<path class="st2" d="M61.6,85.2l-2.1-1.3c0-0.1,0-0.1,0-0.3l2.1,1.3C61.6,85.1,61.6,85.2,61.6,85.2"/>
											<path class="st2" d="M61.7,84.9l-2.1-1.3c0-0.1,0-0.1,0-0.3l2.1,1.3C61.7,84.8,61.7,84.9,61.7,84.9"/>
											<path class="st2" d="M61.7,84.8l-2.1-1.3v-0.1L61.7,84.8C61.7,84.6,61.7,84.6,61.7,84.8"/>
											<path class="st2" d="M61.7,84.5l-2.1-1.3v-0.1L61.7,84.5C61.9,84.5,61.7,84.5,61.7,84.5"/>
											<path class="st2" d="M61.9,84.4l-2.1-1.3c0,0,0-0.1,0.1-0.1L61.9,84.4C61.9,84.2,61.9,84.4,61.9,84.4"/>
											<path class="st2" d="M61.9,84.2L59.8,83c0,0,0-0.1,0.1-0.1L61.9,84.2C62,84.1,61.9,84.2,61.9,84.2"/>
											<path class="st2" d="M62,84.1l-2.1-1.3c0,0,0-0.1,0.1-0.1L62,84.1C62,83.9,62,83.9,62,84.1"/>
											<path class="st2" d="M62,83.9l-2.1-1.3c0,0,0-0.1,0.1-0.1L62,83.9C62.2,83.8,62.2,83.8,62,83.9"/>
											<path class="st2" d="M62.2,83.7l-2.1-1.3c0,0,0-0.1,0.1-0.1L62.2,83.7C62.3,83.7,62.2,83.7,62.2,83.7"/>
											<path class="st2" d="M62.3,83.5l-2.1-1.3l0.1-0.1L62.3,83.5C62.3,83.4,62.3,83.5,62.3,83.5"/>
											<path class="st2" d="M62.4,83.4l-2.1-1.3l0.1-0.1L62.4,83.4C62.4,83.2,62.4,83.4,62.4,83.4"/>
											<path class="st2" d="M62.6,83.2L60.5,82l0.1-0.1L62.6,83.2C62.6,83.1,62.6,83.1,62.6,83.2"/>
											<path class="st2" d="M62.7,83l-2.1-1.3c0-0.1,0.1-0.1,0.3-0.3l2.1,1.3C62.9,82.8,62.7,83,62.7,83"/>
											<path class="st2" d="M62.9,82.8l-2.1-1.3c0.1-0.1,0.4-0.4,0.7-0.6l2.1,1.3C63.3,82.4,63.2,82.5,62.9,82.8"/>
										</g>
									</g>
								</g>
							</g>
						</g>
					</g>
					<g>
						<path class="st2" d="M63.6,79.7c2.3-1.3,4.1-0.3,4.1,2.4c0,2.7-1.8,5.8-4.1,7.2c-2.3,1.3-4.1,0.3-4.1-2.4
							C59.5,84.2,61.3,81.1,63.6,79.7z M63.6,86.8c1.1-0.6,2-2.1,2-3.4s-0.8-1.7-2-1.1c-1.1,0.6-2,2.1-2,3.4S62.4,87.5,63.6,86.8"/>
					</g>
					<g>
						<path class="st2" d="M63.6,82.2c1.1-0.6,2-0.1,2,1.1c0,1.3-0.8,2.8-2,3.4s-2,0.1-2-1.1S62.4,83,63.6,82.2z"/>
					</g>
					<g class="st1">
						<g>
							<g>
								<g>
									<g>
										<path id="SVGID_00000092458782414253295980000010622261150838637244_" class="st2" d="M64.3,78.2l2.1,1.3
											c-0.7-0.4-1.8-0.4-3,0.3l-2.1-1.3C62.6,77.9,63.6,77.7,64.3,78.2z"/>
									</g>
									<g>
										<defs>
											<path id="SVGID_00000102535312331941139350000010908171593924060345_" d="M64.3,78.2l2.1,1.3c-0.7-0.4-1.8-0.4-3,0.3
												l-2.1-1.3C62.6,77.9,63.6,77.7,64.3,78.2z"/>
										</defs>
										<clipPath id="SVGID_00000155825989597613121890000000268468380196860841_">
											<use xlink:href="#SVGID_00000102535312331941139350000010908171593924060345_"  style="overflow:visible;"/>
										</clipPath>
										<g style="clip-path:url(#SVGID_00000155825989597613121890000000268468380196860841_);enable-background:new    ;">
											<path class="st2" d="M63.6,79.7l-2.1-1.3c0.1-0.1,0.4-0.1,0.6-0.3l2.1,1.3C64,79.6,63.7,79.7,63.6,79.7"/>
											<path class="st2" d="M64.1,79.4L62,78.2c0.1,0,0.3-0.1,0.4-0.1l2.1,1.3C64.4,79.4,64.3,79.4,64.1,79.4"/>
											<path class="st2" d="M64.6,79.3L62.4,78c0.1,0,0.3,0,0.4-0.1l2.1,1.3C64.8,79.3,64.7,79.3,64.6,79.3"/>
											<path class="st2" d="M65,79.3L62.9,78c0.1,0,0.1,0,0.3,0l2.1,1.3C65.1,79.1,65.1,79.3,65,79.3"/>
											<path class="st2" d="M65.3,79.1l-2.1-1.3c0.1,0,0.1,0,0.3,0l2.1,1.3C65.4,79.1,65.4,79.1,65.3,79.1"/>
											<path class="st2" d="M65.5,79.1l-2.1-1.3c0.1,0,0.1,0,0.3,0l2.1,1.3C65.7,79.3,65.7,79.1,65.5,79.1"/>
											<path class="st2" d="M65.8,79.3L63.7,78c0.1,0,0.1,0,0.3,0l2.1,1.3C66,79.3,65.8,79.3,65.8,79.3"/>
											<path class="st2" d="M66,79.3L63.9,78c0.1,0,0.1,0,0.3,0.1l2.1,1.3C66.1,79.3,66.1,79.3,66,79.3"/>
											<path class="st2" d="M66.3,79.4l-2.1-1.3c0.1,0,0.1,0,0.1,0.1L66.3,79.4C66.4,79.4,66.3,79.4,66.3,79.4"/>
											<path class="st2" d="M66.4,79.4l-2.1-1.3l0,0L66.4,79.4C66.5,79.4,66.5,79.4,66.4,79.4"/>
										</g>
									</g>
								</g>
							</g>
						</g>
					</g>
					<g class="st1">
						<g>
							<g>
								<g>
									<g>
										<path id="SVGID_00000171695554021406547050000004219365390643597202_" class="st2" d="M60.6,89.6l-2.1-1.3
											c-0.7-0.4-1.3-1.4-1.3-2.7c0-2.7,1.8-5.8,4.1-7.2l2.1,1.3c-2.3,1.3-4.1,4.5-4.1,7.2C59.5,88.2,59.9,89.2,60.6,89.6z"/>
									</g>
									<g>
										<defs>
											<path id="SVGID_00000142879438689796450080000002485543505448231328_" d="M60.6,89.6l-2.1-1.3c-0.7-0.4-1.3-1.4-1.3-2.7
												c0-2.7,1.8-5.8,4.1-7.2l2.1,1.3c-2.3,1.3-4.1,4.5-4.1,7.2C59.5,88.2,59.9,89.2,60.6,89.6z"/>
										</defs>
										<clipPath id="SVGID_00000049907151139592651000000013423283490822684826_">
											<use xlink:href="#SVGID_00000142879438689796450080000002485543505448231328_"  style="overflow:visible;"/>
										</clipPath>
										<g style="clip-path:url(#SVGID_00000049907151139592651000000013423283490822684826_);enable-background:new    ;">
											<path class="st2" d="M60.6,89.6l-2.1-1.3c-0.7-0.4-1.3-1.4-1.3-2.7c0-0.3,0-0.6,0-0.8l2.1,1.3c0,0.3,0,0.6,0,0.8
												C59.5,88.2,59.9,89.2,60.6,89.6"/>
											<path class="st2" d="M59.5,86.1l-2.1-1.3c0-0.1,0-0.4,0.1-0.6l2.1,1.3C59.5,85.8,59.5,85.9,59.5,86.1"/>
											<path class="st2" d="M59.6,85.5l-2.1-1.3c0-0.1,0.1-0.3,0.1-0.4l2.1,1.3C59.6,85.2,59.6,85.3,59.6,85.5"/>
											<path class="st2" d="M59.6,85.1l-2.1-1.3c0-0.1,0.1-0.3,0.1-0.4l2.1,1.3C59.8,84.8,59.8,84.9,59.6,85.1"/>
											<path class="st2" d="M59.8,84.6l-2.1-1.3c0-0.1,0.1-0.3,0.1-0.4l2.1,1.3C59.9,84.4,59.9,84.5,59.8,84.6"/>
											<path class="st2" d="M59.9,84.2L57.8,83c0-0.1,0.1-0.3,0.1-0.4l2.1,1.3C60.1,83.9,60.1,84.1,59.9,84.2"/>
											<path class="st2" d="M60.1,83.9L58,82.6c0-0.1,0.1-0.3,0.1-0.4l2.1,1.3C60.2,83.7,60.2,83.8,60.1,83.9"/>
											<path class="st2" d="M60.3,83.5l-2.1-1.3c0-0.1,0.1-0.3,0.1-0.3l2.1,1.3C60.3,83.2,60.3,83.4,60.3,83.5"/>
											<path class="st2" d="M60.5,83.1l-2.1-1.3c0-0.1,0.1-0.3,0.1-0.3l2.1,1.3C60.6,83,60.5,83.1,60.5,83.1"/>
											<path class="st2" d="M60.6,82.8l-2.1-1.3c0-0.1,0.1-0.3,0.3-0.3l2.1,1.3C60.8,82.5,60.8,82.7,60.6,82.8"/>
											<path class="st2" d="M60.9,82.5l-2.1-1.3c0.1-0.1,0.1-0.3,0.3-0.4l2.1,1.3C61,82.2,60.9,82.4,60.9,82.5"/>
											<path class="st2" d="M61,82.1l-2.1-1.3c0.1-0.1,0.1-0.3,0.3-0.4l2.1,1.3C61.3,81.8,61.2,82,61,82.1"/>
											<path class="st2" d="M61.3,81.7l-2.1-1.3c0.1-0.1,0.3-0.3,0.3-0.4l2.1,1.3C61.6,81.4,61.5,81.5,61.3,81.7"/>
											<path class="st2" d="M61.7,81.3L59.6,80c0.1-0.1,0.3-0.3,0.4-0.4l2.1,1.3C62,81,61.9,81.1,61.7,81.3"/>
											<path class="st2" d="M62.2,80.8l-2.1-1.3c0.4-0.4,0.8-0.8,1.4-1.1l2.1,1.3C63,80,62.6,80.4,62.2,80.8"/>
										</g>
									</g>
								</g>
							</g>
						</g>
					</g>
				</g>
			</g>
		</g>
		<g>
			<g>
				<g class="st1">
					<g>
						<polygon class="st2" points="52.7,90 21.9,72 21.7,62.8 52.7,80.7 						"/>
					</g>
					<g>
						<polygon class="st2" points="52.7,80.7 21.7,62.8 29.2,46.2 60.2,64.1 						"/>
						<g class="st1">
							<g>
								<g>
									<g>
										<g>
											<polygon id="SVGID_00000102505274691966682970000014219574640508159917_" class="st2" points="52.7,80.7 21.7,62.8 
												29.2,46.2 60.2,64.1 											"/>
										</g>
										<g>
											<defs>
												<polygon id="SVGID_00000075146508773659883770000008297188862591547807_" points="52.7,80.7 21.7,62.8 29.2,46.2 
													60.2,64.1 												"/>
											</defs>
											<clipPath id="SVGID_00000075151501268626775670000002425293289870646423_">
												<use xlink:href="#SVGID_00000075146508773659883770000008297188862591547807_"  style="overflow:visible;"/>
											</clipPath>
											<g style="clip-path:url(#SVGID_00000075151501268626775670000002425293289870646423_);">
												<g>
													<g>
														<g>
															<polyline class="st2" points="57.5,64.6 30,48.7 24.4,61.4 51.9,77.3 57.5,64.6 															"/>
															<path class="st2" d="M24.4,61.4L30,48.6l27.5,15.9l-5.6,12.8L24.4,61.4 M57.9,64.5L30,48.3l-5.9,13.4L52,77.9
																L57.9,64.5"/>
														</g>
													</g>
												</g>
											</g>
										</g>
									</g>
								</g>
							</g>
						</g>
					</g>
					<g>
						<polygon class="st2" points="60.2,64.1 29.2,46.2 40,39.8 71,57.7 						"/>
					</g>
					<g>
						<polygon class="st2" points="71,57.7 71.2,79.3 52.7,90 52.7,80.7 60.2,64.1 						"/>
						<g class="st1">
							<g>
								<g>
									<g>
										<g>
											<polygon id="SVGID_00000000204072204707677090000001495924499411333526_" class="st2" points="71,57.7 71.2,79.3 
												52.7,90 52.7,80.7 60.2,64.1 											"/>
										</g>
										<g>
											<defs>
												<polygon id="SVGID_00000000212939702585122800000012538879852354092946_" points="71,57.7 71.2,79.3 52.7,90 52.7,80.7 
													60.2,64.1 												"/>
											</defs>
											<clipPath id="SVGID_00000090981556953301908110000004124733383158103171_">
												<use xlink:href="#SVGID_00000000212939702585122800000012538879852354092946_"  style="overflow:visible;"/>
											</clipPath>
											<g style="clip-path:url(#SVGID_00000090981556953301908110000004124733383158103171_);">
												<g>
													<g>
														<g>
															<polyline class="st2" points="69.2,60.8 61.3,65.3 56.4,77 69.2,69.6 69.2,60.8 															"/>
															<path class="st2" d="M56.4,77l4.8-11.6l8-4.6v8.9L56.4,77 M69.5,60.3L61,65.1l-5.2,12.5l13.7-7.9V60.3"/>
														</g>
													</g>
												</g>
											</g>
										</g>
									</g>
								</g>
							</g>
						</g>
					</g>
				</g>
			</g>
		</g>
		<g>
			<g>
				<g class="st1">
					<g>
						<polygon class="st2" points="44.8,94.5 14.1,76.8 14.1,67 44.7,84.8 						"/>
					</g>
					<g>
						<polygon class="st2" points="44.7,84.8 14.1,67 22.3,62.4 52.9,80.1 						"/>
					</g>
					<g>
						<polygon class="st2" points="52.9,80.1 52.9,89.9 44.8,94.5 44.7,84.8 						"/>
					</g>
				</g>
			</g>
		</g>
		<g>
			<g>
				<g class="st1">
					<g class="st1">
						<g>
							<g>
								<g>
									<g>
										<path id="SVGID_00000044900697388309960110000009091404948698091676_" class="st2" d="M38.8,87.2c0.1,0.1,0.3,0.1,0.4,0
											l-0.3,0.1c-0.1,0-0.3,0-0.4,0C38.6,87.3,38.8,87.3,38.8,87.2z"/>
									</g>
									<g>
										<defs>
											<path id="SVGID_00000108303086382303655440000018213696536272574353_" d="M38.8,87.2c0.1,0.1,0.3,0.1,0.4,0l-0.3,0.1
												c-0.1,0-0.3,0-0.4,0C38.6,87.3,38.8,87.3,38.8,87.2z"/>
										</defs>
										<clipPath id="SVGID_00000037655616129650394420000006123486819949940105_">
											<use xlink:href="#SVGID_00000108303086382303655440000018213696536272574353_"  style="overflow:visible;"/>
										</clipPath>
										<g style="clip-path:url(#SVGID_00000037655616129650394420000006123486819949940105_);enable-background:new    ;">
											<path class="st2" d="M38.5,87.5l0.3-0.1l0,0L38.5,87.5L38.5,87.5"/>
											<path class="st2" d="M38.5,87.5l0.3-0.1l0,0L38.5,87.5C38.6,87.5,38.5,87.5,38.5,87.5"/>
											<path class="st2" d="M38.6,87.5l0.3-0.1l0,0L38.6,87.5L38.6,87.5"/>
											<path class="st2" d="M38.6,87.5l0.3-0.1l0,0L38.6,87.5L38.6,87.5"/>
											<path class="st2" d="M38.6,87.5l0.3-0.1l0,0L38.6,87.5L38.6,87.5"/>
											<path class="st2" d="M38.6,87.5l0.3-0.1l0,0L38.6,87.5L38.6,87.5"/>
											<path class="st2" d="M38.6,87.5l0.3-0.1l0,0L38.6,87.5L38.6,87.5"/>
											<path class="st2" d="M38.8,87.5l0.3-0.1l0,0L38.8,87.5L38.8,87.5"/>
											<path class="st2" d="M38.8,87.5l0.3-0.1l0,0L38.8,87.5L38.8,87.5"/>
											<path class="st2" d="M38.8,87.5l0.3-0.1l0,0L38.8,87.5L38.8,87.5"/>
											<path class="st2" d="M38.8,87.5l0.3-0.1l0,0L38.8,87.5L38.8,87.5"/>
											<path class="st2" d="M38.8,87.5l0.3-0.1l0,0L38.8,87.5C38.9,87.5,38.8,87.5,38.8,87.5"/>
											<path class="st2" d="M38.9,87.5l0.3-0.1l0,0L38.9,87.5L38.9,87.5"/>
											<path class="st2" d="M38.9,87.5l0.3-0.1l0,0L38.9,87.5L38.9,87.5"/>
											<path class="st2" d="M38.9,87.5l0.3-0.1l0,0L38.9,87.5L38.9,87.5"/>
										</g>
									</g>
								</g>
							</g>
						</g>
					</g>
					<g class="st1">
						<g>
							<g>
								<g>
									<g>
										<path id="SVGID_00000178916574816406924410000011406272960629312671_" class="st2" d="M38.2,86.1c0,0.4,0.3,0.8,0.7,1.1
											l-0.3,0.1c-0.4-0.1-0.7-0.7-0.7-1.1C37.9,86.2,38.1,86.2,38.2,86.1c-0.1,0-0.1,0.1-0.3,0.1l0,0c0-0.1,0.1-0.4,0.1-0.4
											l0.3-0.1C38.2,85.8,38.2,85.9,38.2,86.1z"/>
									</g>
									<g>
										<defs>
											<path id="SVGID_00000101105554589682625030000005314598776107698619_" d="M38.2,86.1c0,0.4,0.3,0.8,0.7,1.1l-0.3,0.1
												c-0.4-0.1-0.7-0.7-0.7-1.1C37.9,86.2,38.1,86.2,38.2,86.1c-0.1,0-0.1,0.1-0.3,0.1l0,0c0-0.1,0.1-0.4,0.1-0.4l0.3-0.1
												C38.2,85.8,38.2,85.9,38.2,86.1z"/>
										</defs>
										<clipPath id="SVGID_00000040574787123007921190000013546998757882911674_">
											<use xlink:href="#SVGID_00000101105554589682625030000005314598776107698619_"  style="overflow:visible;"/>
										</clipPath>
										<g style="clip-path:url(#SVGID_00000040574787123007921190000013546998757882911674_);enable-background:new    ;">
											<path class="st2" d="M38.1,85.9l0.3-0.1C38.4,85.8,38.2,85.8,38.1,85.9L38.1,85.9C37.9,85.9,38.1,85.9,38.1,85.9"/>
											<path class="st2" d="M37.9,85.9l0.3-0.1l0,0L37.9,85.9C37.9,86.1,37.9,85.9,37.9,85.9"/>
											<path class="st2" d="M37.9,86.1l0.3-0.1l0,0L37.9,86.1L37.9,86.1"/>
											<path class="st2" d="M37.9,86.1l0.3-0.1l0,0L37.9,86.1L37.9,86.1"/>
											<path class="st2" d="M37.9,86.1l0.3-0.1l0,0L37.9,86.1L37.9,86.1"/>
											<path class="st2" d="M37.9,86.1l0.3-0.1l0,0L37.9,86.1C37.9,86.2,37.9,86.2,37.9,86.1"/>
											<path class="st2" d="M37.9,86.2l0.3-0.1l0,0L37.9,86.2L37.9,86.2"/>
											<path class="st2" d="M37.9,86.2l0.3-0.1l0,0L37.9,86.2L37.9,86.2"/>
											<path class="st2" d="M37.9,86.2l0.3-0.1l0,0L37.9,86.2L37.9,86.2"/>
											<path class="st2" d="M37.9,86.2l0.3-0.1l0,0L37.9,86.2L37.9,86.2"/>
											<path class="st2" d="M37.9,86.3l0.3-0.1l0,0l0,0L37.9,86.3L37.9,86.3L37.9,86.3"/>
											<path class="st2" d="M37.9,86.3l0.3-0.1l0,0L37.9,86.3L37.9,86.3"/>
											<path class="st2" d="M37.9,86.3l0.3-0.1l0,0L37.9,86.3L37.9,86.3"/>
											<path class="st2" d="M37.9,86.3l0.3-0.1l0,0L37.9,86.3L37.9,86.3"/>
											<path class="st2" d="M37.9,86.3l0.3-0.1l0,0L37.9,86.3C37.9,86.5,37.9,86.5,37.9,86.3"/>
											<path class="st2" d="M37.9,86.5l0.3-0.1l0,0L37.9,86.5L37.9,86.5"/>
											<path class="st2" d="M37.9,86.5l0.3-0.1l0,0L37.9,86.5L37.9,86.5"/>
											<path class="st2" d="M37.9,86.5l0.3-0.1l0,0L37.9,86.5L37.9,86.5"/>
											<path class="st2" d="M37.9,86.5l0.3-0.1l0,0L37.9,86.5C37.9,86.6,37.9,86.5,37.9,86.5"/>
											<path class="st2" d="M37.9,86.6l0.3-0.1l0,0L37.9,86.6L37.9,86.6"/>
											<path class="st2" d="M37.9,86.6l0.3-0.1l0,0L37.9,86.6L37.9,86.6"/>
											<path class="st2" d="M37.9,86.6l0.3-0.1l0,0L37.9,86.6L37.9,86.6"/>
											<path class="st2" d="M37.9,86.6l0.3-0.1l0,0L37.9,86.6C37.9,86.8,37.9,86.6,37.9,86.6"/>
											<path class="st2" d="M37.9,86.8l0.3-0.1l0,0L37.9,86.8L37.9,86.8"/>
											<path class="st2" d="M37.9,86.8l0.3-0.1l0,0L37.9,86.8L37.9,86.8"/>
											<path class="st2" d="M37.9,86.8l0.3-0.1l0,0L37.9,86.8C38.1,86.8,37.9,86.8,37.9,86.8"/>
											<path class="st2" d="M38.1,86.8l0.3-0.1l0,0L38.1,86.8L38.1,86.8"/>
											<path class="st2" d="M38.1,86.9l0.3-0.1l0,0L38.1,86.9L38.1,86.9"/>
											<path class="st2" d="M38.1,86.9l0.3-0.1l0,0L38.1,86.9L38.1,86.9"/>
											<path class="st2" d="M38.1,86.9l0.3-0.1c0,0,0,0,0,0.1H38.1C38.1,87,38.1,86.9,38.1,86.9"/>
											<path class="st2" d="M38.1,87l0.3-0.1l0,0L38.1,87C38.2,87,38.1,87,38.1,87"/>
											<path class="st2" d="M38.2,87l0.3-0.1l0,0L38.2,87L38.2,87"/>
											<path class="st2" d="M38.2,87l0.3-0.1l0,0L38.2,87C38.2,87.2,38.2,87,38.2,87"/>
											<path class="st2" d="M38.2,87.2l0.3-0.1l0,0L38.2,87.2L38.2,87.2"/>
											<path class="st2" d="M38.2,87.2l0.3-0.1l0,0L38.2,87.2L38.2,87.2"/>
											<path class="st2" d="M38.2,87.2l0.3-0.1l0,0L38.2,87.2C38.4,87.2,38.2,87.2,38.2,87.2"/>
											<path class="st2" d="M38.4,87.2l0.3-0.1l0,0L38.4,87.2L38.4,87.2"/>
											<path class="st2" d="M38.4,87.2l0.3-0.1l0,0L38.4,87.2C38.4,87.3,38.4,87.2,38.4,87.2"/>
											<path class="st2" d="M38.4,87.3l0.3-0.1l0,0L38.4,87.3L38.4,87.3"/>
											<path class="st2" d="M38.4,87.3l0.3-0.1l0,0L38.4,87.3L38.4,87.3"/>
											<path class="st2" d="M38.4,87.3l0.3-0.1l0,0L38.4,87.3C38.5,87.3,38.4,87.3,38.4,87.3"/>
											<path class="st2" d="M38.5,87.3l0.3-0.1l0,0L38.5,87.3L38.5,87.3"/>
											<path class="st2" d="M38.5,87.3l0.3-0.1l0,0L38.5,87.3L38.5,87.3"/>
											<path class="st2" d="M38.5,87.3l0.3-0.1l0,0L38.5,87.3L38.5,87.3"/>
											<polyline class="st2" points="38.5,87.3 38.8,87.2 38.8,87.2 38.5,87.5 38.5,87.3 											"/>
										</g>
									</g>
								</g>
							</g>
						</g>
					</g>
					<g class="st1">
						<g>
							<g>
								<g>
									<g>
										<path id="SVGID_00000009553552371312476560000001531571204363581078_" class="st2" d="M38.1,85.9l0.3-0.1
											c0.1,0,0.3,0,0.4,0l-0.3,0.1C38.4,85.8,38.2,85.8,38.1,85.9z"/>
									</g>
									<g>
										<defs>
											<path id="SVGID_00000016778108111153985000000017298621898333723778_" d="M38.1,85.9l0.3-0.1c0.1,0,0.3,0,0.4,0l-0.3,0.1
												C38.4,85.8,38.2,85.8,38.1,85.9z"/>
										</defs>
										<clipPath id="SVGID_00000140716054311654483040000008373799608864896153_">
											<use xlink:href="#SVGID_00000016778108111153985000000017298621898333723778_"  style="overflow:visible;"/>
										</clipPath>
										<g style="clip-path:url(#SVGID_00000140716054311654483040000008373799608864896153_);enable-background:new    ;">
											<path class="st2" d="M38.1,85.9l0.3-0.1l0,0L38.1,85.9C38.1,85.8,38.1,85.9,38.1,85.9"/>
											<path class="st2" d="M38.1,85.8l0.3-0.1l0,0L38.1,85.8C38.2,85.8,38.2,85.8,38.1,85.8"/>
											<path class="st2" d="M38.2,85.8l0.3-0.1l0,0L38.2,85.8L38.2,85.8"/>
											<path class="st2" d="M38.2,85.8l0.3-0.1l0,0L38.2,85.8L38.2,85.8"/>
											<path class="st2" d="M38.2,85.8l0.3-0.1l0,0L38.2,85.8L38.2,85.8"/>
											<path class="st2" d="M38.2,85.8l0.3-0.1l0,0L38.2,85.8C38.4,85.8,38.4,85.8,38.2,85.8"/>
											<path class="st2" d="M38.4,85.8l0.3-0.1l0,0L38.4,85.8L38.4,85.8"/>
											<path class="st2" d="M38.4,85.8l0.3-0.1l0,0L38.4,85.8L38.4,85.8"/>
											<path class="st2" d="M38.4,85.8l0.3-0.1l0,0L38.4,85.8L38.4,85.8"/>
											<path class="st2" d="M38.4,85.8l0.3-0.1l0,0L38.4,85.8L38.4,85.8"/>
											<path class="st2" d="M38.4,85.8l0.3-0.1l0,0L38.4,85.8C38.5,85.9,38.4,85.9,38.4,85.8"/>
											<path class="st2" d="M38.5,85.9l0.3-0.1l0,0L38.5,85.9L38.5,85.9"/>
											<path class="st2" d="M38.5,85.9l0.3-0.1l0,0L38.5,85.9L38.5,85.9"/>
											<path class="st2" d="M38.5,85.9l0.3-0.1l0,0L38.5,85.9L38.5,85.9"/>
											<path class="st2" d="M38.5,85.9l0.3-0.1l0,0L38.5,85.9L38.5,85.9"/>
										</g>
									</g>
								</g>
							</g>
						</g>
					</g>
					<g class="st1">
						<g>
							<g>
								<g>
									<g>
										<path id="SVGID_00000021807267005827150270000009780099927311109292_" class="st2" d="M39.3,87.3L39,87.4
											c0.1,0,0.1-0.1,0.1-0.4c0-0.4-0.3-1-0.7-1.1l0.3-0.1c0.4,0.1,0.7,0.7,0.7,1.1C39.5,87,39.3,87.2,39.3,87.3z"/>
									</g>
									<g>
										<defs>
											<path id="SVGID_00000027576899759361233600000008256593543722688956_" d="M39.3,87.3L39,87.4c0.1,0,0.1-0.1,0.1-0.4
												c0-0.4-0.3-1-0.7-1.1l0.3-0.1c0.4,0.1,0.7,0.7,0.7,1.1C39.5,87,39.3,87.2,39.3,87.3z"/>
										</defs>
										<clipPath id="SVGID_00000142151936657424454150000009414595150058151083_">
											<use xlink:href="#SVGID_00000027576899759361233600000008256593543722688956_"  style="overflow:visible;"/>
										</clipPath>
										<g style="clip-path:url(#SVGID_00000142151936657424454150000009414595150058151083_);enable-background:new    ;">
											<polyline class="st2" points="38.5,85.9 38.8,85.8 38.8,85.8 38.5,85.9 38.5,85.9 											"/>
											<path class="st2" d="M38.5,85.9l0.3-0.1l0,0L38.5,85.9L38.5,85.9"/>
											<path class="st2" d="M38.6,85.9l0.3-0.1l0,0L38.6,85.9L38.6,85.9"/>
											<path class="st2" d="M38.6,85.9l0.3-0.1l0,0L38.6,85.9L38.6,85.9"/>
											<path class="st2" d="M38.6,85.9l0.3-0.1l0,0L38.6,85.9L38.6,85.9"/>
											<path class="st2" d="M38.6,85.9l0.3-0.1l0,0L38.6,85.9C38.6,86.1,38.6,86.1,38.6,85.9"/>
											<path class="st2" d="M38.6,86.1l0.3-0.1l0,0L38.6,86.1L38.6,86.1"/>
											<path class="st2" d="M38.8,86.1l0.3-0.1l0,0L38.8,86.1L38.8,86.1"/>
											<path class="st2" d="M38.8,86.1l0.3-0.1l0,0L38.8,86.1L38.8,86.1"/>
											<path class="st2" d="M38.8,86.1l0.3-0.1l0,0L38.8,86.1L38.8,86.1"/>
											<path class="st2" d="M38.8,86.1l0.3-0.1l0,0L38.8,86.1C38.8,86.2,38.8,86.1,38.8,86.1"/>
											<path class="st2" d="M38.8,86.2l0.3-0.1l0,0L38.8,86.2L38.8,86.2"/>
											<path class="st2" d="M38.8,86.2l0.3-0.1l0,0L38.8,86.2C38.9,86.2,38.9,86.2,38.8,86.2"/>
											<path class="st2" d="M38.9,86.2l0.3-0.1l0,0L38.9,86.2L38.9,86.2"/>
											<path class="st2" d="M38.9,86.2l0.3-0.1l0,0L38.9,86.2C38.9,86.3,38.9,86.2,38.9,86.2"/>
											<path class="st2" d="M38.9,86.3l0.3-0.1c0,0,0,0,0,0.1H38.9L38.9,86.3"/>
											<path class="st2" d="M39.1,86.3l0.3-0.1l0,0L39.1,86.3C39.1,86.5,39.1,86.3,39.1,86.3"/>
											<path class="st2" d="M39.1,86.5l0.3-0.1l0,0L39.1,86.5L39.1,86.5"/>
											<path class="st2" d="M39.1,86.5l0.3-0.1l0,0L39.1,86.5L39.1,86.5"/>
											<path class="st2" d="M39.1,86.5l0.3-0.1l0,0L39.1,86.5L39.1,86.5"/>
											<path class="st2" d="M39.1,86.5l0.3-0.1l0,0L39.1,86.5C39.1,86.6,39.1,86.6,39.1,86.5"/>
											<path class="st2" d="M39.1,86.6l0.3-0.1l0,0L39.1,86.6L39.1,86.6"/>
											<path class="st2" d="M39.1,86.6l0.3-0.1l0,0L39.1,86.6L39.1,86.6"/>
											<path class="st2" d="M39.1,86.6l0.3-0.1l0,0L39.1,86.6L39.1,86.6"/>
											<path class="st2" d="M39.1,86.6l0.3-0.1l0,0L39.1,86.6C39.2,86.8,39.1,86.6,39.1,86.6"/>
											<path class="st2" d="M39.2,86.8l0.3-0.1l0,0L39.2,86.8L39.2,86.8"/>
											<path class="st2" d="M39.2,86.8l0.3-0.1l0,0L39.2,86.8L39.2,86.8"/>
											<path class="st2" d="M39.2,86.8l0.3-0.1l0,0L39.2,86.8L39.2,86.8"/>
											<path class="st2" d="M39.2,86.8l0.3-0.1l0,0L39.2,86.8C39.2,86.9,39.2,86.8,39.2,86.8"/>
											<path class="st2" d="M39.2,86.9l0.3-0.1l0,0L39.2,86.9L39.2,86.9"/>
											<path class="st2" d="M39.2,86.9l0.3-0.1l0,0L39.2,86.9L39.2,86.9"/>
											<path class="st2" d="M39.2,86.9l0.3-0.1l0,0L39.2,86.9L39.2,86.9"/>
											<path class="st2" d="M39.2,86.9l0.3-0.1l0,0L39.2,86.9L39.2,86.9"/>
											<path class="st2" d="M39.2,87l0.3-0.1l0,0L39.2,87L39.2,87"/>
											<path class="st2" d="M39.2,87l0.3-0.1l0,0l0,0L39.2,87L39.2,87L39.2,87"/>
											<path class="st2" d="M39.2,87l0.3-0.1l0,0L39.2,87L39.2,87"/>
											<path class="st2" d="M39.2,87l0.3-0.1l0,0L39.2,87L39.2,87"/>
											<path class="st2" d="M39.2,87l0.3-0.1l0,0L39.2,87C39.2,87.2,39.2,87,39.2,87"/>
											<path class="st2" d="M39.2,87.2l0.3-0.1l0,0L39.2,87.2L39.2,87.2"/>
											<path class="st2" d="M39.2,87.2l0.3-0.1l0,0L39.2,87.2L39.2,87.2"/>
											<path class="st2" d="M39.2,87.2l0.3-0.1l0,0L39.2,87.2L39.2,87.2"/>
											<path class="st2" d="M39.2,87.2l0.3-0.1l0,0L39.2,87.2L39.2,87.2"/>
											<path class="st2" d="M39.2,87.3l0.3-0.1l0,0L39.2,87.3L39.2,87.3"/>
											<path class="st2" d="M39.2,87.3l0.3-0.1l0,0L39.2,87.3C39.1,87.3,39.1,87.3,39.2,87.3"/>
											<path class="st2" d="M39.1,87.3l0.3-0.1C39.3,87.2,39.3,87.3,39.1,87.3L39.1,87.3C39.1,87.5,39.1,87.3,39.1,87.3"/>
										</g>
									</g>
								</g>
							</g>
						</g>
					</g>
					<g>
						<path class="st2" d="M38.5,85.1c0.7,0.4,1.4,1.5,1.4,2.4c0,0.8-0.6,1.3-1.4,0.8c-0.7-0.4-1.4-1.5-1.4-2.4
							C37.1,84.9,37.8,84.6,38.5,85.1z M38.5,87.5c0.4,0.1,0.7,0,0.7-0.4s-0.3-1-0.7-1.1s-0.7,0-0.7,0.4
							C37.9,86.8,38.2,87.2,38.5,87.5"/>
					</g>
					<g>
						<path class="st2" d="M38.5,85.9c0.4,0.1,0.7,0.7,0.7,1.1s-0.3,0.6-0.7,0.4c-0.4-0.1-0.7-0.7-0.7-1.1
							C37.9,85.9,38.2,85.6,38.5,85.9z"/>
					</g>
					<g class="st1">
						<g>
							<g>
								<g>
									<g>
										<path id="SVGID_00000160150381940885056940000006077923991885453485_" class="st2" d="M37.5,84.9l0.3-0.1
											c0.3-0.1,0.6-0.1,1,0.1L38.5,85C38.2,84.8,37.8,84.8,37.5,84.9z"/>
									</g>
									<g>
										<defs>
											<path id="SVGID_00000034084112201185502210000001980800623118690213_" d="M37.5,84.9l0.3-0.1c0.3-0.1,0.6-0.1,1,0.1
												L38.5,85C38.2,84.8,37.8,84.8,37.5,84.9z"/>
										</defs>
										<clipPath id="SVGID_00000089561557562138472610000017356396562074706590_">
											<use xlink:href="#SVGID_00000034084112201185502210000001980800623118690213_"  style="overflow:visible;"/>
										</clipPath>
										<g style="clip-path:url(#SVGID_00000089561557562138472610000017356396562074706590_);enable-background:new    ;">
											<path class="st2" d="M37.5,84.9l0.3-0.1h0.1L37.5,84.9C37.7,84.9,37.7,84.9,37.5,84.9"/>
											<path class="st2" d="M37.7,84.9l0.3-0.1c0,0,0,0,0.1,0L37.7,84.9C37.8,84.9,37.7,84.9,37.7,84.9"/>
											<path class="st2" d="M37.8,84.9l0.3-0.1c0,0,0,0,0.1,0L37.8,84.9L37.8,84.9"/>
											<path class="st2" d="M37.8,84.9l0.3-0.1c0,0,0,0,0.1,0L37.8,84.9C37.9,84.9,37.9,84.9,37.8,84.9"/>
											<path class="st2" d="M37.9,84.9l0.3-0.1l0,0L37.9,84.9L37.9,84.9"/>
											<path class="st2" d="M37.9,84.9l0.3-0.1l0,0L37.9,84.9C38.1,84.9,37.9,84.9,37.9,84.9"/>
											<path class="st2" d="M38.1,84.9l0.3-0.1l0,0L38.1,84.9L38.1,84.9"/>
											<path class="st2" d="M38.1,84.9l0.3-0.1l0,0L38.1,84.9L38.1,84.9"/>
											<path class="st2" d="M38.2,84.9l0.3-0.1l0,0L38.2,84.9L38.2,84.9"/>
											<path class="st2" d="M38.2,84.9l0.3-0.1l0,0L38.2,84.9L38.2,84.9"/>
											<path class="st2" d="M38.2,84.9l0.3-0.1l0,0L38.2,84.9C38.4,84.9,38.4,84.9,38.2,84.9"/>
											<path class="st2" d="M38.4,84.9l0.3-0.1l0,0L38.4,84.9L38.4,84.9"/>
											<path class="st2" d="M38.4,84.9l0.3-0.1l0,0L38.4,84.9C38.4,85.1,38.4,85.1,38.4,84.9"/>
											<path class="st2" d="M38.5,85.1l0.3-0.1l0,0L38.5,85.1L38.5,85.1"/>
											<path class="st2" d="M38.5,85.1l0.3-0.1l0,0L38.5,85.1L38.5,85.1"/>
										</g>
									</g>
								</g>
							</g>
						</g>
					</g>
					<g class="st1">
						<g>
							<g>
								<g>
									<g>
										<path id="SVGID_00000087388338123901663210000015892718867890408849_" class="st2" d="M39.8,88.2l-0.3,0.1
											c0.3-0.1,0.4-0.4,0.4-0.8c0-0.8-0.6-2-1.4-2.4l0.3-0.1c0.7,0.4,1.4,1.5,1.4,2.4C40.2,87.7,40,88,39.8,88.2z"/>
									</g>
									<g>
										<defs>
											<path id="SVGID_00000075142272582583619400000014309515434347560886_" d="M39.8,88.2l-0.3,0.1c0.3-0.1,0.4-0.4,0.4-0.8
												c0-0.8-0.6-2-1.4-2.4l0.3-0.1c0.7,0.4,1.4,1.5,1.4,2.4C40.2,87.7,40,88,39.8,88.2z"/>
										</defs>
										<clipPath id="SVGID_00000064331302070878395780000001111562962282335660_">
											<use xlink:href="#SVGID_00000075142272582583619400000014309515434347560886_"  style="overflow:visible;"/>
										</clipPath>
										<g style="clip-path:url(#SVGID_00000064331302070878395780000001111562962282335660_);enable-background:new    ;">
											<polyline class="st2" points="38.5,85.1 38.8,84.9 38.8,84.9 38.5,85.1 38.5,85.1 											"/>
											<path class="st2" d="M38.5,85.1l0.3-0.1l0,0L38.5,85.1C38.6,85.1,38.6,85.1,38.5,85.1"/>
											<path class="st2" d="M38.6,85.1l0.3-0.1l0,0L38.6,85.1C38.6,85.2,38.6,85.1,38.6,85.1"/>
											<path class="st2" d="M38.6,85.2l0.3-0.1l0,0L38.6,85.2C38.8,85.2,38.6,85.2,38.6,85.2"/>
											<path class="st2" d="M38.8,85.2l0.3-0.1l0,0L38.8,85.2L38.8,85.2"/>
											<path class="st2" d="M38.8,85.2l0.3-0.1l0,0L38.8,85.2L38.8,85.2"/>
											<path class="st2" d="M38.9,85.3l0.3-0.1l0,0L38.9,85.3L38.9,85.3"/>
											<path class="st2" d="M38.9,85.3l0.3-0.1l0,0L38.9,85.3L38.9,85.3"/>
											<path class="st2" d="M38.9,85.3l0.3-0.1l0,0L38.9,85.3C39.1,85.5,39.1,85.5,38.9,85.3"/>
											<path class="st2" d="M39.1,85.5l0.3-0.1l0,0L39.1,85.5L39.1,85.5"/>
											<path class="st2" d="M39.1,85.5l0.3-0.1l0,0L39.1,85.5L39.1,85.5"/>
											<path class="st2" d="M39.2,85.6l0.3-0.1l0,0L39.2,85.6L39.2,85.6"/>
											<path class="st2" d="M39.2,85.6l0.3-0.1l0,0L39.2,85.6L39.2,85.6"/>
											<path class="st2" d="M39.2,85.8l0.3-0.1c0,0,0,0,0,0.1H39.2C39.3,85.8,39.2,85.8,39.2,85.8"/>
											<path class="st2" d="M39.3,85.8l0.3-0.1c0,0,0,0.1,0.1,0.1H39.3C39.3,85.9,39.3,85.8,39.3,85.8"/>
											<path class="st2" d="M39.3,85.9l0.3-0.1c0,0,0,0.1,0.1,0.1H39.3C39.5,86.1,39.5,85.9,39.3,85.9"/>
											<path class="st2" d="M39.5,86.1l0.3-0.1v0.1H39.5C39.5,86.2,39.5,86.1,39.5,86.1"/>
											<path class="st2" d="M39.6,86.2l0.3-0.1c0,0,0,0,0,0.1H39.6L39.6,86.2"/>
											<path class="st2" d="M39.6,86.3l0.3-0.1c0,0,0,0,0,0.1H39.6L39.6,86.3"/>
											<path class="st2" d="M39.6,86.3l0.3-0.1l0,0L39.6,86.3L39.6,86.3"/>
											<path class="st2" d="M39.6,86.5l0.3-0.1l0,0L39.6,86.5L39.6,86.5"/>
											<path class="st2" d="M39.8,86.5l0.3-0.1l0,0L39.8,86.5L39.8,86.5"/>
											<path class="st2" d="M39.8,86.5l0.3-0.1l0,0L39.8,86.5C39.8,86.6,39.8,86.6,39.8,86.5"/>
											<path class="st2" d="M39.8,86.6l0.3-0.1l0,0L39.8,86.6L39.8,86.6"/>
											<path class="st2" d="M39.8,86.6l0.3-0.1c0,0,0,0,0,0.1H39.8C39.8,86.8,39.8,86.8,39.8,86.6"/>
											<path class="st2" d="M39.8,86.8l0.3-0.1c0,0,0,0,0,0.1H39.8L39.8,86.8"/>
											<path class="st2" d="M39.8,86.8l0.3-0.1c0,0,0,0,0,0.1H39.8C39.8,86.9,39.8,86.9,39.8,86.8"/>
											<path class="st2" d="M39.9,86.9l0.3-0.1c0,0,0,0,0,0.1H39.9L39.9,86.9"/>
											<path class="st2" d="M39.9,86.9l0.3-0.1c0,0,0,0,0,0.1H39.9C39.9,87,39.9,87,39.9,86.9"/>
											<path class="st2" d="M39.9,87l0.3-0.1l0,0L39.9,87L39.9,87"/>
											<path class="st2" d="M39.9,87l0.3-0.1l0,0L39.9,87C39.9,87.2,39.9,87.2,39.9,87"/>
											<path class="st2" d="M39.9,87.2l0.3-0.1l0,0L39.9,87.2L39.9,87.2"/>
											<path class="st2" d="M39.9,87.2l0.3-0.1l0,0L39.9,87.2C39.9,87.3,39.9,87.3,39.9,87.2"/>
											<path class="st2" d="M39.9,87.3l0.3-0.1l0,0L39.9,87.3L39.9,87.3"/>
											<path class="st2" d="M39.9,87.3l0.3-0.1l0,0l0,0L39.9,87.3C39.9,87.5,39.9,87.5,39.9,87.3C39.9,87.5,39.9,87.5,39.9,87.3
												"/>
											<path class="st2" d="M39.9,87.5l0.3-0.1l0,0L39.9,87.5L39.9,87.5"/>
											<path class="st2" d="M39.9,87.5l0.3-0.1l0,0L39.9,87.5C39.9,87.6,39.9,87.6,39.9,87.5"/>
											<path class="st2" d="M39.9,87.6l0.3-0.1l0,0L39.9,87.6L39.9,87.6"/>
											<path class="st2" d="M39.9,87.6l0.3-0.1l0,0L39.9,87.6C39.9,87.7,39.9,87.6,39.9,87.6"/>
											<path class="st2" d="M39.9,87.7l0.3-0.1l0,0L39.9,87.7L39.9,87.7"/>
											<path class="st2" d="M39.9,87.7l0.3-0.1c0,0,0,0,0,0.1H39.9C39.9,87.9,39.9,87.7,39.9,87.7"/>
											<path class="st2" d="M39.9,87.9l0.3-0.1c0,0,0,0,0,0.1H39.9L39.9,87.9"/>
											<path class="st2" d="M39.8,87.9l0.3-0.1c0,0,0,0,0,0.1H39.8C39.8,88,39.8,87.9,39.8,87.9"/>
											<path class="st2" d="M39.8,88l0.3-0.1c0,0,0,0,0,0.1H39.8L39.8,88"/>
											<path class="st2" d="M39.8,88l0.3-0.1C39.9,88,39.9,88.2,39.8,88l-0.3,0.3C39.6,88.3,39.6,88.2,39.8,88"/>
										</g>
									</g>
								</g>
							</g>
						</g>
					</g>
				</g>
			</g>
		</g>
	</g>
	<g>
		<g>
			<g class="st1">
				<g class="st1">
					<g>
						<g>
							<g>
								<g>
									<path id="SVGID_00000023976206671098043140000004488730696318878851_" class="st2" d="M19.2,76.1c0.1,0.1,0.3,0.1,0.4,0
										l-0.3,0.1c-0.1,0-0.3,0-0.4,0C18.9,76.2,19.1,76.1,19.2,76.1z"/>
								</g>
								<g>
									<defs>
										<path id="SVGID_00000040558900806754191010000006231599052674226057_" d="M19.2,76.1c0.1,0.1,0.3,0.1,0.4,0l-0.3,0.1
											c-0.1,0-0.3,0-0.4,0C18.9,76.2,19.1,76.1,19.2,76.1z"/>
									</defs>
									<clipPath id="SVGID_00000058553497816684750760000015133469908704566671_">
										<use xlink:href="#SVGID_00000040558900806754191010000006231599052674226057_"  style="overflow:visible;"/>
									</clipPath>
									<g style="clip-path:url(#SVGID_00000058553497816684750760000015133469908704566671_);enable-background:new    ;">
										<path class="st2" d="M18.9,76.2l0.3-0.1l0,0L18.9,76.2L18.9,76.2"/>
										<path class="st2" d="M18.9,76.2l0.3-0.1l0,0L18.9,76.2L18.9,76.2"/>
										<path class="st2" d="M18.9,76.2l0.3-0.1l0,0L18.9,76.2L18.9,76.2"/>
										<path class="st2" d="M18.9,76.2l0.3-0.1l0,0L18.9,76.2L18.9,76.2"/>
										<path class="st2" d="M18.9,76.2l0.3-0.1l0,0L18.9,76.2C19.1,76.2,18.9,76.2,18.9,76.2"/>
										<path class="st2" d="M19.1,76.2l0.3-0.1l0,0L19.1,76.2L19.1,76.2"/>
										<path class="st2" d="M19.1,76.3l0.3-0.1l0,0L19.1,76.3L19.1,76.3"/>
										<path class="st2" d="M19.1,76.3l0.3-0.1l0,0L19.1,76.3L19.1,76.3"/>
										<path class="st2" d="M19.1,76.3l0.3-0.1l0,0L19.1,76.3L19.1,76.3"/>
										<path class="st2" d="M19.1,76.3l0.3-0.1l0,0L19.1,76.3C19.2,76.3,19.1,76.3,19.1,76.3"/>
										<path class="st2" d="M19.2,76.3l0.3-0.1l0,0L19.2,76.3L19.2,76.3"/>
										<path class="st2" d="M19.2,76.3l0.3-0.1l0,0L19.2,76.3L19.2,76.3"/>
										<path class="st2" d="M19.2,76.3l0.3-0.1l0,0L19.2,76.3L19.2,76.3"/>
										<path class="st2" d="M19.2,76.3l0.3-0.1l0,0L19.2,76.3L19.2,76.3"/>
										<path class="st2" d="M19.3,76.3l0.3-0.1l0,0L19.3,76.3C19.3,76.2,19.3,76.2,19.3,76.3"/>
									</g>
								</g>
							</g>
						</g>
					</g>
				</g>
				<g class="st1">
					<g>
						<g>
							<g>
								<g>
									<path id="SVGID_00000106833670854830308420000008627453055148580004_" class="st2" d="M18.5,74.9c0,0.4,0.3,1,0.7,1.1
										l-0.3,0.1c-0.4-0.1-0.7-0.7-0.7-1.1c0-0.1,0.1-0.3,0.1-0.4l0.3-0.1C18.6,74.5,18.5,74.6,18.5,74.9z"/>
								</g>
								<g>
									<defs>
										<path id="SVGID_00000157280048667126491310000011774592016624363192_" d="M18.5,74.9c0,0.4,0.3,1,0.7,1.1l-0.3,0.1
											c-0.4-0.1-0.7-0.7-0.7-1.1c0-0.1,0.1-0.3,0.1-0.4l0.3-0.1C18.6,74.5,18.5,74.6,18.5,74.9z"/>
									</defs>
									<clipPath id="SVGID_00000083810065456899936270000004827523236121797260_">
										<use xlink:href="#SVGID_00000157280048667126491310000011774592016624363192_"  style="overflow:visible;"/>
									</clipPath>
									<g style="clip-path:url(#SVGID_00000083810065456899936270000004827523236121797260_);enable-background:new    ;">
										<path class="st2" d="M18.4,74.6l0.3-0.1C18.6,74.5,18.5,74.5,18.4,74.6L18.4,74.6C18.4,74.8,18.4,74.6,18.4,74.6"/>
										<path class="st2" d="M18.4,74.8l0.3-0.1l0,0L18.4,74.8L18.4,74.8"/>
										<path class="st2" d="M18.2,74.8l0.3-0.1l0,0L18.2,74.8L18.2,74.8"/>
										<path class="st2" d="M18.2,74.8l0.3-0.1l0,0L18.2,74.8C18.2,74.9,18.2,74.8,18.2,74.8"/>
										<path class="st2" d="M18.2,74.9l0.3-0.1l0,0L18.2,74.9L18.2,74.9"/>
										<path class="st2" d="M18.2,74.9l0.3-0.1l0,0L18.2,74.9L18.2,74.9"/>
										<path class="st2" d="M18.2,74.9l0.3-0.1l0,0L18.2,74.9L18.2,74.9"/>
										<path class="st2" d="M18.2,74.9l0.3-0.1l0,0L18.2,74.9L18.2,74.9"/>
										<path class="st2" d="M18.2,75.1l0.3-0.1l0,0L18.2,75.1L18.2,75.1"/>
										<path class="st2" d="M18.2,75.1l0.3-0.1l0,0L18.2,75.1L18.2,75.1"/>
										<path class="st2" d="M18.2,75.1l0.3-0.1l0,0l0,0L18.2,75.1L18.2,75.1L18.2,75.1"/>
										<path class="st2" d="M18.2,75.1l0.3-0.1l0,0L18.2,75.1L18.2,75.1"/>
										<path class="st2" d="M18.2,75.1l0.3-0.1l0,0L18.2,75.1C18.2,75.2,18.2,75.1,18.2,75.1"/>
										<path class="st2" d="M18.2,75.2l0.3-0.1l0,0L18.2,75.2L18.2,75.2"/>
										<path class="st2" d="M18.2,75.2l0.3-0.1l0,0L18.2,75.2L18.2,75.2"/>
										<path class="st2" d="M18.2,75.2l0.3-0.1l0,0L18.2,75.2L18.2,75.2"/>
										<path class="st2" d="M18.2,75.2l0.3-0.1l0,0L18.2,75.2L18.2,75.2"/>
										<path class="st2" d="M18.2,75.3l0.3-0.1l0,0L18.2,75.3L18.2,75.3"/>
										<path class="st2" d="M18.2,75.3l0.3-0.1l0,0L18.2,75.3L18.2,75.3"/>
										<path class="st2" d="M18.2,75.3l0.3-0.1l0,0L18.2,75.3L18.2,75.3"/>
										<path class="st2" d="M18.2,75.3l0.3-0.1l0,0L18.2,75.3C18.4,75.3,18.2,75.3,18.2,75.3"/>
										<path class="st2" d="M18.4,75.5l0.3-0.1l0,0L18.4,75.5L18.4,75.5"/>
										<path class="st2" d="M18.4,75.5l0.3-0.1l0,0L18.4,75.5L18.4,75.5"/>
										<path class="st2" d="M18.4,75.5l0.3-0.1l0,0L18.4,75.5L18.4,75.5"/>
										<path class="st2" d="M18.4,75.5l0.3-0.1l0,0L18.4,75.5L18.4,75.5"/>
										<path class="st2" d="M18.4,75.5l0.3-0.1l0,0L18.4,75.5C18.4,75.6,18.4,75.6,18.4,75.5"/>
										<path class="st2" d="M18.4,75.6l0.3-0.1l0,0L18.4,75.6L18.4,75.6"/>
										<path class="st2" d="M18.4,75.6l0.3-0.1l0,0L18.4,75.6L18.4,75.6"/>
										<path class="st2" d="M18.4,75.6l0.3-0.1l0,0L18.4,75.6C18.4,75.8,18.4,75.6,18.4,75.6"/>
										<path class="st2" d="M18.4,75.8l0.3-0.1c0,0,0,0,0,0.1H18.4C18.5,75.8,18.5,75.8,18.4,75.8"/>
										<path class="st2" d="M18.5,75.8l0.3-0.1l0,0L18.5,75.8L18.5,75.8"/>
										<path class="st2" d="M18.5,75.9l0.3-0.1l0,0L18.5,75.9L18.5,75.9"/>
										<path class="st2" d="M18.5,75.9l0.3-0.1l0,0L18.5,75.9L18.5,75.9"/>
										<path class="st2" d="M18.6,75.9l0.3-0.1l0,0L18.6,75.9L18.6,75.9"/>
										<path class="st2" d="M18.6,75.9l0.3-0.1l0,0L18.6,75.9L18.6,75.9"/>
										<path class="st2" d="M18.6,76.1l0.3-0.1l0,0L18.6,76.1L18.6,76.1"/>
										<path class="st2" d="M18.6,76.1l0.3-0.1l0,0L18.6,76.1L18.6,76.1"/>
										<path class="st2" d="M18.6,76.1l0.3-0.1l0,0L18.6,76.1L18.6,76.1"/>
										<path class="st2" d="M18.6,76.1l0.3-0.1l0,0L18.6,76.1C18.8,76.1,18.8,76.1,18.6,76.1"/>
										<path class="st2" d="M18.8,76.1l0.3-0.1l0,0L18.8,76.1L18.8,76.1"/>
										<path class="st2" d="M18.8,76.1l0.3-0.1l0,0L18.8,76.1C18.8,76.2,18.8,76.2,18.8,76.1"/>
										<path class="st2" d="M18.8,76.2l0.3-0.1l0,0L18.8,76.2L18.8,76.2"/>
										<path class="st2" d="M18.8,76.2l0.3-0.1l0,0L18.8,76.2L18.8,76.2"/>
										<path class="st2" d="M18.9,76.2l0.3-0.1l0,0L18.9,76.2L18.9,76.2"/>
										<polyline class="st2" points="18.9,76.2 19.2,76.1 19.2,76.1 18.9,76.2 18.9,76.2 										"/>
									</g>
								</g>
							</g>
						</g>
					</g>
				</g>
				<g class="st1">
					<g>
						<g>
							<g>
								<g>
									<path id="SVGID_00000181057364441169804150000015066831147388308099_" class="st2" d="M18.4,74.6l0.3-0.1
										c0.1,0,0.3,0,0.4,0l-0.3,0.1C18.6,74.6,18.5,74.6,18.4,74.6z"/>
								</g>
								<g>
									<defs>
										<path id="SVGID_00000174587010563984311240000001119914381677636767_" d="M18.4,74.6l0.3-0.1c0.1,0,0.3,0,0.4,0l-0.3,0.1
											C18.6,74.6,18.5,74.6,18.4,74.6z"/>
									</defs>
									<clipPath id="SVGID_00000105404074835448490330000013835330779804279957_">
										<use xlink:href="#SVGID_00000174587010563984311240000001119914381677636767_"  style="overflow:visible;"/>
									</clipPath>
									<g style="clip-path:url(#SVGID_00000105404074835448490330000013835330779804279957_);enable-background:new    ;">
										<path class="st2" d="M18.4,74.6l0.3-0.1l0,0L18.4,74.6C18.5,74.6,18.5,74.6,18.4,74.6"/>
										<path class="st2" d="M18.5,74.6l0.3-0.1l0,0L18.5,74.6L18.5,74.6"/>
										<path class="st2" d="M18.5,74.6l0.3-0.1l0,0L18.5,74.6L18.5,74.6"/>
										<path class="st2" d="M18.5,74.6l0.3-0.1l0,0L18.5,74.6C18.6,74.6,18.5,74.6,18.5,74.6"/>
										<path class="st2" d="M18.6,74.6l0.3-0.1l0,0L18.6,74.6L18.6,74.6"/>
										<path class="st2" d="M18.6,74.6l0.3-0.1l0,0L18.6,74.6L18.6,74.6"/>
										<path class="st2" d="M18.6,74.6l0.3-0.1l0,0L18.6,74.6L18.6,74.6"/>
										<path class="st2" d="M18.6,74.6l0.3-0.1l0,0L18.6,74.6L18.6,74.6"/>
										<path class="st2" d="M18.6,74.6l0.3-0.1l0,0L18.6,74.6C18.8,74.6,18.8,74.6,18.6,74.6"/>
										<path class="st2" d="M18.8,74.6l0.3-0.1l0,0L18.8,74.6L18.8,74.6"/>
										<path class="st2" d="M18.8,74.6l0.3-0.1l0,0L18.8,74.6L18.8,74.6"/>
										<path class="st2" d="M18.8,74.6l0.3-0.1l0,0L18.8,74.6L18.8,74.6"/>
										<path class="st2" d="M18.8,74.6l0.3-0.1l0,0L18.8,74.6L18.8,74.6"/>
										<path class="st2" d="M18.8,74.6l0.3-0.1l0,0L18.8,74.6C18.9,74.6,18.8,74.6,18.8,74.6"/>
										<path class="st2" d="M18.9,74.6l0.3-0.1l0,0L18.9,74.6L18.9,74.6"/>
									</g>
								</g>
							</g>
						</g>
					</g>
				</g>
				<g>
					<path class="st2" d="M18.9,74.6c0.4,0.1,0.7,0.7,0.7,1.1s-0.3,0.6-0.7,0.4c-0.4-0.1-0.7-0.7-0.7-1.1
						C18.2,74.6,18.5,74.5,18.9,74.6z"/>
				</g>
				<g class="st1">
					<g>
						<g>
							<g>
								<g>
									<path id="SVGID_00000052806811286426506320000017397096499319375021_" class="st2" d="M19.6,76.1l-0.3,0.1
										c0.1,0,0.1-0.3,0.1-0.4c0-0.4-0.3-0.8-0.7-1.1l0.3-0.1c0.4,0.1,0.7,0.7,0.7,1.1C19.8,75.9,19.8,76.1,19.6,76.1z"/>
								</g>
								<g>
									<defs>
										<path id="SVGID_00000073702906733192913750000010783800345809181596_" d="M19.6,76.1l-0.3,0.1c0.1,0,0.1-0.3,0.1-0.4
											c0-0.4-0.3-0.8-0.7-1.1l0.3-0.1c0.4,0.1,0.7,0.7,0.7,1.1C19.8,75.9,19.8,76.1,19.6,76.1z"/>
									</defs>
									<clipPath id="SVGID_00000065062814978278580400000006698074830098156710_">
										<use xlink:href="#SVGID_00000073702906733192913750000010783800345809181596_"  style="overflow:visible;"/>
									</clipPath>
									<g style="clip-path:url(#SVGID_00000065062814978278580400000006698074830098156710_);enable-background:new    ;">
										<polyline class="st2" points="18.9,74.6 19.2,74.5 19.2,74.5 18.9,74.6 18.9,74.6 										"/>
										<path class="st2" d="M18.9,74.6l0.3-0.1l0,0L18.9,74.6C18.9,74.8,18.9,74.6,18.9,74.6"/>
										<path class="st2" d="M18.9,74.8l0.3-0.1l0,0L18.9,74.8L18.9,74.8"/>
										<path class="st2" d="M18.9,74.8l0.3-0.1l0,0L18.9,74.8L18.9,74.8"/>
										<path class="st2" d="M18.9,74.8l0.3-0.1l0,0L18.9,74.8C19.1,74.8,18.9,74.8,18.9,74.8"/>
										<path class="st2" d="M19.1,74.8l0.3-0.1l0,0L19.1,74.8L19.1,74.8"/>
										<path class="st2" d="M19.1,74.8l0.3-0.1l0,0L19.1,74.8L19.1,74.8"/>
										<path class="st2" d="M19.1,74.8l0.3-0.1l0,0L19.1,74.8L19.1,74.8"/>
										<path class="st2" d="M19.1,74.9l0.3-0.1l0,0L19.1,74.9L19.1,74.9"/>
										<path class="st2" d="M19.1,74.9l0.3-0.1l0,0L19.1,74.9C19.2,74.9,19.1,74.9,19.1,74.9"/>
										<path class="st2" d="M19.2,74.9l0.3-0.1l0,0L19.2,74.9L19.2,74.9"/>
										<path class="st2" d="M19.2,74.9l0.3-0.1l0,0L19.2,74.9L19.2,74.9"/>
										<path class="st2" d="M19.2,74.9l0.3-0.1l0,0L19.2,74.9L19.2,74.9"/>
										<path class="st2" d="M19.2,75.1l0.3-0.1l0,0L19.2,75.1L19.2,75.1"/>
										<path class="st2" d="M19.2,75.1l0.3-0.1l0,0L19.2,75.1C19.3,75.1,19.2,75.1,19.2,75.1"/>
										<path class="st2" d="M19.3,75.1l0.3-0.1c0,0,0,0,0,0.1H19.3C19.3,75.2,19.3,75.1,19.3,75.1"/>
										<path class="st2" d="M19.3,75.2l0.3-0.1l0,0L19.3,75.2L19.3,75.2"/>
										<path class="st2" d="M19.3,75.2l0.3-0.1l0,0L19.3,75.2L19.3,75.2"/>
										<path class="st2" d="M19.3,75.2l0.3-0.1l0,0L19.3,75.2C19.3,75.3,19.3,75.2,19.3,75.2"/>
										<path class="st2" d="M19.3,75.3l0.3-0.1l0,0L19.3,75.3C19.5,75.3,19.3,75.3,19.3,75.3"/>
										<path class="st2" d="M19.5,75.3l0.3-0.1l0,0L19.5,75.3L19.5,75.3"/>
										<path class="st2" d="M19.5,75.3l0.3-0.1l0,0L19.5,75.3L19.5,75.3"/>
										<path class="st2" d="M19.5,75.3l0.3-0.1l0,0L19.5,75.3L19.5,75.3"/>
										<path class="st2" d="M19.5,75.5l0.3-0.1l0,0L19.5,75.5L19.5,75.5"/>
										<path class="st2" d="M19.5,75.5l0.3-0.1l0,0L19.5,75.5L19.5,75.5"/>
										<path class="st2" d="M19.5,75.5l0.3-0.1l0,0L19.5,75.5L19.5,75.5"/>
										<path class="st2" d="M19.5,75.5l0.3-0.1l0,0L19.5,75.5L19.5,75.5"/>
										<path class="st2" d="M19.5,75.5l0.3-0.1l0,0L19.5,75.5C19.5,75.6,19.5,75.6,19.5,75.5"/>
										<path class="st2" d="M19.5,75.6l0.3-0.1l0,0L19.5,75.6L19.5,75.6"/>
										<path class="st2" d="M19.5,75.6l0.3-0.1l0,0L19.5,75.6L19.5,75.6"/>
										<path class="st2" d="M19.5,75.6l0.3-0.1l0,0L19.5,75.6L19.5,75.6"/>
										<path class="st2" d="M19.5,75.6l0.3-0.1l0,0L19.5,75.6C19.5,75.8,19.5,75.8,19.5,75.6"/>
										<path class="st2" d="M19.5,75.8l0.3-0.1l0,0L19.5,75.8L19.5,75.8"/>
										<path class="st2" d="M19.5,75.8l0.3-0.1l0,0L19.5,75.8L19.5,75.8"/>
										<path class="st2" d="M19.5,75.8l0.3-0.1l0,0l0,0L19.5,75.8L19.5,75.8L19.5,75.8"/>
										<path class="st2" d="M19.5,75.8l0.3-0.1l0,0L19.5,75.8C19.5,75.9,19.5,75.8,19.5,75.8"/>
										<path class="st2" d="M19.5,75.9l0.3-0.1l0,0L19.5,75.9L19.5,75.9"/>
										<path class="st2" d="M19.5,75.9l0.3-0.1l0,0L19.5,75.9L19.5,75.9"/>
										<path class="st2" d="M19.5,75.9l0.3-0.1l0,0L19.5,75.9L19.5,75.9"/>
										<path class="st2" d="M19.5,75.9l0.3-0.1l0,0L19.5,75.9L19.5,75.9"/>
										<path class="st2" d="M19.5,75.9l0.3-0.1l0,0L19.5,75.9C19.5,76.1,19.5,76.1,19.5,75.9"/>
										<path class="st2" d="M19.5,76.1l0.3-0.1l0,0L19.5,76.1L19.5,76.1"/>
										<path class="st2" d="M19.5,76.1l0.3-0.1l0,0L19.5,76.1L19.5,76.1"/>
										<path class="st2" d="M19.5,76.1l0.3-0.1l0,0L19.5,76.1L19.5,76.1"/>
										<path class="st2" d="M19.5,76.2l0.3-0.1C19.8,76.1,19.8,76.2,19.5,76.2L19.5,76.2C19.3,76.2,19.5,76.2,19.5,76.2"/>
									</g>
								</g>
							</g>
						</g>
					</g>
				</g>
				<g class="st1">
					<g>
						<g>
							<g>
								<g>
									<path id="SVGID_00000149353770529287669440000000823154000813505199_" class="st2" d="M17.9,73.8l0.3-0.1
										c0.3-0.1,0.6-0.1,1,0.1l-0.3,0.1C18.5,73.7,18.2,73.7,17.9,73.8z"/>
								</g>
								<g>
									<defs>
										<path id="SVGID_00000110440602111011706560000014910675199802285488_" d="M17.9,73.8l0.3-0.1c0.3-0.1,0.6-0.1,1,0.1
											l-0.3,0.1C18.5,73.7,18.2,73.7,17.9,73.8z"/>
									</defs>
									<clipPath id="SVGID_00000080177735024236461540000003844791773895795360_">
										<use xlink:href="#SVGID_00000110440602111011706560000014910675199802285488_"  style="overflow:visible;"/>
									</clipPath>
									<g style="clip-path:url(#SVGID_00000080177735024236461540000003844791773895795360_);enable-background:new    ;">
										<path class="st2" d="M17.9,73.8l0.3-0.1h0.1L17.9,73.8L17.9,73.8"/>
										<path class="st2" d="M18.1,73.7l0.3-0.1c0,0,0,0,0.1,0L18.1,73.7L18.1,73.7"/>
										<path class="st2" d="M18.1,73.7l0.3-0.1c0,0,0,0,0.1,0L18.1,73.7C18.2,73.7,18.1,73.7,18.1,73.7"/>
										<path class="st2" d="M18.2,73.7l0.3-0.1c0,0,0,0,0.1,0L18.2,73.7L18.2,73.7"/>
										<path class="st2" d="M18.2,73.7l0.3-0.1l0,0L18.2,73.7C18.4,73.7,18.4,73.7,18.2,73.7"/>
										<path class="st2" d="M18.4,73.7l0.3-0.1l0,0L18.4,73.7L18.4,73.7"/>
										<path class="st2" d="M18.4,73.7l0.3-0.1l0,0L18.4,73.7C18.5,73.7,18.4,73.7,18.4,73.7"/>
										<path class="st2" d="M18.5,73.7l0.3-0.1l0,0L18.5,73.7L18.5,73.7"/>
										<path class="st2" d="M18.5,73.7l0.3-0.1l0,0L18.5,73.7L18.5,73.7"/>
										<path class="st2" d="M18.5,73.7l0.3-0.1l0,0L18.5,73.7C18.6,73.8,18.6,73.7,18.5,73.7"/>
										<path class="st2" d="M18.6,73.8l0.3-0.1l0,0L18.6,73.8L18.6,73.8"/>
										<path class="st2" d="M18.6,73.8l0.3-0.1l0,0L18.6,73.8C18.8,73.8,18.6,73.8,18.6,73.8"/>
										<path class="st2" d="M18.8,73.8l0.3-0.1l0,0L18.8,73.8L18.8,73.8"/>
										<path class="st2" d="M18.8,73.8l0.3-0.1l0,0L18.8,73.8L18.8,73.8"/>
										<path class="st2" d="M18.8,73.8l0.3-0.1l0,0L18.8,73.8C18.9,73.8,18.9,73.8,18.8,73.8"/>
									</g>
								</g>
							</g>
						</g>
					</g>
				</g>
				<g class="st1">
					<g>
						<g>
							<g>
								<g>
									<path id="SVGID_00000025442669199305720940000012633723560408355774_" class="st2" d="M20.2,76.9L19.9,77
										c0.3-0.1,0.4-0.4,0.4-0.8c0-0.8-0.6-2-1.4-2.4l0.3-0.1c0.7,0.4,1.4,1.5,1.4,2.4C20.6,76.5,20.3,76.8,20.2,76.9z"/>
								</g>
								<g>
									<defs>
										<path id="SVGID_00000165957545085916437350000016491810409987228314_" d="M20.2,76.9L19.9,77c0.3-0.1,0.4-0.4,0.4-0.8
											c0-0.8-0.6-2-1.4-2.4l0.3-0.1c0.7,0.4,1.4,1.5,1.4,2.4C20.6,76.5,20.3,76.8,20.2,76.9z"/>
									</defs>
									<clipPath id="SVGID_00000051348006865110110200000006615615301238491018_">
										<use xlink:href="#SVGID_00000165957545085916437350000016491810409987228314_"  style="overflow:visible;"/>
									</clipPath>
									<g style="clip-path:url(#SVGID_00000051348006865110110200000006615615301238491018_);enable-background:new    ;">
										<polyline class="st2" points="18.9,73.8 19.2,73.7 19.2,73.7 18.9,73.9 18.9,73.8 										"/>
										<path class="st2" d="M18.9,73.9l0.3-0.1l0,0L18.9,73.9L18.9,73.9"/>
										<path class="st2" d="M18.9,73.9l0.3-0.1l0,0L18.9,73.9C19.1,73.9,18.9,73.9,18.9,73.9"/>
										<path class="st2" d="M19.1,73.9l0.3-0.1l0,0L19.1,73.9L19.1,73.9"/>
										<path class="st2" d="M19.1,73.9l0.3-0.1l0,0L19.1,73.9C19.1,74.1,19.1,73.9,19.1,73.9"/>
										<path class="st2" d="M19.2,74.1l0.3-0.1l0,0L19.2,74.1L19.2,74.1"/>
										<path class="st2" d="M19.2,74.1l0.3-0.1l0,0L19.2,74.1L19.2,74.1"/>
										<path class="st2" d="M19.2,74.1l0.3-0.1l0,0L19.2,74.1C19.3,74.2,19.3,74.2,19.2,74.1"/>
										<path class="st2" d="M19.3,74.2l0.3-0.1l0,0L19.3,74.2L19.3,74.2"/>
										<path class="st2" d="M19.3,74.2l0.3-0.1l0,0L19.3,74.2C19.5,74.2,19.3,74.2,19.3,74.2"/>
										<path class="st2" d="M19.5,74.4l0.3-0.1l0,0L19.5,74.4L19.5,74.4"/>
										<path class="st2" d="M19.5,74.4l0.3-0.1l0,0L19.5,74.4L19.5,74.4"/>
										<path class="st2" d="M19.5,74.4l0.3-0.1l0,0L19.5,74.4C19.6,74.5,19.6,74.5,19.5,74.4"/>
										<path class="st2" d="M19.6,74.5l0.3-0.1c0,0,0,0,0,0.1H19.6L19.6,74.5"/>
										<path class="st2" d="M19.6,74.6l0.3-0.1c0,0,0,0.1,0.1,0.1H19.6C19.8,74.6,19.6,74.6,19.6,74.6"/>
										<path class="st2" d="M19.8,74.6l0.3-0.1l0.1,0.1l-0.3,0.1C19.8,74.8,19.8,74.8,19.8,74.6"/>
										<path class="st2" d="M19.9,74.9l0.3-0.1v0.1H19.9L19.9,74.9"/>
										<path class="st2" d="M19.9,74.9l0.3-0.1c0,0,0,0,0,0.1H19.9C19.9,75.1,19.9,75.1,19.9,74.9"/>
										<path class="st2" d="M19.9,75.1l0.3-0.1c0,0,0,0,0,0.1H19.9C20,75.1,19.9,75.1,19.9,75.1"/>
										<path class="st2" d="M20,75.2l0.3-0.1l0,0L20,75.2L20,75.2"/>
										<path class="st2" d="M20,75.2l0.3-0.1l0,0L20,75.2L20,75.2"/>
										<path class="st2" d="M20,75.2l0.3-0.1l0,0L20,75.2C20,75.3,20,75.3,20,75.2"/>
										<path class="st2" d="M20,75.3l0.3-0.1l0,0L20,75.3L20,75.3"/>
										<path class="st2" d="M20,75.3l0.3-0.1c0,0,0,0,0,0.1H20C20.2,75.5,20,75.5,20,75.3"/>
										<path class="st2" d="M20.2,75.5l0.3-0.1c0,0,0,0,0,0.1H20.2L20.2,75.5"/>
										<path class="st2" d="M20.2,75.5l0.3-0.1c0,0,0,0,0,0.1H20.2C20.2,75.6,20.2,75.6,20.2,75.5"/>
										<path class="st2" d="M20.2,75.6l0.3-0.1c0,0,0,0,0,0.1H20.2L20.2,75.6"/>
										<path class="st2" d="M20.2,75.6l0.3-0.1c0,0,0,0,0,0.1H20.2C20.2,75.8,20.2,75.8,20.2,75.6"/>
										<path class="st2" d="M20.2,75.8l0.3-0.1c0,0,0,0,0,0.1H20.2L20.2,75.8"/>
										<path class="st2" d="M20.2,75.9l0.3-0.1l0,0L20.2,75.9L20.2,75.9"/>
										<path class="st2" d="M20.2,75.9l0.3-0.1l0,0L20.2,75.9L20.2,75.9"/>
										<path class="st2" d="M20.2,75.9l0.3-0.1l0,0L20.2,75.9C20.2,76.1,20.2,76.1,20.2,75.9"/>
										<path class="st2" d="M20.2,76.1l0.3-0.1l0,0L20.2,76.1L20.2,76.1"/>
										<path class="st2" d="M20.2,76.1l0.3-0.1l0,0L20.2,76.1C20.3,76.2,20.3,76.2,20.2,76.1"/>
										<path class="st2" d="M20.3,76.2l0.3-0.1l0,0l0,0L20.3,76.2L20.3,76.2L20.3,76.2"/>
										<path class="st2" d="M20.3,76.2l0.3-0.1l0,0L20.3,76.2C20.3,76.3,20.3,76.3,20.3,76.2"/>
										<path class="st2" d="M20.3,76.3l0.3-0.1l0,0L20.3,76.3C20.2,76.3,20.2,76.3,20.3,76.3"/>
										<path class="st2" d="M20.2,76.3l0.3-0.1l0,0L20.2,76.3C20.2,76.5,20.2,76.3,20.2,76.3"/>
										<path class="st2" d="M20.2,76.5l0.3-0.1l0,0L20.2,76.5L20.2,76.5"/>
										<path class="st2" d="M20.2,76.5l0.3-0.1l0,0L20.2,76.5C20.2,76.6,20.2,76.5,20.2,76.5"/>
										<path class="st2" d="M20.2,76.6l0.3-0.1l0,0L20.2,76.6L20.2,76.6"/>
										<path class="st2" d="M20.2,76.6l0.3-0.1c0,0,0,0,0,0.1H20.2C20.2,76.8,20.2,76.6,20.2,76.6"/>
										<path class="st2" d="M20.2,76.8l0.3-0.1c0,0,0,0,0,0.1H20.2L20.2,76.8"/>
										<path class="st2" d="M20.2,76.8l0.3-0.1c0,0,0,0,0,0.1H20.2C20,76.9,20.2,76.8,20.2,76.8"/>
										<path class="st2" d="M20,76.9l0.3-0.1C20.3,76.8,20.2,76.9,20,76.9l-0.3,0.3C19.9,77,20,77,20,76.9"/>
									</g>
								</g>
							</g>
						</g>
					</g>
				</g>
				<g>
					<path class="st2" d="M18.9,73.8c0.7,0.4,1.4,1.5,1.4,2.4c0,0.8-0.6,1.3-1.4,0.8c-0.7-0.4-1.4-1.5-1.4-2.4
						C17.5,73.8,18.1,73.4,18.9,73.8z M18.9,76.2c0.4,0.1,0.7,0,0.7-0.4s-0.3-0.8-0.7-1.1c-0.4-0.1-0.7,0-0.7,0.4
						S18.5,76.1,18.9,76.2"/>
				</g>
			</g>
		</g>
	</g>
</g>
</svg>
