<?xml version="1.0" encoding="utf-8"?>
<!-- Generator: Adobe Illustrator 25.4.0, SVG Export Plug-In . SVG Version: 6.00 Build 0)  -->
<svg version="1.1" id="Layer_1" xmlns="http://www.w3.org/2000/svg" xmlns:xlink="http://www.w3.org/1999/xlink" x="0px" y="0px"
	 viewBox="0 0 177 60" style="enable-background:new 0 0 177 60;" xml:space="preserve">
<style type="text/css">
	.st0{fill:#6BB4FF;}
	.st1{fill:#22313F;}
</style>
<g>
	<g>
		<polygon class="st0" points="36.7,58.6 28.3,58.6 0,30.4 8.4,30.4 32.3,54.2 		"/>
	</g>
	<g>
		<polygon class="st0" points="49.1,58.6 40.4,58.6 35,53.2 12.2,30.4 20.8,30.4 40.7,50.3 		"/>
	</g>
	<path class="st1" d="M56.9,23.2c0,2.5-0.4,4.9-1.2,7.1c-2.2,6.3-7.3,11.2-13.7,13.2L28.8,30.3h6.9c3.9,0,7.1-3.2,7.1-7.1
		s-3.2-7.1-7.1-7.1h-21L0.5,2h35.2c9.2,0,17.1,5.9,20,14.1C56.4,18.4,56.9,20.7,56.9,23.2z"/>
	<path class="st1" d="M71.2,37.5h13.2c3.9,0,7.1-3.2,7.1-7.1s-3.2-7.1-7.1-7.1H71.2V37.5z"/>
	<path class="st1" d="M113.2,23.4v13.9c0,2.6-0.5,5-1.3,7.3c-2.2,5.9-6.9,10.6-12.9,12.7c-2.2,0.8-4.6,1.2-7.1,1.2H56.7l14.4-13.9
		h13.8c1.1,0,2.1-0.1,3.2-0.4l0,0c2.7-0.6,5-2,6.9-3.9c2.4-2.5,3.9-6,3.9-9.8c0-3.7-1.4-7.1-3.7-9.6c-2-2.1-4.6-3.7-7.5-4.3l0,0
		c-0.9-0.2-1.8-0.3-2.7-0.3l-13.8-0.1l-14.3-14h35.2c2.5,0,4.9,0.4,7.1,1.2c6,2.1,10.8,6.9,12.9,12.9
		C112.8,18.6,113.2,21,113.2,23.4z"/>
	<g>
		<path class="st1" d="M156.2,49.8h2.2l0,0c-5.7,5.7-13.4,8.8-21.4,8.8h-16.3l8.8-8.8H156.2z"/>
	</g>
	<g>
		<path class="st0" d="M164.5,43.7L164.5,43.7h-6.4h-14.4L157,30.5h2.1C166,30.5,169.4,38.8,164.5,43.7z"/>
	</g>
	<path class="st1" d="M120.7,23.5c0,2.5,0.4,4.9,1.2,7.1c2.2,6.3,7.3,11,13.7,13l13.2-13.2h-6.9c-3.9,0-7.1-3.2-7.1-7.1
		s3.2-7.1,7.1-7.1h21L177,2.1h-35.1c-9.2,0-17.1,6.1-20,14.3C121.2,18.7,120.7,21.1,120.7,23.5z"/>
</g>
</svg>
