<?xml version="1.0" encoding="utf-8"?>
<!-- Generator: Adobe Illustrator 25.3.1, SVG Export Plug-In . SVG Version: 6.00 Build 0)  -->
<svg version="1.1" id="Layer_1" xmlns="http://www.w3.org/2000/svg" xmlns:xlink="http://www.w3.org/1999/xlink" x="0px" y="0px"
	 viewBox="0 0 182 60" style="enable-background:new 0 0 182 60;" xml:space="preserve">
<style type="text/css">
	.st0{fill:#6BB4FF;}
	.st1{fill:#FFFFFF;}
</style>
<g>
	<g>
		<polygon class="st0" points="41.1,57.2 33,57.2 5.9,30 14,30 36.9,53 		"/>
	</g>
	<g>
		<polygon class="st0" points="53,57.2 44.7,57.2 39.5,52 17.5,30 25.9,30 45,49.2 		"/>
	</g>
	<path class="st1" d="M60.5,23.2c0,2.4-0.4,4.7-1.2,6.8c-2.1,6-7,10.8-13.2,12.7L33.5,30h6.6c3.8,0,6.8-3,6.8-6.8s-3-6.8-6.8-6.8
		H19.9L6.3,2.8h33.8c8.9,0,16.4,5.7,19.2,13.6C60.1,18.5,60.5,20.8,60.5,23.2z"/>
	<path class="st0" d="M74.3,36.9H87c3.8,0,6.8-3,6.8-6.8s-3-6.8-6.8-6.8H74.3V36.9z"/>
	<path class="st1" d="M114.7,23.4v13.4c0,2.5-0.4,4.8-1.2,7c-2.1,5.7-6.6,10.2-12.4,12.2c-2.1,0.8-4.4,1.2-6.8,1.2h-34l13.9-13.4
		h13.3c1,0,2.1-0.1,3-0.3c0,0,0,0,0,0c2.6-0.6,4.8-1.9,6.6-3.8c2.3-2.4,3.8-5.8,3.8-9.5c0-3.6-1.4-6.8-3.6-9.3
		c-1.9-2.1-4.4-3.5-7.2-4.1c0,0,0,0,0,0c-0.8-0.2-1.7-0.3-2.6-0.3l-13.3-0.1L60.5,3h33.8c2.4,0,4.7,0.4,6.8,1.2
		c5.8,2,10.4,6.6,12.4,12.4C114.3,18.7,114.7,21,114.7,23.4z"/>
	<g>
		<path class="st1" d="M156.1,48.7h2.1v0c-5.5,5.4-12.9,8.5-20.6,8.5h-15.7l8.5-8.5L156.1,48.7z"/>
	</g>
	<g>
		<path class="st0" d="M164.1,42.8L164.1,42.8l-6.2,0l-13.9,0l12.8-12.7l2,0C165.5,30.2,168.8,38.2,164.1,42.8z"/>
	</g>
	<path class="st1" d="M121.9,23.5c0,2.4,0.4,4.7,1.2,6.8c2.1,6,7,10.6,13.2,12.5L149,30.1h-6.6c-3.8,0-6.8-3-6.8-6.8s3-6.8,6.8-6.8
		h20.2l13.6-13.6h-33.8c-8.9,0-16.4,5.9-19.2,13.8C122.4,18.8,121.9,21.1,121.9,23.5z"/>
</g>
</svg>
