<?xml version="1.0" encoding="utf-8"?>
<!-- Generator: Adobe Illustrator 25.3.1, SVG Export Plug-In . SVG Version: 6.00 Build 0)  -->
<svg version="1.1" id="Layer_1" xmlns="http://www.w3.org/2000/svg" xmlns:xlink="http://www.w3.org/1999/xlink" x="0px" y="0px"
	 viewBox="0 0 28.6 20.6" style="enable-background:new 0 0 28.6 20.6;" xml:space="preserve">
<style type="text/css">
	.st0{fill:#FFFFFF;}
</style>
<g id="Icon_ionic-ios-mail" transform="translate(-3.375 -7.875)">
	<path id="Path_17" class="st0" d="M30.2,11.5l-6.6,6.7c0,0,0,0.1,0,0.2c0,0,0,0,0,0l4.6,4.9c0.3,0.3,0.3,0.8,0,1.1
		c-0.3,0.3-0.8,0.3-1.1,0l-4.6-4.9c0,0-0.1,0-0.2,0l-1.1,1.1c-0.9,0.9-2.2,1.5-3.5,1.5c-1.4,0-2.6-0.6-3.6-1.5L13,19.6
		c0,0-0.1,0-0.2,0l-4.6,4.9c-0.3,0.3-0.8,0.3-1.1,0c-0.3-0.3-0.3-0.8,0-1.1l4.6-4.9c0,0,0-0.1,0-0.2l-6.6-6.7c0,0-0.1,0-0.2,0
		c0,0,0,0.1,0,0.1v13.4c0,1.1,0.9,2,2,2h21.6c1.1,0,2-0.9,2-2V11.6C30.4,11.6,30.4,11.5,30.2,11.5C30.3,11.5,30.2,11.5,30.2,11.5z"
		/>
	<path id="Path_18" class="st0" d="M17.7,20.6c0.9,0,1.8-0.4,2.4-1l9.6-9.8c-0.3-0.3-0.8-0.4-1.2-0.4H6.9C6.5,9.4,6,9.5,5.7,9.8
		l9.6,9.8C15.9,20.2,16.8,20.6,17.7,20.6z"/>
</g>
</svg>
